<?xml version="1.0" encoding="UTF-8"?>
<svg id="Layer_3" data-name="Layer 3" xmlns="http://www.w3.org/2000/svg" viewBox="0 0 1854.35 159.19">
  <defs>
    <style>
      .cls-1 {
        fill: #dead9b;
        stroke: #dead9b;
      }

      .cls-1, .cls-2, .cls-3, .cls-4, .cls-5, .cls-6, .cls-7 {
        stroke-width: .25px;
      }

      .cls-2 {
        fill: #bd968e;
        stroke: #bd968e;
      }

      .cls-3 {
        fill: #d8a796;
        stroke: #d8a796;
      }

      .cls-4 {
        fill: #b08b8a;
        stroke: #b08b8a;
      }

      .cls-5 {
        fill: #b99490;
        stroke: #b99490;
      }

      .cls-6 {
        fill: #bc9893;
        stroke: #bc9893;
      }

      .cls-7 {
        fill: #c89f93;
        stroke: #c89f93;
      }
    </style>
  </defs>
  <path class="cls-3" d="m1615.48,5.82c21.71-3.14,44.1-4.09,66.26-5.7,33.56.27,67.39-.42,100.5,3.19-20.02,1.5-39.04,5.59-58.8,7.87-8.77.7-13.46,5.38-19.01,8.69-15.11-3.61-31.39.86-46.99,1.24-10.99.06-16.99,5.82-23.63,9.85-9.41-3.23-21.56-4.51-31.65-1.54-5.81,2.57-7.72,6.86-11.32,10.31-2.51-1.84-4.99-3.67-7.46-5.51,4.61-4.39,9.15-8.8,13.65-13.23-13.01-4.49-27.75-6.79-42.41-8.84,20.59-.99,40.87-3.38,60.86-6.35Z"/>
  <path class="cls-1" d="m1723.44,11.18c19.76-2.28,38.78-6.37,58.8-7.87,23.51,3.08,47.62,5.19,71.77,3.56-4.24,4.09-6.64,8.63-8.51,13.2-10.39-4.43-22.2-1.96-31.54,1.98-10.05,7.32-26.63,11.1-33.23,20.06,1.5.84,4.54,2.57,6.04,3.44-3,2.59-4.28,5.46-3.86,8.54-1.16.59-3.53,1.75-4.69,2.34,1.57,3.16,3.15,6.33,4.84,9.51-5.59-2.91-12.11-5.04-19.39-6.2,5.51-2.93,11.63-6.12,12.08-10.72,3.49-7.47-10.5-11.85-18.53-16.26-.67-1.18-2.03-3.5-2.7-4.68-9.04-2.74-18.9-5.51-29.29-3.4-5.7-.8-11.36-1.62-16.91-2.62-.97-.55-2.92-1.67-3.9-2.21,5.55-3.31,10.24-7.99,19.01-8.69Z"/>
  <path class="cls-2" d="m1414.06,10.74c21.83-1.1,43.76-3.86,65.74-2.15,10.69,2.34,21.41,4.66,32.18,6.92-18.3,4.83-36.41,10.61-56.85,11.96-9.79.57-18.64,3-26.92,5.8-16.76,5.89-38.55-1.01-55.24,4.96-6.94,2.36-14.59,4.09-22.84,3.94-31.84.4-62.21,6.9-90.98,14.07-18.6,4.7-39.6,2.47-59.14,4.66-17.06,1.12-31.27,7.19-47.89,9.2-12.08,1.56-24.34,2.59-36.49,3.99,1.31,1.1,2.66,2.21,3.97,3.33-23.51-.89-40.84,9.28-63.11,11.07-12.41,7.61-31.35,9.11-47.63,12.87-19.87,4.83-42.19,3.48-62.51,7.3-7.65,1.31-15.19,2.87-23.1,3.59-42.34,2.28-84.98,1.29-127.42,2.47-18.71-.82-37.61,1.1-56.1-1.14-9.04-1.77-15.04,3.54-21.34,6.2-2.96-.84-5.96-1.67-8.96-2.47-4.12,4.77-7.95,9.62-11.36,14.55-2.51-6.5-6.52-12.76-11.55-18.77-2.89.02-8.66.04-11.55.06-1.35,1.35-4.05,4.09-5.4,5.46-4.88-5.48-10.42-10.74-16.65-15.74-8.81,4.87-16.5,10.55-26.74,14.51-4.99-.23-8.33-3.63-12.6-4.91-5.21,3.97-9.49,8.29-12.94,12.85-.71.34-2.1,1.01-2.81,1.37-2.89-3.5-5.74-6.96-8.74-10.42-5.36,3.59-10.5,7.28-15.45,11.05-4.61-3.42-10.09-6.43-16.76-8.5-2.59,2.87-5.14,5.76-7.72,8.65-2.44-3.19-4.88-6.37-7.09-9.58-2.36-3.59-4.91-7.11-7.54-10.63-2.81,2.17-5.74,4.32-8.74,6.45-7.95-4.43-10.5-11.18-18-15.95-6.86,3.97-13.8,7.89-20.78,11.79-3.41-5.67-6.79-11.37-10.46-17,.34-.82,1.05-2.49,1.39-3.31,15.22.32,30.49.11,45.71.38,29.66,1.52,59.1,5.19,89.03,4.2,19.12-.82,38.29,1.33,57.34-.25,39.15-2.38,78.71.38,117.79-2.53,31.27-1.98,62.92.95,94.12-1.96,17.85-1.96,36.53.55,54.11-1.69,14.78-5.51,31.76-8.46,48.9-10.63,13.2-1.16,20.55-7.95,30-12.47,7.35-4.01,17.55-5.48,25.73-8.77,4.01-2.89,1.61-6.77,1.61-10.08,16.8,4.66,35.21,1.35,52.91,1.24,13.12.25,21.94-6.48,34.28-7.85,8.96-1.05,17.77.86,26.29,2.21,15.49-3.71,32.02-5.36,48.56-6.75,15.79-.97,25.46-9.43,40.91-11.03,26.21-3.44,50.66-11.75,78.41-10.44,19.13-1.03,37.12,6.01,56.18,3.04,11.36-1.77,22.35-4.54,34.24-5.13Z"/>
  <path class="cls-7" d="m1479.8,8.58c1.73.06,5.18.19,6.9.23,22.76.3,45.67.11,67.91,3.35,14.66,2.05,29.4,4.35,42.41,8.84-4.5,4.43-9.04,8.84-13.65,13.23,2.47,1.84,4.95,3.67,7.46,5.51-11.21,1.31-24.15,1.67-28.05,8.96-2.62-1.46-5.25-2.91-7.88-4.35-8.66,1.98-17.7,3.44-27.11,3.42-6.49-.19-10.05,3.19-8.85,6.5-9.79,3.84-16.76,9.26-17.29,16.18-12.83-.15-23.06-4.83-33.34-8.52-2.17.97-4.35,1.96-6.52,2.95-5.92-.46-11.85-.91-17.77-1.33-.9-.8-2.66-2.4-3.53-3.21-3.68-.08-7.35-.17-10.99-.23-4.99,1.1-9.56,3.23-15.08,3.27-3.6-1.56-7.05-3.21-10.35-4.91-3.86,1.16-7.73,2.32-11.55,3.52-4.8.38-9.6.76-14.36,1.16-1.5-1.52-4.43-4.56-5.89-6.1-5.78,2.02-10.65,4.68-14.85,7.68-4.99-1.52-9.83-3.14-15-4.39-8.93,1.39-17.14,3.94-25.46,6.16-4.84-1.98-9.6-3.94-14.4-5.91-2.7,2.76-5.36,5.53-7.99,8.33-4.05-1.05-8.1-2.09-12.11-3.1-7.76,5.7-19.69,8.46-31.61,10.31-9.79-3.65-16.12.82-19.65,5.72-3.97-2-7.95-4.01-11.85-5.99-1.58,1.24-4.73,3.75-6.3,5.02-5.51,1.88-10.91,3.86-16.28,5.89-4.31-1.22-7.8-4.62-13.16-3.84-3.49,2.43-6.3,5.13-9.26,7.76-4.58-1.56-9.15-3.1-13.76-4.64-1.95,2-3.86,4.03-5.81,6.08-3.26-.27-6.49-.53-9.75-.76-1.43,2.34-2.85,4.68-4.24,7.05-3.86-1.22-7.72-2.45-11.55-3.65-6.71,3.46-13.28,7.05-19.65,10.72-3.49-.49-6.97-.97-10.46-1.43-6.41,3.23-12.49,6.73-19.69,9.43-5.66,2.28-11.14-1.65-16.13-2.66-4.61,5.25-8.92,10.57-13.42,15.86-6.75-1.24-13.46-2.47-20.21-3.71-3.22.51-6.49.99-9.71,1.52-2.62-2.02-5.25-4.01-7.88-5.99-4.91,1.77-9.82,3.59-14.7,5.4-2.18-.65-6.56-1.98-8.77-2.64-11.92,3.21-11.59,11.31-16.01,17.36-6.04-2.51-12.04-5-18.07-7.49-3.15,1.92-6.34,3.86-9.49,5.78-15.45.15-30.11,3.48-38.21,11.22-4.54.02-9.07.04-13.57.08-3.75,3.35-6.41,7.3-12,9.87-5.18.42-10.35.76-15.56.97-.94-2.24-1.91-4.45-2.93-6.64-4.46.97-8.89,1.94-13.2,3.06-5.18-3.92-10.35-7.83-15.41-11.79-.49,1.24-1.43,3.73-1.91,4.98-5.66-2.21-11.4-4.32-16.76-6.75l-5.85-4.47c-3.3.93-6.56,1.88-9.82,2.85-6.6-3.56-13.46-8.54-23.66-6.05-8.02-2.74-14.14-6.73-18.45-11.39-5.06,1.08-10.09,2.19-15.15,3.29-2.96,3.29-6,6.54-9.15,9.81-5.44-5.27-9.11-11.05-15-16.18,6.3-2.66,12.3-7.97,21.34-6.2,18.49,2.24,37.39.32,56.1,1.14,42.45-1.18,85.09-.19,127.42-2.47,7.91-.72,15.45-2.28,23.1-3.59,20.32-3.82,42.64-2.47,62.51-7.3,16.27-3.75,35.21-5.25,47.63-12.87,22.28-1.79,39.6-11.96,63.11-11.07-1.31-1.12-2.66-2.24-3.97-3.33,12.15-1.39,24.41-2.43,36.49-3.99,16.61-2,30.83-8.08,47.89-9.2,19.54-2.19,40.54.04,59.14-4.66,28.76-7.17,59.14-13.67,90.98-14.07,8.25.15,15.9-1.58,22.84-3.94,16.69-5.97,38.48.93,55.24-4.96,8.29-2.81,17.14-5.23,26.92-5.8,20.44-1.35,38.55-7.13,56.85-11.96-10.76-2.26-21.49-4.58-32.18-6.92Z"/>
  <path class="cls-4" d="m.12,34.23c31.31,3.99,63.34,6.37,93.83,12.21,12.97,2.36,26.74.23,40.05.72,21.67.7,43.28,2.24,64.95,2.62,25.54.44,49.54-6.16,75.04-5.76,15.19.34,30.49.51,45.49,1.94,4.84.15,7.95,2.36,11.06,4.09,33.56,2.57,66.86,6.12,100.76,7.15,31.5.63,62.74,3.04,94.12,4.51,13.73-.74,27.41-1.94,41.25-1.69,9.6.13,16.43-4.6,25.54-5.59,21.3-2.53,43.2-3.08,64.61-5.23,16.09-1.9,32.85-.21,48.68-2.95,15.37-2.74,32.06,1.37,46.95-2.89,25.69-6.9,54.86,4.2,80.51-3.06,18.64-5.55,41.25-5.17,60.9-1.52,16.01,3.42,33.07-3.06,49.09.95,18.38,4.72,38.33-2.05,57.04,1.86,13.57,2.83,28.05,2.95,42.3,3.84,0,3.31,2.4,7.19-1.61,10.08-8.18,3.29-18.38,4.77-25.73,8.77-9.45,4.51-16.8,11.31-30,12.47-17.14,2.17-34.12,5.13-48.9,10.63-17.59,2.24-36.26-.27-54.11,1.69-31.2,2.91-62.85-.02-94.12,1.96-39.07,2.91-78.64.15-117.79,2.53-19.05,1.58-38.21-.57-57.34.25-29.93.99-59.36-2.68-89.03-4.2-15.22-.27-30.49-.06-45.71-.38-.34.82-1.05,2.49-1.39,3.31-2.85-2.05-5.78-4.07-8.74-6.05-7.65,4.28-11.74,10.15-19.27,14.41-5.25-4.6-8.44-10.17-16.5-13.56-2.06-.7-4.12-1.37-6.19-2-1.95.76-3.9,1.56-5.85,2.34-2.89-5.25-12.38-5.8-20.78-6.52,1.57-1.69,3.11-3.33,4.69-5-29.81-.57-59.63-1.69-89.25-3.59,1.24,1.75,2.51,3.5,3.79,5.25-2.55,2.17-4.95,4.39-7.35,6.62-4.46-2.51-8.92-5-13.43-7.49-2.36,3.99-4.65,8.02-6.86,12.07-3.71-4.68-7.65-9.28-11.85-13.82-5.44,4.68-10.65,9.47-16.84,13.88-5.51-3.88-7.95-8.71-11.1-13.23-7.09,1.22-10.65,4.45-12.6,8.29-3.15-2.81-6.34-5.59-9.6-8.33-3.98,2.7-7.95,5.4-11.89,8.14-3.83-5.61-8.33-11.03-13.54-16.26-4.72,2.64-9.41,5.32-14.1,7.99-4.24-3.59-8.29-7.26-13.39-10.46-10.01,2.13-15.79,7.89-23.14,12-4.76-3.46-9.56-6.9-14.44-10.31-6.6,4.83-12.79,9.87-17.36,15.44-.37-1.65-1.12-4.91-1.5-6.56-7.09,1.33-13.99,3.56-21.56,3.8-32.51-1.77-65.21-2.57-97.8-4.03v-41.34Z"/>
  <path class="cls-5" d="m314.67,72.58c29.63,1.9,59.44,3.02,89.25,3.59-1.57,1.67-3.11,3.31-4.69,5,8.4.72,17.89,1.27,20.78,6.52,1.95-.78,3.9-1.58,5.85-2.34,2.06.63,4.12,1.31,6.19,2-8.55,5.25-16.35,10.91-23.48,16.79-3.71-4.13-7.46-8.27-11.25-12.36-5.36,3.12-10.76,6.24-16.2,9.34-5.21-6.94-11.85-14.11-24.97-17.13-2.7,3.86-5.33,7.74-7.99,11.62-6.94-6.45-13.76-12.97-21.9-18.98-1.95.3-5.85.91-7.8,1.2-1.27-1.75-2.55-3.5-3.79-5.25Z"/>
  <path class="cls-6" d="m.12,75.58c32.59,1.46,65.29,2.26,97.8,4.03,7.58-.23,14.48-2.47,21.56-3.8.38,1.65,1.13,4.91,1.5,6.56-.6.99-1.76,2.95-2.36,3.94-3.04-1.69-6.08-3.4-9.15-5.08-5.81,4.81-11.47,9.68-17.44,14.45-4.01.08-8.02.19-12.07.32-4.05,4.05-8.14,8.1-12.23,12.15-21.53-5.08-44.4-8.04-67.61-9.22v-23.35Z"/>
</svg>