<?xml version="1.0" encoding="UTF-8"?>
<svg xmlns="http://www.w3.org/2000/svg" viewBox="0 0 1920.72 1079.39">
  <defs>
    <style>
      .cls-1 {
        fill: #696683;
        stroke: #696683;
      }

      .cls-1, .cls-2, .cls-3, .cls-4, .cls-5, .cls-6, .cls-7, .cls-8, .cls-9, .cls-10, .cls-11, .cls-12, .cls-13, .cls-14, .cls-15, .cls-16, .cls-17, .cls-18, .cls-19, .cls-20, .cls-21, .cls-22, .cls-23, .cls-24, .cls-25, .cls-26, .cls-27, .cls-28, .cls-29, .cls-30, .cls-31, .cls-32, .cls-33, .cls-34, .cls-35, .cls-36, .cls-37, .cls-38, .cls-39, .cls-40, .cls-41, .cls-42, .cls-43, .cls-44, .cls-45, .cls-46, .cls-47, .cls-48, .cls-49, .cls-50, .cls-51, .cls-52, .cls-53, .cls-54, .cls-55, .cls-56, .cls-57, .cls-58, .cls-59, .cls-60, .cls-61, .cls-62, .cls-63, .cls-64, .cls-65, .cls-66, .cls-67, .cls-68, .cls-69, .cls-70, .cls-71, .cls-72, .cls-73, .cls-74, .cls-75, .cls-76, .cls-77, .cls-78, .cls-79, .cls-80, .cls-81, .cls-82, .cls-83, .cls-84, .cls-85, .cls-86, .cls-87, .cls-88, .cls-89, .cls-90, .cls-91, .cls-92, .cls-93, .cls-94, .cls-95, .cls-96, .cls-97, .cls-98, .cls-99, .cls-100, .cls-101, .cls-102, .cls-103, .cls-104, .cls-105, .cls-106, .cls-107, .cls-108, .cls-109, .cls-110, .cls-111, .cls-112, .cls-113, .cls-114, .cls-115, .cls-116, .cls-117, .cls-118, .cls-119, .cls-120, .cls-121 {
        stroke-width: .25px;
      }

      .cls-2 {
        fill: #fefefd;
        stroke: #fefefd;
      }

      .cls-3 {
        fill: #fefefe;
        stroke: #fefefe;
      }

      .cls-4 {
        fill: #feffff;
        stroke: #feffff;
      }

      .cls-5 {
        fill: #fcffff;
        stroke: #fcffff;
      }

      .cls-6 {
        fill: #edb092;
        stroke: #edb092;
      }

      .cls-7 {
        fill: #feedcc;
        stroke: #feedcc;
      }

      .cls-8 {
        fill: #e3a48d;
        stroke: #e3a48d;
      }

      .cls-9 {
        fill: #edcaaf;
        stroke: #edcaaf;
      }

      .cls-10 {
        fill: #fbcca2;
        stroke: #fbcca2;
      }

      .cls-11 {
        fill: #fde3b1;
        stroke: #fde3b1;
      }

      .cls-12 {
        fill: #fde0b8;
        stroke: #fde0b8;
      }

      .cls-13 {
        fill: #fdfffe;
        stroke: #fdfffe;
      }

      .cls-14 {
        fill: #fdffff;
        stroke: #fdffff;
      }

      .cls-15 {
        fill: #fdfefe;
        stroke: #fdfefe;
      }

      .cls-16 {
        fill: #fdfefd;
        stroke: #fdfefd;
      }

      .cls-17 {
        fill: #f5e5e2;
        stroke: #f5e5e2;
      }

      .cls-18 {
        fill: #f6bc98;
        stroke: #f6bc98;
      }

      .cls-19 {
        fill: #eeb190;
        stroke: #eeb190;
      }

      .cls-20 {
        fill: #fbd3c5;
        stroke: #fbd3c5;
      }

      .cls-21 {
        fill: #e7a98d;
        stroke: #e7a98d;
      }

      .cls-22 {
        fill: #fdcea2;
        stroke: #fdcea2;
      }

      .cls-23 {
        fill: #fffcfd;
        stroke: #fffcfd;
      }

      .cls-24 {
        fill: #f1b797;
        stroke: #f1b797;
      }

      .cls-25 {
        fill: #ebae90;
        stroke: #ebae90;
      }

      .cls-26 {
        fill: #d29dae;
        stroke: #d29dae;
      }

      .cls-27 {
        fill: #dead9b;
        stroke: #dead9b;
      }

      .cls-28 {
        fill: #ddaeb9;
        stroke: #ddaeb9;
      }

      .cls-29 {
        fill: #cb9388;
        stroke: #cb9388;
      }

      .cls-30 {
        fill: #d0ac94;
        stroke: #d0ac94;
      }

      .cls-31 {
        fill: #c59aa8;
        stroke: #c59aa8;
      }

      .cls-32 {
        fill: #abb1c2;
        stroke: #abb1c2;
      }

      .cls-33 {
        fill: #c09daa;
        stroke: #c09daa;
      }

      .cls-34 {
        fill: #b2b9c7;
        stroke: #b2b9c7;
      }

      .cls-35 {
        fill: #cea7a0;
        stroke: #cea7a0;
      }

      .cls-36 {
        fill: #bd968e;
        stroke: #bd968e;
      }

      .cls-37 {
        fill: #d8a796;
        stroke: #d8a796;
      }

      .cls-38 {
        fill: #d99d8a;
        stroke: #d99d8a;
      }

      .cls-39 {
        fill: #b08b8a;
        stroke: #b08b8a;
      }

      .cls-40 {
        fill: #aea6a1;
        stroke: #aea6a1;
      }

      .cls-41 {
        fill: #9f7880;
        stroke: #9f7880;
      }

      .cls-42 {
        fill: #b68685;
        stroke: #b68685;
      }

      .cls-43 {
        fill: #928288;
        stroke: #928288;
      }

      .cls-44 {
        fill: #927177;
        stroke: #927177;
      }

      .cls-45 {
        fill: #8e6e8c;
        stroke: #8e6e8c;
      }

      .cls-46 {
        fill: #908493;
        stroke: #908493;
      }

      .cls-47 {
        fill: #c2958c;
        stroke: #c2958c;
      }

      .cls-48 {
        fill: #332b4a;
        stroke: #332b4a;
      }

      .cls-49 {
        fill: #312947;
        stroke: #312947;
      }

      .cls-50 {
        fill: #8e707f;
        stroke: #8e707f;
      }

      .cls-51 {
        fill: #b99490;
        stroke: #b99490;
      }

      .cls-52 {
        fill: #a0a4b9;
        stroke: #a0a4b9;
      }

      .cls-53 {
        fill: #9c8597;
        stroke: #9c8597;
      }

      .cls-54 {
        fill: #8f99b0;
        stroke: #8f99b0;
      }

      .cls-55 {
        fill: #655978;
        stroke: #655978;
      }

      .cls-56 {
        fill: #6c546d;
        stroke: #6c546d;
      }

      .cls-57 {
        fill: #1f1638;
        stroke: #1f1638;
      }

      .cls-58 {
        fill: #1f1535;
        stroke: #1f1535;
      }

      .cls-59 {
        fill: #231c3b;
        stroke: #231c3b;
      }

      .cls-60 {
        fill: #3e3b5d;
        stroke: #3e3b5d;
      }

      .cls-61 {
        fill: #362c4e;
        stroke: #362c4e;
      }

      .cls-62 {
        fill: #362d4d;
        stroke: #362d4d;
      }

      .cls-63 {
        fill: #373050;
        stroke: #373050;
      }

      .cls-64 {
        fill: #37304e;
        stroke: #37304e;
      }

      .cls-65 {
        fill: #1c1235;
        stroke: #1c1235;
      }

      .cls-66 {
        fill: #1b1530;
        stroke: #1b1530;
      }

      .cls-67 {
        fill: #3f3655;
        stroke: #3f3655;
      }

      .cls-68 {
        fill: #a7aebf;
        stroke: #a7aebf;
      }

      .cls-69 {
        fill: #bc9893;
        stroke: #bc9893;
      }

      .cls-70 {
        fill: #c69bac;
        stroke: #c69bac;
      }

      .cls-71 {
        fill: #d6acaf;
        stroke: #d6acaf;
      }

      .cls-72 {
        fill: #c89f93;
        stroke: #c89f93;
      }

      .cls-73 {
        fill: #dd9f8b;
        stroke: #dd9f8b;
      }

      .cls-74 {
        fill: #e0dad9;
        stroke: #e0dad9;
      }

      .cls-75 {
        fill: #a57e96;
        stroke: #a57e96;
      }

      .cls-76 {
        fill: #4b4563;
        stroke: #4b4563;
      }

      .cls-77 {
        fill: #494360;
        stroke: #494360;
      }

      .cls-78 {
        fill: #49415d;
        stroke: #49415d;
      }

      .cls-79 {
        fill: #4b3860;
        stroke: #4b3860;
      }

      .cls-80 {
        fill: #605776;
        stroke: #605776;
      }

      .cls-81 {
        fill: #4c496e;
        stroke: #4c496e;
      }

      .cls-82 {
        fill: #4c4763;
        stroke: #4c4763;
      }

      .cls-83 {
        fill: #5a5676;
        stroke: #5a5676;
      }

      .cls-84 {
        fill: #3d334f;
        stroke: #3d334f;
      }

      .cls-85 {
        fill: #352a51;
        stroke: #352a51;
      }

      .cls-86 {
        fill: #2e2543;
        stroke: #2e2543;
      }

      .cls-87 {
        fill: #838297;
        stroke: #838297;
      }

      .cls-88 {
        fill: #58516f;
        stroke: #58516f;
      }

      .cls-89 {
        fill: #261b39;
        stroke: #261b39;
      }

      .cls-90 {
        fill: #26213e;
        stroke: #26213e;
      }

      .cls-91 {
        fill: #282343;
        stroke: #282343;
      }

      .cls-92 {
        fill: #756378;
        stroke: #756378;
      }

      .cls-93 {
        fill: #757b94;
        stroke: #757b94;
      }

      .cls-94 {
        fill: #76748d;
        stroke: #76748d;
      }

      .cls-95 {
        fill: #4a3457;
        stroke: #4a3457;
      }

      .cls-96 {
        fill: #4f5476;
        stroke: #4f5476;
      }

      .cls-97 {
        fill: #504966;
        stroke: #504966;
      }

      .cls-98 {
        fill: #4b4769;
        stroke: #4b4769;
      }

      .cls-99 {
        fill: #3b324f;
        stroke: #3b324f;
      }

      .cls-100 {
        fill: #6d5c72;
        stroke: #6d5c72;
      }

      .cls-101 {
        fill: #46496c;
        stroke: #46496c;
      }

      .cls-102 {
        fill: #543f67;
        stroke: #543f67;
      }

      .cls-103 {
        fill: #544d6b;
        stroke: #544d6b;
      }

      .cls-104 {
        fill: #544e6b;
        stroke: #544e6b;
      }

      .cls-105 {
        fill: #2c2241;
        stroke: #2c2241;
      }

      .cls-106 {
        fill: #564e6b;
        stroke: #564e6b;
      }

      .cls-107 {
        fill: #2a2544;
        stroke: #2a2544;
      }

      .cls-108 {
        fill: #2a1f44;
        stroke: #2a1f44;
      }

      .cls-109 {
        fill: #2a203e;
        stroke: #2a203e;
      }

      .cls-110 {
        fill: #281c3d;
        stroke: #281c3d;
      }

      .cls-111 {
        fill: #2b2543;
        stroke: #2b2543;
      }

      .cls-112 {
        fill: #2b2241;
        stroke: #2b2241;
      }

      .cls-113 {
        fill: #595c7c;
        stroke: #595c7c;
      }

      .cls-114 {
        fill: #596182;
        stroke: #596182;
      }

      .cls-115 {
        fill: #483f5c;
        stroke: #483f5c;
      }

      .cls-116 {
        fill: #f3b795;
        stroke: #f3b795;
      }

      .cls-117 {
        fill: #f7bf9d;
        stroke: #f7bf9d;
      }

      .cls-118 {
        fill: #fac5a0;
        stroke: #fac5a0;
      }

      .cls-119 {
        fill: #f7d4ba;
        stroke: #f7d4ba;
      }

      .cls-120 {
        fill: #f9c39e;
        stroke: #f9c39e;
      }

      .cls-121 {
        fill: #f4b997;
        stroke: #f4b997;
      }
    </style>
  </defs>
  <g id="Layer_4" data-name="Layer 4">
    <path class="cls-64" d="m884.26,519.84c.79-.21,2.36-.63,3.15-.84,6.19,13.33,12.6,27.02,26.55,38.56,18.08,15.12,41.7,27.8,65.96,39.76-15.86,1.31-31.69,2.81-47.17,5.13-23.4,3.48-44.29,10.72-67.39,14.7-18.34,3.19-37.05,5.7-55.65,8.37-34.5,2.91-61.43,16.98-95.4,20.84-49.76,6.2-100.65,9.13-151.54,10.19-8.59.23-16.91-1.05-25.12-2.28,30.71-3.19,60.15-9.32,89.78-14.72,34.69-7.34,71.62-9.6,107.62-13.94,26.96-3.08,52.16-9.41,77.59-15.06,21.3-5.17,43.76-12.38,52.72-25.14,7.35-11.2,2.36-23.44,5.81-35.02,1.8-10.55,13.42-19.81,13.09-30.54Z"/>
    <path class="cls-55" d="m805.59,537.27c25.57-6.73,53.4-10.27,78.67-17.42.34,10.74-11.29,20-13.09,30.54-3.45,11.58,1.54,23.81-5.81,35.02-8.96,12.76-31.43,19.98-52.72,25.14-25.42,5.65-50.62,11.98-77.59,15.06-36,4.35-72.94,6.6-107.62,13.94-13.05.34-23.33-3.9-30.49-9.6,4.12-7.3,11.47-13.75,19.42-19.89-12.41,1.24-25.01,3.06-37.69,1.75,34.69-11.33,75.86-16.6,105.15-32.78,15.19-8.08,30.79-16.22,49.88-21.33,24.11-6.64,47.51-14.09,71.89-20.44Z"/>
    <path class="cls-80" d="m575.6,570.26c9.49-8.23,25.46-12.87,40.91-16.71-8.21,14.64-20.74,28.39-33.45,41.91-9.56,10.31-28.39,16.07-40.88,25.06,12.49-2.49,24.6-5.48,36.49-8.71,12.67,1.31,25.27-.51,37.69-1.75-7.95,6.14-15.3,12.59-19.42,19.89,7.16,5.7,17.44,9.94,30.49,9.6-29.63,5.4-59.06,11.54-89.78,14.72-7.28.36-14.33,1.54-21.08,3.12,19.09,1.58,38.44.72,57.64,1.5-5.74.59-11.47,1.16-17.18,1.73,10.46,8.4,11.29,18.77,11.55,28.67-19.84.19-40.24-1.37-59.44,2.24-20.29,3.67-41.44,5.1-62.47,6.58-26.51,1.81-51.82,7.59-78.71,7.83-21.26.59-42.86-2.83-63.82.38-16.35,2.43-32.62,4.91-49.05,7.17-16.72,2.28-31.65,8.1-49.24,8.33-1.46.08-4.39.25-5.85.34-3.34,1.43-6.56,2.95-9.75,4.47-4.27-.89-8.51-1.79-12.75-2.66-8.89,2.76-18.19,6.12-28.84,4.89-13.72-1.1-26.59,2.24-38.81,5.29-8.63-6.12-22.05-4.01-31.99-.25-4.35-.02-8.7-.02-13.05,0-6.38,1.79-12.49,4.13-19.65,4.81-14.81-1.5-29.66-3.04-44.77-3.04v-19.28c41.36.27,82.65-1.65,124.01-1.75,16.99-.53,36.3-1.75,47.03-10.17,31.46-11.81,68.4-17.19,103.01-25.21,26.7-6.48,54-12.19,81.64-17.3,25.99-4.73,54.6-5.02,78.49-13.08,23.85-8.08,37.13-22.65,59.14-31.98,17.7-8.48,41.1-12.89,55.76-23.39,10.69-7,17.4-15.53,26.14-23.27Z"/>
    <path class="cls-103" d="m1894.81,684.97c.86,2.15,1.76,4.32,2.66,6.52-21-3.61-42.45-.68-63.79-1.71-8.36,1.79-16.65,4.28-25.91,3.65-17.85-.61-35.29,1.77-52.54,3.97-1.09,1.52-2.17,3.04-3.22,4.58-10.05-3.19-20.85-5.44-31.95-7.15-23.17-3.23-34.39-16.62-55.54-22.04,1.12-.82,3.38-2.47,4.5-3.29,10.28,2.72,21.68,3.84,32.14.61-21.04-6.18-46.88-7.95-63.86-17.93l-.49,2.7c-24.04-2.13-48.15-4.98-72.64-4.28-37.69.65-77.1-.23-111.3-10.19-19.87-6.08-36-15.34-55.99-21.39-23.74-7.26-50.06-11.14-75.07-16.71-20.7-4.7-43.69-3.82-65.14-1.46-37.65,4.32-76.58,5.89-114.82,3.38-26.44-1.71-50.74-8.4-76.88-10.74-28.54-1.67-56.81,2.13-85.05,3.84-15.86,1.31-31.69,2.81-47.17,5.13-23.4,3.48-44.29,10.72-67.39,14.7-18.34,3.19-37.05,5.7-55.65,8.37,9.75,2.45,20.14,4.01,30.71,4.77-.71.8-2.14,2.43-2.89,3.23-8.25.7-16.46,1.46-24.64,2.4,4.58,1.08,9.26,2.11,14.29,2.43,24.34-2.62,48.75.89,73.16,1.18,46.2.89,92.44.32,138.67.23,19.95.04,40.28-1.03,59.85,1.71,35.06,4.85,69.38,11.56,105.22,14.6,22.43,1.88,44.89,3.63,67.5,4.72,34.58,1.39,67.24,8.4,100.88,12.59,34.46,5.32,70.24,7.8,103.95,14.64,10.76,2.11,21.08,4.87,31.46,7.55,4.99-.91,9.98-1.98,15.22-2.49,4.99,1.65,9.19,3.94,13.54,6.05,12.3-.06,25.05.86,36.49-2.28,6.3-2.24,12.75.06,18.79,1.37,15.04-3.4,28.46,3.52,43.57,2.64,18.56.02,36.15,3.97,53.44,7.4,15.07,4.09,31.16-4.09,46.35.78,9.22-1.27,18.52-2.34,27.94-3.08,2.96,2.07,5.96,4.16,8.96,6.24,12.71.8,23.47-3.08,35.02-5.23,10.16,2.19,19.91,6.1,31.39,4.62,19.76.15,44.59-2.05,58.72,7.61,7.73-3.78,15.9-7.26,23.06-11.39v-22.36c-8.55.23-17.1.04-25.57-.51Z"/>
    <path class="cls-88" d="m714.31,646.36c33.97-3.86,60.9-17.93,95.4-20.84,9.75,2.45,20.14,4.01,30.71,4.77-.71.8-2.14,2.43-2.89,3.23-8.25.7-16.46,1.46-24.64,2.4,4.58,1.08,9.26,2.11,14.29,2.43,17.74,1.37,35.03,4.03,52.05,7.11-4.99.93-9.98,1.86-14.92,2.81,4.8,3.84,10.5,7.51,13.2,12.04-.86,2.62-2.7,5.08-4.31,7.59,3,.89,6,1.79,9.04,2.7-2.81,1.75-5.62,3.52-8.4,5.27-23.59-5.04-50.14-5.23-73.84-.36-27.79,5.46-53.89,13.77-83.14,16.69-68.77,8.8-138.49-3.88-207.71-.68,19.2-3.61,39.6-2.05,59.44-2.24-.26-9.89-1.09-20.27-11.55-28.67,5.7-.57,11.44-1.14,17.18-1.73-19.2-.78-38.55.08-57.64-1.5,6.75-1.58,13.8-2.76,21.08-3.12,8.21,1.22,16.54,2.51,25.12,2.28,50.89-1.05,101.77-3.99,151.54-10.19Z"/>
    <path class="cls-62" d="m827.19,638.35c24.34-2.62,48.75.89,73.16,1.18,46.2.89,92.44.32,138.67.23,19.95.04,40.27-1.03,59.85,1.71,35.06,4.85,69.38,11.56,105.22,14.6,22.43,1.88,44.89,3.63,67.5,4.72,34.58,1.39,67.24,8.4,100.88,12.59,34.46,5.32,70.24,7.8,103.95,14.64-16.01,3.48-30.97-3.06-47.06-2.66-34.99.38-68.55-11.29-103.61-6.37-24.26-1.24-49.01-3.38-73.05-.02-26.29,3.84-53.51,3.84-80.44,4.54-33.64-5.44-64.76-15.02-98.93-19.47-31.2-2.26-62.74-1.98-94.05-3.29-34.84-1.41-67.05-9.58-100.05-15.29-17.02-3.08-34.31-5.74-52.05-7.11Z"/>
    <path class="cls-76" d="m.39,640.99c24.79,3.5,49.43,7.3,74.1,11.01,53.48,9.75,110.36,10.1,166.01,10.99,30.68.51,45.34-18.01,71.93-23.41-8.92,15.12-26.36,28.1-45.9,39.45,1.99.06,5.93.19,7.91.25-34.61,8.02-71.55,13.39-103.01,25.21-17.85-6.56-39.15-.17-58.61-2.64-37.2-4.07-75.56,1.31-112.42-3.97v-56.89Z"/>
    <path class="cls-104" d="m879.24,645.46c33,5.72,65.21,13.88,100.05,15.29,31.31,1.31,62.85,1.03,94.05,3.29.56,3.27,1.84,6.58,1.35,9.89-6.34,5.84-15.26,10.69-21.04,16.75.67,2.17,1.31,4.32,1.91,6.52-9.86-3.46-19.8-7.34-31.5-8.42-28.12-2.19-55.24,6.81-83.33,3.5-24.07-2.97-43.8-11.98-66.9-16.41,2.78-1.75,5.59-3.52,8.4-5.27-3.04-.91-6.04-1.81-9.04-2.7,1.61-2.51,3.45-4.98,4.31-7.59-2.7-4.54-8.4-8.21-13.2-12.04,4.95-.95,9.94-1.88,14.92-2.81Z"/>
    <path class="cls-97" d="m1073.34,664.04c34.16,4.45,65.29,14.03,98.93,19.47,22.31,10.8,51.83,17.04,81.41,15.5,19.54,1.69,44.89-2.11,57.68,8.65-14.93,1.48-29.89,3.54-45.19,2.74-5.18-1.54-10.8-4.01-16.2-1.2-7.12,3.19-15.67,2-23.55.55-7.61,1.43-15.07,3.61-23.17,3.88-5.25-.86-9.86-2.55-14.7-3.86-18.45,4.03-36.71-3.4-55.24-.84-11.55,1.6-23.06-.99-34.65-1.03-16.27-.23-29.85-6.03-43.09-10.69-.6-2.19-1.24-4.35-1.91-6.52,5.78-6.05,14.7-10.91,21.04-16.75.49-3.31-.79-6.62-1.35-9.89Z"/>
    <path class="cls-77" d="m1669.02,669.48c10.27,2.72,21.67,3.84,32.14.61,1.01.23,2.96.74,3.94.97,37.65,9.22,79.24,12.64,120.11,11.29,23.14,1.29,46.5.86,69.6,2.62.86,2.15,1.76,4.32,2.66,6.52-21-3.61-42.45-.68-63.79-1.71-8.36,1.79-16.65,4.28-25.91,3.65-17.85-.61-35.29,1.77-52.54,3.97-1.09,1.52-2.17,3.04-3.22,4.58-10.05-3.19-20.85-5.44-31.95-7.15-23.17-3.23-34.39-16.62-55.54-22.04,1.13-.82,3.38-2.47,4.5-3.29Z"/>
    <path class="cls-109" d="m800,675.52c23.7-4.87,50.25-4.68,73.84.36,23.1,4.43,42.82,13.44,66.9,16.41,28.09,3.31,55.2-5.7,83.33-3.5,11.7,1.08,21.64,4.96,31.5,8.42,13.24,4.66,26.81,10.46,43.09,10.69,11.59.04,23.1,2.64,34.65,1.03,18.53-2.55,36.79,4.87,55.24.84,4.84,1.31,9.45,3,14.7,3.86,8.1-.27,15.56-2.45,23.17-3.88,7.88,1.46,16.43,2.64,23.55-.55,5.4-2.81,11.03-.34,16.2,1.2-3.37,3.59-4.01,7.64-3.53,11.62-21.71.74-43.35,1.94-65.1,2.49-44.62-5.95-90.67-2.95-136.05-3.67-24.11.68-47.32-3.33-71.14-4.58-26.1-1.62-52.35-2.49-78.56-3.67-56.29-.51-112.61.11-168.9-.63-30.34-.95-60.71-.84-91.05-.42-58.16,4.26-116.96,2.11-175.39,3.12-26.1,2.24-52.54.7-78.71,2.45-27.6,1.77-55.5.57-82.99,3.08-18.38,1.71-37.13.86-55.5,2.64.98.68,2.85,2.03,3.83,2.7-6.15,2.91-12.49,5.74-18.86,8.52-12.56-4.3-23.21-10.88-38.36-12.23,17.59-.23,32.51-6.05,49.24-8.33,16.43-2.26,32.7-4.75,49.05-7.17,20.96-3.21,42.56.21,63.82-.38,26.89-.23,52.2-6.01,78.71-7.83,21.04-1.48,42.19-2.91,62.47-6.58,69.23-3.21,138.94,9.47,207.71.68,29.25-2.91,55.35-11.22,83.14-16.69Z"/>
    <path class="cls-78" d="m1252.7,678.98c24.04-3.35,48.79-1.22,73.05.02,15.64,5.65,31.43,12.21,50.74,12.8,21.56.65,40.2,9.22,62.29,7.28.04.72.11,2.15.15,2.87-4.57,1.33-8.51,3.65-13.76,4.03-11.81-1.81-23.7-7.4-36.11-3.19-13.99,4.73-30.6,3.33-45.45.84-6.64,1.73-13.24,3.46-19.84,5.21-4.16-.44-8.25-.89-12.41-1.18-12.79-10.76-38.14-6.96-57.68-8.65-29.59,1.54-59.1-4.7-81.41-15.5,26.92-.7,54.15-.7,80.44-4.54Z"/>
    <path class="cls-67" d="m1325.75,679c35.06-4.91,68.63,6.75,103.61,6.37,16.09-.4,31.05,6.14,47.06,2.66,10.76,2.11,21.08,4.87,31.46,7.55,4.99-.91,9.98-1.98,15.22-2.49,4.99,1.65,9.19,3.94,13.54,6.05-3.79,2.93-6.3,6.5-11.33,8.88-10.58,2.74-22.5,3-33.86,4.07-2.21-1.96-4.42-3.9-6.6-5.84-8.32.99-16.69,3.19-25.31,2.47-7.35-1.77-13.87-4.41-20.62-6.77-.04-.72-.11-2.15-.15-2.87-22.09,1.94-40.73-6.62-62.29-7.28-19.31-.59-35.1-7.15-50.74-12.8Z"/>
    <path class="cls-90" d="m1573.14,696.86c6.3-2.24,12.75.06,18.79,1.37,15.04-3.4,28.46,3.52,43.57,2.64,18.56.02,36.15,3.97,53.44,7.4,15.07,4.09,31.16-4.09,46.35.78,9.22-1.27,18.52-2.34,27.94-3.08,2.96,2.07,5.96,4.16,8.96,6.24,12.71.8,23.47-3.08,35.02-5.23,10.16,2.19,19.91,6.1,31.39,4.62,19.76.15,44.59-2.05,58.73,7.61-5.21,3.08-9.94,6.43-14.62,9.79-22.46-.36-44.74-2.47-67.2-2.57-43.61-3.02-87.75-1.08-131.44-3.52-41.06-2.26-82.28-5.15-123.6-3.73-22.95.7-46.01-.11-68.92,1.27-28.54-.21-57.19-.97-85.39-3.5-21,1.98-42.3.25-63.41,1.31-26.7,1.24-53.4,2.68-80.1,3.78-.49-3.99.15-8.04,3.53-11.62,15.3.8,30.26-1.27,45.19-2.74,4.16.3,8.25.74,12.41,1.18,6.6-1.75,13.2-3.48,19.84-5.21,14.85,2.49,31.46,3.88,45.45-.84,12.41-4.22,24.3,1.37,36.11,3.19,5.25-.38,9.19-2.7,13.76-4.03,6.75,2.36,13.28,5,20.62,6.77,8.63.72,16.99-1.48,25.31-2.47,2.18,1.94,4.39,3.88,6.6,5.84,11.36-1.08,23.29-1.33,33.86-4.07,5.02-2.38,7.54-5.95,11.33-8.88,12.3-.06,25.05.86,36.49-2.28Z"/>
    <path class="cls-106" d="m.39,697.88c36.86,5.27,75.22-.11,112.42,3.97,19.46,2.47,40.76-3.92,58.61,2.64-10.73,8.42-30.04,9.64-47.03,10.17-41.36.11-82.65,2.03-124.01,1.75v-18.52Z"/>
    <path class="cls-84" d="m476.45,714.67c58.43-1.01,117.23,1.14,175.39-3.12,30.34-.42,60.71-.53,91.05.42,56.29.74,112.61.13,168.9.63,26.21,1.18,52.46,2.05,78.56,3.67,23.81,1.24,47.03,5.25,71.14,4.58,45.38.72,91.43-2.28,136.05,3.67-19.5.99-39.04,1.94-58.65,2.43-12.11-1.9-24.71-3.44-37.31-2.4-24.49,1.96-49.13,3.21-73.76,4.16-23.93.97-47.21-3.19-71.06-3.46-28.05-.21-56.21-.55-84.15,1.08-39.22,1.65-78.75-3.63-117.75.27-9.45-.15-18.3,1.73-27.11,3.29-26.93,4.05-54.71-4.56-81.23.23-7.91-3.56-17.59-3.92-27-2.28-18.49,2.87-38.21-1.96-56.1,2.72-9.56,2.28-19.76,3.4-30,2-16.57,4.6-35.4,4.58-52.99,7.26-8.44,1.65-15.26-2.13-21.3-4.83-18.9,2.49-42.34,6.05-58.2-2.4-17.7,3.48-37.61,2.38-52.12-4.62-12.94,3.31-27.45,2.55-40.88,4.77-4.09-1.56-8.14-3.12-12.23-4.68-4.65.23-9.26.46-13.91.68-5.96-1.56-12.23-2.64-18.71-3.19-.98-.67-2.85-2.02-3.83-2.7,18.38-1.77,37.13-.93,55.5-2.64,27.49-2.51,55.39-1.31,82.99-3.08,26.18-1.75,52.61-.21,78.71-2.45Z"/>
    <path class="cls-92" d="m1342.74,718.25c21.11-1.05,42.41.68,63.41-1.31,28.2,2.53,56.85,3.29,85.39,3.5,5.25.51,10.54,1.12,15.82,1.71-6.41,1.37-12.75,2.76-19.01,4.28,8.77.93,17.62,1.75,26.51,2.43,1.35,1.75,2.74,3.52,4.13,5.29-10.99.65-21.97,1.84-32.02,4.51-1.73-.04-5.18-.17-6.9-.23-21.97-1.71-43.91,1.05-65.74,2.15-11.89.59-22.87,3.35-34.24,5.13-19.05,2.97-37.05-4.07-56.18-3.04-27.75-1.31-52.2,7-78.41,10.44-15.45,1.6-25.13,10.06-40.91,11.03-16.54,1.39-33.08,3.04-48.56,6.75-8.51-1.35-17.33-3.27-26.29-2.21-12.34,1.37-21.15,8.1-34.28,7.85-17.7.11-36.11,3.42-52.91-1.24-14.25-.89-28.73-1.01-42.3-3.84-18.71-3.9-38.66,2.87-57.04-1.86-16.01-4.01-33.07,2.47-49.09-.95-19.65-3.65-42.26-4.03-60.9,1.52-25.65,7.26-54.82-3.84-80.51,3.06-14.89,4.26-31.57.15-46.95,2.89-15.83,2.74-32.59,1.05-48.68,2.95-21.41,2.15-43.31,2.7-64.61,5.23-9.11.99-15.94,5.72-25.54,5.59-13.84-.25-27.52.95-41.25,1.69-31.39-1.48-62.63-3.88-94.12-4.51-33.9-1.03-67.2-4.58-100.76-7.15-3.11-1.73-6.23-3.94-11.06-4.09-15-1.43-30.3-1.6-45.49-1.94-25.5-.4-49.5,6.2-75.04,5.76-21.67-.38-43.28-1.92-64.95-2.62-13.31-.49-27.08,1.65-40.05-.72-30.49-5.84-62.51-8.23-93.83-12.21v-5.78c28.8.34,57.49,2.09,86.29,1.84,56.21-.3,112.43-2.07,168.64-.91,45,1.16,90,.19,135,.95,46.27.84,92.55-.32,138.79-1.48,43.8-.51,87.6-.44,131.36-1.73,38.74-1.46,77.32,1.98,116.06.82,33.86.63,67.65-3.02,101.44-.89,13.5.74,27.38,1.62,40.61-.61,50.96-8.99,105.19-10.84,158.21-8.69,12.94.32,23.93-4.51,36.49-5.61,23.44-2.28,47.36-.82,70.99-1.84-5.89-4.58-16.73-3.8-25.39-5.04-27.71-3.42-56.29-3.42-84.45-2.45,19.65-6.64,43.35-2.17,64.46-5.74,19.61-.49,39.15-1.43,58.65-2.43,21.75-.55,43.39-1.75,65.1-2.49,26.7-1.1,53.4-2.53,80.1-3.78Z"/>
    <path class="cls-100" d="m1491.54,720.45c22.91-1.37,45.97-.57,68.92-1.27,41.33-1.41,82.54,1.48,123.6,3.73,43.69,2.45,87.82.51,131.44,3.52-18.97,5.21-40.13,1.86-60.19,1.9-24.41,0-49.46-2.36-73.31,1.65-22.16,1.6-44.55,2.55-66.26,5.7-19.99,2.97-40.28,5.36-60.86,6.35-22.24-3.25-45.15-3.06-67.91-3.35,10.05-2.68,21.04-3.86,32.02-4.51-1.39-1.77-2.77-3.54-4.13-5.29-8.89-.68-17.74-1.5-26.51-2.43,6.26-1.52,12.6-2.91,19.01-4.28-5.29-.59-10.57-1.2-15.82-1.71Z"/>
    <path class="cls-91" d="m200,722.15c1.46-.08,4.39-.25,5.85-.34,15.15,1.35,25.8,7.93,38.36,12.23,6.38-2.78,12.71-5.61,18.86-8.52,6.49.55,12.75,1.62,18.71,3.19,4.65-.21,9.26-.44,13.91-.68,4.09,1.56,8.14,3.12,12.23,4.68,13.42-2.21,27.94-1.46,40.88-4.77,14.51,7,34.42,8.1,52.12,4.62,15.86,8.46,39.3,4.89,58.2,2.4,6.04,2.7,12.86,6.48,21.3,4.83,17.59-2.68,36.41-2.66,52.99-7.26,10.24,1.39,20.44.27,30-2,17.89-4.68,37.61.15,56.1-2.72,9.41-1.65,19.09-1.29,27,2.28,26.51-4.79,54.3,3.82,81.23-.23,8.81-1.56,17.66-3.44,27.11-3.29,20.81,6.69,45.41,3.14,67.35,7.4,3.86-1.43,7.73-2.87,11.59-4.28,3.45,1.05,6.94,2.11,10.42,3.19,19.5-.4,39.41-.91,58.57,1.58,1.39-.44,4.13-1.31,5.51-1.73,2.59.72,5.14,1.48,7.76,2.21,4.73-1.1,9.49-2.19,14.29-3.25,14.06,2.59,28.87,3.31,43.2,5.34,15.9,3.52,30.6-5.63,46.65-2.83,7.8,1.62,15.67,1.01,23.02-1.03,10.39,2.59,21.52,3.61,31.2-.51,28.16-.97,56.74-.97,84.45,2.45,8.66,1.24,19.5.46,25.39,5.04-23.63,1.01-47.55-.44-70.99,1.84-12.56,1.1-23.55,5.93-36.49,5.61-53.03-2.15-107.25-.3-158.21,8.69-13.24,2.24-27.11,1.35-40.61.61-33.79-2.13-67.58,1.52-101.44.89-38.74,1.16-77.32-2.28-116.06-.82-43.76,1.29-87.56,1.22-131.36,1.73-46.24,1.16-92.51,2.32-138.79,1.48-45-.76-90,.21-135-.95-56.21-1.16-112.43.61-168.64.91-28.8.25-57.49-1.5-86.29-1.84v-22.63c15.11,0,29.96,1.54,44.77,3.04,7.16-.67,13.27-3.02,19.65-4.81,4.35-.02,8.7-.02,13.05,0,9.94-3.75,23.36-5.86,31.99.25,12.23-3.06,25.09-6.39,38.81-5.29,10.65,1.22,19.95-2.13,28.84-4.89,4.24.86,8.48,1.77,12.75,2.66,3.19-1.52,6.41-3.04,9.75-4.47Z"/>
    <path class="cls-115" d="m1101.57,724.54c12.6-1.03,25.2.51,37.31,2.4-21.11,3.56-44.81-.91-64.46,5.74-9.68,4.11-20.81,3.1-31.2.51-7.35,2.05-15.22,2.66-23.02,1.03-16.05-2.81-30.75,6.35-46.65,2.83-14.33-2.03-29.14-2.74-43.2-5.34-4.8,1.05-9.56,2.15-14.29,3.25-2.62-.74-5.17-1.5-7.76-2.21-1.39.42-4.13,1.29-5.51,1.73-19.16-2.49-39.07-1.98-58.57-1.58-3.49-1.08-6.98-2.13-10.42-3.19-3.86,1.41-7.73,2.85-11.59,4.28-21.94-4.26-46.54-.72-67.35-7.4,39-3.9,78.53,1.37,117.75-.27,27.94-1.62,56.1-1.29,84.15-1.08,23.85.27,47.14,4.43,71.06,3.46,24.64-.95,49.27-2.19,73.76-4.16Z"/>
    <path class="cls-50" d="m1682,729.98c23.85-4.01,48.9-1.65,73.31-1.65,20.06-.04,41.21,3.31,60.19-1.9,22.46.11,44.74,2.21,67.2,2.57,1.69.84,5.1,2.53,6.79,3.37-9.68,5.19-23.1,3.78-35.21,4.35-24.15,1.62-48.26-.49-71.77-3.56-33.11-3.61-66.94-2.91-100.5-3.19Z"/>
    <path class="cls-41" d="m.12.12h1920v27.97c-15.11,2.21-30.83,1.9-46.27,2.51-34.5,1.6-69.11,4.64-103.69,1.71-49.8,3.29-100.05,1.18-150.08,1.94-19.99.59-39.82,2.72-59.89,2.02-25.12-.89-49.95,2.38-75.07,2.09-15.64-.25-30.9,1.69-46.09,3.46-190.31-1.01-380.59.32-570.86,1.71-16.27-5.59-36.15-4.41-54.34-3.88-17.21.4-31.16,7.8-48.71,7.13-19.35,2.32-37.95-2.51-57.3-1.86-26.77-.46-53.47-1.73-80.29-1.75-45.52-5.08-92.21-5.06-138.49-6.39-18.86.13-37.65,1.69-56.59.84-57-.02-114.04-.38-171-.36-14.59-.7-29.18-1.96-43.8-.97-18.79,1.16-37.5-1.39-56.29-.21-32.55,1.77-65.06-2.11-97.69-.99-21.19-.57-42.49-.38-63.56-1.75V.12Z"/>
    <path class="cls-42" d="m1873.85,30.61c15.45-.61,31.16-.3,46.27-2.51v43.58c-22.46,2.3-45.86-1.08-67.72,3.16-61.46-1.77-123.04.86-184.54.17-9.26-4.13-21.6-2.76-32.51-2.93-72.49.19-145.01.11-217.5-.11-20.21-.21-40.05,2.38-60.22,2.3-28.69-.3-57.56.76-85.95-2-1.01.74-3,2.19-4.01,2.93-.6.04-1.8.15-2.4.19-1.54-.72-4.58-2.13-6.11-2.85-89.47-.08-178.95.8-268.35,2.34-17.96-3.54-37.65-1.86-56.29-3.78-48.79,1.84-97.76,1.39-146.51-.53-25.13.82-49.91-2.7-75.04-1.81-15.3.44-30.9-1.71-45.86.89-22.95,4.22-47.48,1.41-70.76,4.64-23.78,3.1-47.63-1.35-71.44-.8-14.03,1.41-28.2,2.26-42.41,1.69-18.04-.74-38.93,2.97-53.51-4.98,1.16-1.35,3.53-4.05,4.69-5.42,80.51-1.31,161.1-1.6,241.54-4.24,41.17-1.39,82.42-1.37,123.64-2.19-12.6-5.65-29.7-4.22-44.74-4.7-90.11-.06-180.22-.61-270.34-.51-17.51.08-35.36-.91-52.46,1.73-12.23,2-24.98.89-37.46.86-131.21.27-262.5.25-393.71,2.15v-24.53c21.07,1.37,42.38,1.18,63.56,1.75,32.62-1.12,65.14,2.76,97.69.99,18.79-1.18,37.5,1.37,56.29.21,14.63-.99,29.21.27,43.8.97,56.96-.02,114,.34,171,.36,18.94.84,37.72-.72,56.59-.84,46.27,1.33,92.96,1.31,138.49,6.39,26.81.02,53.51,1.29,80.29,1.75,19.35-.65,37.95,4.18,57.3,1.86,17.55.67,31.5-6.73,48.71-7.13,18.19-.53,38.06-1.71,54.34,3.88-1.42.59-4.27,1.79-5.7,2.38,108.83,1.2,217.72-.42,326.59-.84,87.45-.53,174.9-.42,262.35-.23,7.99-.11,15.94-.68,23.85-1.37-12.08-.7-24.15-1.27-36.23-1.65,15.19-1.77,30.45-3.71,46.09-3.46,25.13.3,49.95-2.97,75.07-2.09,20.06.7,39.9-1.43,59.89-2.02,50.02-.76,100.28,1.35,150.08-1.94,34.58,2.93,69.19-.11,103.69-1.71Z"/>
    <path class="cls-16" d="m868.17,43.54c190.28-1.39,380.55-2.72,570.86-1.71,12.08.38,24.15.95,36.23,1.65-7.91.7-15.86,1.27-23.85,1.37-87.45-.19-174.9-.3-262.35.23-108.86.42-217.76,2.05-326.59.84,1.42-.59,4.27-1.79,5.7-2.38Z"/>
    <path class="cls-3" d="m431.3,54.86c17.1-2.64,34.95-1.65,52.46-1.73,90.11-.11,180.22.44,270.34.51,15.04.49,32.14-.95,44.74,4.7-41.21.82-82.46.8-123.64,2.19-80.44,2.64-161.03,2.93-241.54,4.24-1.16,1.37-3.53,4.07-4.69,5.42-45.15,3.92-91.13,2.45-136.65,3.73-54.26,1.77-108.97-1.03-162.97,3.42,15.26,1.31,30.71,2.57,45.08,5.91.15,1.12.45,3.37.56,4.49-43.95,3.27-88.5.97-132.68,2.21-14.06-.51-28.2-.76-42.19.34v-15.84c30.26.25,60.45-1.29,90.71-1.5-30.04-2.55-60.53-1.75-90.71-3.16v-11.92c131.21-1.9,262.5-1.88,393.71-2.15,12.49.02,25.24,1.14,37.46-.86Z"/>
    <path class="cls-29" d="m667.1,69.65c14.96-2.59,30.56-.44,45.86-.89,25.12-.89,49.91,2.64,75.04,1.81,48.75,1.92,97.72,2.36,146.51.53,18.64,1.92,38.33.23,56.29,3.78-1.2.78-3.6,2.32-4.84,3.1,81.34-.27,162.64-1.24,243.97-1.35,11.81.04,23.62-.34,35.32-1.24.6-.04,1.8-.15,2.4-.19,1.01-.74,3-2.19,4.01-2.93,28.39,2.76,57.26,1.71,85.95,2,20.18.08,40.01-2.51,60.22-2.3,72.49.21,145.01.3,217.5.11,10.91.17,23.25-1.2,32.51,2.93,1.2.42,3.56,1.29,4.76,1.73,44.89,1.12,90-.4,134.85,1.81,15.11.19,31.88,1.67,44.93-3.71,21.86-4.24,45.26-.86,67.72-3.16v48.39c-15.6,1.67-30.98,3.9-46.2,6.48-.45-1.2-1.39-3.61-1.88-4.83-57.79-1.77-115.61.89-173.4,1.69-12.64.42-25.65-.25-37.76,2.15-28.84,5.19-59.78,2-89.47,3.14-21.79,1.08-43.73-.84-65.4,1.16-34.46,2.59-68.85-1.71-103.16-3.02-22.91-.61-45.15-4.03-67.46-6.62-21.71-3.63-44.51-2.17-66.79-3.08-25.35-1.08-50.74-.97-76.13-1.73,5.48-1.03,10.99-2.09,16.58-3,33.94-.34,68.17,1.5,101.92-1.08-11.96-4.07-26.44-1.92-39.6-2.21-26.29.86-53.03-1.16-78.9,2.13-2.55.3-5.1.63-7.57.97-20.78-2.51-41.44,2.17-62.29.99-37.65-1.77-75.97,2.38-110.44,10.86-7.99-.06-15.3-2.19-22.69-3.65-.67,1.08-1.95,3.25-2.59,4.35-4.43-1.05-8.81-2.09-13.24-3.08,2.36.06,7.09.17,9.45.23-19.91-5.99-41.93-8.8-64.35-9.39-1.24-3.1-2.4-6.22-3.64-9.34-.64.93-1.88,2.78-2.48,3.71-2.81,2.47-5.74,4.87-8.66,7.3-11.85-1.71-23.93-3.44-36.23-2.85-34.09-1.69-68.33-.91-102.45-1.79-142.58.11-285.19-.65-427.76-.23-24.53.19-49.39-.67-73.46,2.45-31.5-7.66-66.56-6.35-99-11.94-21.83-3.97-44.85-4.43-67.39-6.24-18.45-1.39-38.93,2.78-55.39-3.63,44.18-1.24,88.72,1.05,132.68-2.21-.11-1.12-.41-3.38-.56-4.49-14.36-3.33-29.81-4.6-45.08-5.91,54-4.45,108.71-1.65,162.97-3.42,45.52-1.29,91.5.19,136.65-3.73,14.59,7.95,35.47,4.24,53.51,4.98,14.21.57,28.39-.27,42.41-1.69,23.81-.55,47.66,3.9,71.44.8,23.29-3.23,47.81-.42,70.76-4.64Z"/>
    <path class="cls-47" d="m.12,69.8c30.19,1.41,60.68.61,90.71,3.16-30.26.21-60.45,1.75-90.71,1.5v-4.66Z"/>
    <path class="cls-23" d="m990.8,74.88c89.4-1.54,178.88-2.43,268.35-2.34,1.54.72,4.58,2.13,6.11,2.85-11.7.91-23.51,1.29-35.32,1.24-81.34.11-162.64,1.08-243.97,1.35,1.24-.78,3.64-2.32,4.84-3.1Z"/>
    <path class="cls-2" d="m1667.86,75.01c61.5.7,123.07-1.94,184.54-.17-13.05,5.38-29.81,3.9-44.93,3.71-44.85-2.21-89.96-.7-134.85-1.81-1.2-.44-3.56-1.31-4.76-1.73Z"/>
    <path class="cls-73" d="m.12,90.3c13.99-1.1,28.12-.84,42.19-.34,16.46,6.41,36.94,2.24,55.39,3.63,22.54,1.81,45.56,2.28,67.39,6.24,32.44,5.59,67.5,4.28,99,11.94,13.95,2.72,28.95,1.73,43.43,1.81,161.29-.67,322.61.8,483.9.06,25.42-.57,51.45,1.54,76.35-2.3,12.3-.59,24.38,1.14,36.23,2.85,2.92-2.43,5.85-4.83,8.66-7.3,4.39,33.86-10.46,67.31-28.31,99.35-12.41-2.51-25.42-1.65-38.02-.25-80.02-.63-160.05.63-240.04.74,17.36-2.62,35.89-1.62,52.95-4.94,6.41-6.37-10.39-7.95-18.37-7.26-6.94-.76-8.33,3.42-11.25,5.91-2.32-1.77-4.69-3.54-7.01-5.29-20.96-7.99-46.35-10.19-71.21-9.77-15.38-.46-32.51,2.13-46.13-3.1,9.26-.17,18.53-.08,27.79.13-.34-1.14-1.05-3.44-1.39-4.58-16.24.65-31.76-2.49-47.85-2.78-8.32-.25-14.4,3.16-16.12,7.53,4.69.21,9.38.44,14.06.7-5.25,1.43-10.91,2.38-16.8,2.26-28.5.32-57.04-.76-85.5.72-13.95.91-27.34-2.68-41.29-1.94-11.32.44-22.72.91-34.01.13-23.74-1.58-47.7-1.18-71.51-1.24-13.43-.17-26.96,1.75-40.24-.02,1.28-3.54,7.01-8.21,1.2-11.41-4.95-3.63-13.16-.82-19.5-.51-21.98,3.1-43.24-3.63-65.25-2.83-36.71.13-76.39,2.66-108.71-9.37v-68.77Z"/>
    <path class="cls-2" d="m1485.16,97.54c66.49-.7,133.09-2.11,199.61-1.5-3.94.84-7.91,1.77-12.19,1.73-103.8.95-207.56,3.5-311.4,2.62-4.16.04-8.18-.36-11.7-1.6,45.15-1.5,90.45-.84,135.68-1.24Z"/>
    <path class="cls-65" d="m915.12,103.19c1.24,3.12,2.4,6.24,3.64,9.34,22.42.59,44.44,3.4,64.35,9.39-2.36-.06-7.09-.17-9.45-.23-19.01-1.88-38.29-.76-57.22.72,3.49,14.28,12.97,27.8,18.37,41.87,7.05,13.9,14.44,27.76,21.94,41.6,4.16,9.83,11.92,18.98,16.8,28.69-2.47,1.62-5.29,3.06-8.36,4.32-19.05-3.02-38.89-1.92-58.31-1.14-14.7.44-29.44.99-44.14.7l-2.81-1.41c8.44-10.17,17.14-20.31,24.41-30.78,17.85-32.04,32.7-65.5,28.31-99.35.6-.93,1.84-2.78,2.48-3.71Z"/>
    <path class="cls-16" d="m264.09,111.77c24.07-3.12,48.94-2.26,73.46-2.45,142.57-.42,285.19.34,427.76.23,34.12.89,68.36.11,102.45,1.79-24.9,3.84-50.93,1.73-76.35,2.3-161.29.74-322.61-.74-483.9-.06-14.48-.08-29.48.91-43.43-1.81Z"/>
    <path class="cls-38" d="m1122.61,113.21c20.85,1.18,41.51-3.5,62.29-.99,2.48-.34,5.02-.67,7.57-.97,5.51.32,10.99.8,16.58,1.16-5.59.91-11.1,1.96-16.58,3,25.39.76,50.78.65,76.13,1.73,22.28.91,45.07-.55,66.79,3.08,22.31,2.59,44.55,6.01,67.46,6.62,34.31,1.31,68.7,5.61,103.16,3.02,21.67-2,43.61-.08,65.4-1.16,29.7-1.14,60.64,2.05,89.47-3.14-.79.84-2.29,2.53-3.04,3.38,46.2.59,92.36-1.22,138.6-.91,25.8-.42,51.86.84,77.48-1.48,15.22-2.57,30.6-4.81,46.2-6.48v59.17c-36.26-1.12-72.52,1.33-108.79,1.52-103.27,3.9-206.85,4.18-310.05,8.84-2.29-.76-6.86-2.24-9.15-2.97,12.6-.72,25.24-1.14,37.88-1.46-4.2-.89-8.44-1.77-12.6-2.64-.52-1.41-1.01-2.83-1.5-4.24-14.1-2.34-27.15-6.2-40.12-10.04,2.59-1.56,5.21-3.12,7.87-4.68-1.61-.74-4.76-2.24-6.34-2.97,3.22-1.94,6.26-3.97,9.34-5.99-24.08-2-48.41-.74-72.6-.38-135.3.89-270,8.92-405.19,10.99-1.12-.27-3.34-.8-4.46-1.05,5.14-1.08,10.35-2.11,15.56-3.12-28.57-2.43-56.81,1.81-85.16,3.25-5.4-14.07-14.89-27.59-18.37-41.87,18.94-1.48,38.21-2.59,57.22-.72,4.43.99,8.81,2.02,13.24,3.08.64-1.1,1.91-3.27,2.59-4.35,7.39,1.46,14.7,3.59,22.69,3.65,34.46-8.48,72.79-12.64,110.44-10.86Z"/>
    <path class="cls-17" d="m1192.47,111.25c25.87-3.29,52.61-1.27,78.9-2.13,13.16.3,27.64-1.86,39.6,2.21-33.75,2.57-67.99.74-101.92,1.08-5.59-.36-11.06-.84-16.58-1.16Z"/>
    <path class="cls-4" d="m1698.65,123.4c57.79-.8,115.61-3.46,173.4-1.69.49,1.22,1.43,3.63,1.88,4.83-25.61,2.32-51.67,1.05-77.48,1.48-46.24-.32-92.4,1.5-138.6.91.75-.84,2.25-2.53,3.04-3.38,12.11-2.4,25.13-1.73,37.76-2.15Z"/>
    <path class="cls-4" d="m1008.88,165.2c135.19-2.07,269.89-10.1,405.19-10.99,24.19-.36,48.53-1.62,72.6.38-3.08,2.02-6.11,4.05-9.34,5.99-40.65,4.43-82.39,2.45-123.49,4.41-104.89,1.48-209.81,2.59-314.74,2.55-10.16-.11-20.92.44-30.22-2.34Z"/>
    <path class="cls-21" d="m.12,159.07c32.32,12.02,72,9.49,108.71,9.37,22.01-.8,43.27,5.93,65.25,2.83,6.34-.32,14.55-3.12,19.5.51,5.81,3.21.08,7.87-1.2,11.41,13.28,1.77,26.81-.15,40.24.02,23.81.06,47.77-.34,71.51,1.24,11.29.78,22.69.32,34.01-.13,13.95-.74,27.34,2.85,41.29,1.94,28.46-1.48,57-.4,85.5-.72,5.89.13,11.55-.82,16.8-2.26-4.69-.25-9.37-.49-14.06-.7,1.72-4.37,7.8-7.78,16.12-7.53,16.09.3,31.61,3.44,47.85,2.78.34,1.14,1.05,3.44,1.39,4.58-9.26-.21-18.53-.3-27.79-.13,13.61,5.23,30.75,2.64,46.13,3.1,24.86-.42,50.25,1.77,71.21,9.77,2.32,1.75,4.69,3.52,7.01,5.29,2.92-2.49,4.31-6.67,11.25-5.91,7.99-.7,24.79.89,18.37,7.26-17.06,3.31-35.59,2.32-52.95,4.94-74.59,1.6-149.29.34-223.91.91-97.39.65-194.81.13-292.24.95-30,1.1-60.19.65-90,3.12v-52.65Z"/>
    <path class="cls-8" d="m934.81,164.28c28.35-1.43,56.59-5.67,85.16-3.25-5.21,1.01-10.42,2.05-15.56,3.12,1.12.25,3.34.78,4.46,1.05,9.3,2.78,20.06,2.24,30.22,2.34,104.93.04,209.85-1.08,314.74-2.55,41.1-1.96,82.84.02,123.49-4.41,1.57.74,4.72,2.24,6.34,2.97-2.66,1.56-5.29,3.12-7.87,4.68,12.97,3.84,26.03,7.7,40.12,10.04.49,1.41.98,2.83,1.5,4.24,4.16.86,8.4,1.75,12.6,2.64-12.64.32-25.27.74-37.88,1.46,2.29.74,6.86,2.21,9.15,2.97-26.55,1.6-53.29,1.6-79.91,2.59-25.27,1.08-50.96.17-75.71,3.71,22.99,2.02,46.39.61,69.53.51-4.58,1.98-8.59,5.04-15,4.75-23.1.42-46.09-1.62-69.22-1.18-10.39.55-19.13-3.9-29.44-3.37-20.62.34-39.26,6.92-60.08,6.31-30-.17-59.96-.3-89.96-.27-21.26-.32-41.25,5.91-62.66,3.5-1.76,2.55-3.49,5.08-5.21,7.64-2.1-.3-4.2-.57-6.26-.84-10.84,2.74-22.16,4.66-33.49,6.6-6.71-7.87-21.9-3.9-33.52-3.23-8.21,1.16-15.9-1.6-23.96-1.5-4.39,1.39-7.2,3.88-10.54,5.93-4.05-5.99-8.93-11.79-14.02-17.51-1.24.67-3.79,1.98-5.06,2.66-7.5-13.84-14.89-27.7-21.94-41.6Z"/>
    <path class="cls-13" d="m1501.29,189.59c103.2-4.66,206.78-4.94,310.05-8.84,36.26-.19,72.52-2.64,108.79-1.52v11.41c-73.8-.04-147.6.4-221.32,1.92-94.58.59-189.15,1.48-283.61,3.84-23.14.11-46.54,1.52-69.53-.51,24.75-3.54,50.44-2.64,75.71-3.71,26.63-.99,53.36-.99,79.91-2.59Z"/>
    <path class="cls-25" d="m1698.8,192.56c73.73-1.52,147.52-1.96,221.32-1.92v77.35c-77.59-.46-155.18.13-232.76-.27-45.79-2.91-92.02-.72-137.85-3.33-18.9-.95-37.84.44-56.78-.32-30.3-1.24-60.79.78-91.01-1.27-18.34-1.27-36.83-1.37-55.24-1.92,6.41-.86,12.86-1.75,19.31-2.66-12.79-.84-25.65-1.24-38.51-1.56,9.07-.89,18.19-1.73,27.3-2.57-30.26-2.19-60.9-3.27-91.35-1.67-22.39,1.37-45-.32-67.31,1.62,6.34.82,12.71,1.62,19.09,2.45-9.41,1.9-18.94,3.94-29.06,4.13-18.6.34-37.01,2.55-54.75,5.65,2.06,17.04-12.3,32.42-17.92,48.79-7.24,2.45-14.44,4.91-21.15,7.8-3.64-14.18-11.55-27.8-20.33-41.2-7.54-10.48-5.25-21.92-5.89-32.93-.41-.38-1.2-1.12-1.61-1.48l-4.76-.44c-1.16,4.62-2.32,9.24-3.49,13.86-13.01,3.8-26.89,6.58-41.36,7.93,1.05,1.16,2.14,2.34,3.19,3.52-13.54,1.08-16.95,8.46-18.15,15.06-1.43-2.34-2.77-4.7-4.05-7.07-7.35,8.69-13.39,17.72-21.56,26.16-2.25,3.44-9.83,3.25-14.66,4.77.9-23.16-1.76-46.34-.49-69.48,1.54-.67,4.65-2.02,6.23-2.7,3.08-1.27,5.89-2.7,8.36-4.32-4.87-9.7-12.64-18.86-16.8-28.69,1.27-.67,3.82-1.98,5.06-2.66,5.1,5.72,9.97,11.52,14.02,17.51,3.34-2.05,6.15-4.54,10.54-5.93,8.06-.11,15.75,2.66,23.96,1.5,11.62-.67,26.81-4.64,33.52,3.23,11.33-1.94,22.65-3.86,33.49-6.6,2.06.27,4.16.55,6.26.84,1.73-2.55,3.45-5.08,5.21-7.64,21.41,2.4,41.4-3.82,62.66-3.5,30-.02,59.96.11,89.96.27,20.81.61,39.45-5.97,60.08-6.31,10.31-.53,19.05,3.92,29.44,3.37,23.14-.44,46.12,1.6,69.22,1.18,6.41.3,10.42-2.76,15-4.75,94.46-2.36,189.04-3.25,283.61-3.84Z"/>
    <path class="cls-6" d="m846.31,206c12.6-1.39,25.61-2.26,38.02.25-7.27,10.46-15.97,20.61-24.41,30.78l2.81,1.41c5.32,2.87,10.46,5.84,15.71,8.8,1.54,19.39-1.57,38.85,2.18,58.18,3.79,13.06,1.27,26.3,1.54,39.45l-4.35,1.43c-4.39-11.62,1.42-24.3-7.35-35.27l.68-1.14.71-1.12c4.24-8.56-11.06-13.82-20.18-19.05-3.45,4.75-7.76,9.39-14.81,12.78-8.78-5.59-17.66-11.12-26.59-16.62-8.1,1.54-16.24,3.02-24.38,4.47-2.32,2.62-4.69,5.21-6.82,7.89.3-3.56.56-7.15,1.8-10.67,4.95-.65,9.94-1.22,15-1.71-4.95-4.24-10.39-8.29-16.72-11.88-.45-5.21-.23-10.44-1.01-15.63-.49,6.18.11,12.36.04,18.54-12,4.45-29.14,4.37-39.82-1.33-17.36-8.65-41.85-3.46-62.32-6.48-7.31-1.2-14.85-.99-22.2-.04-18.04-4.87-38.25-1.27-57.3-3-34.61-2.49-69.86-.67-104.14-4.64-17.4-.76-34.99,1.77-52.31-.25-11.36-1.35-18.94-7.93-31.13-7.72-17.89-.3-35.81.4-53.7-.3-.19-1.48-.41-2.97-.6-4.45-9.15-1.27-18.23-3.08-27.71-3.25-12.38.32-24.26,3.08-36.75,2.66-20.85-.78-41.81-1.27-62.62.19-20.25.76-41.81,3.1-61.01-1.9,99.67-3.23,199.35-6.75,298.61-12.91,104.74-7.51,210.49-8.52,315.19-16.05,25.99-2.47,53.66-2.28,77.25-9.7-3.79-.61-7.54-1.18-11.29-1.73Z"/>
    <path class="cls-3" d="m90.12,208.59c97.42-.82,194.85-.3,292.24-.95,74.63-.57,149.32.7,223.91-.91,79.99-.11,160.01-1.37,240.04-.74,3.75.55,7.5,1.12,11.29,1.73-23.59,7.43-51.26,7.24-77.25,9.7-104.7,7.53-210.45,8.54-315.19,16.05-99.26,6.16-198.94,9.68-298.61,12.91-24.19-.61-48.3,1.18-72.45,1.2-31.35.13-62.66.44-93.97.95v-24.15c77.51-.7,155.06.19,232.58.32,28.09-.25,56.59.42,84.19-3.1-24.15-6.2-51.11-4.7-76.88-5.06-61.2-.49-122.4-.63-183.56-1.65-18.9.19-37.76-.91-56.33-2.89v-.3c29.81-2.47,60-2.02,90-3.12Z"/>
    <path class="cls-19" d="m.12,212.01c18.56,1.98,37.42,3.08,56.33,2.89,61.16,1.01,122.36,1.16,183.56,1.65,25.76.36,52.72-1.14,76.88,5.06-27.6,3.52-56.1,2.85-84.19,3.1-77.51-.13-155.06-1.01-232.58-.32v-12.38Z"/>
    <path class="cls-28" d="m905.34,234.5c-.94-4.26-3.79-10.06,3.97-12.85.22,4.37,1.57,9.26-3.97,12.85Z"/>
    <path class="cls-108" d="m906.88,237.75c19.42-.78,39.26-1.88,58.31,1.14-1.58.67-4.69,2.02-6.23,2.7-1.27,23.14,1.39,46.32.49,69.48l-.04.4c-14.62.55-29.17,1.65-43.35,3.78,2.02,12.51,9,24.57,10.76,37.1-14.51-.78-29.14-1.46-43.72-.89,10.42,3.65,22.84,4.01,34.8,3.94-3,6.62-5.81,13.39-4.91,20.29,2.59,30.1.68,60.24,3.15,90.34-1.91,1.9-1.91,5.8-7.28,5.29-6.98-.99-13.91.02-19.43,2.62.38-16.64,0-33.31,0-49.97-.3-11.18.3-22.36-.56-33.52-.34-14.01-17.51-25.19-23.7-38.33,1.2-.49,3.6-1.46,4.8-1.94,6.3,9.89,15.41,19.15,22.39,28.9-1.84-10.59-4.24-22.72-19.76-30.04l-1.2-.72c10.69.42,21.45.23,32.06-.7.49-4.68,1.05-9.34,1.39-14.01,3.19-31.94.56-63.94,2.03-95.89Z"/>
    <path class="cls-45" d="m862.74,238.44c14.7.3,29.44-.25,44.14-.7-1.46,31.96,1.16,63.96-2.03,95.89.52-9.7.38-19.41-1.31-29.05-1.91,2.51-3.83,5.02-5.48,7.59-1.46-1.43-4.39-4.3-5.81-5.74-1.95-.17-5.81-.53-7.76-.7l-3.86-.34c-3.75-19.32-.64-38.79-2.18-58.18-5.25-2.95-10.39-5.93-15.71-8.8Z"/>
    <path class="cls-18" d="m290.19,248.1c12.49.42,24.38-2.34,36.75-2.66,9.49.17,18.56,1.98,27.71,3.25.19,1.48.41,2.97.6,4.45,17.89.7,35.81,0,53.7.3,12.19-.21,19.76,6.37,31.13,7.72,17.33,2.02,34.91-.51,52.31.25,34.27,3.97,69.52,2.15,104.14,4.64,19.05,1.73,39.26-1.88,57.3,3,7.35-.95,14.89-1.16,22.2.04,20.47,3.02,44.96-2.17,62.32,6.48,10.69,5.7,27.82,5.78,39.82,1.33-2.14,20.76.86,41.58-1.5,62.31-15.3,9.07-25.12,20.46-36.86,30.97-.97-1.33-2.92-4.01-3.94-5.34,1.8-2.62,3.56-5.21,5.4-7.78-7.42.57-14.96.76-22.28-.27-8.4,1.96-17.21,1.18-25.57-.36,6.3-2.03,12.71-3.99,19.05-5.99-11.55-1.18-23.14-.02-34.69.06-25.39-2.74-47.59-12-73.91-12.7-27.3-.08-54.52-1.71-81.86-1.22-24.15-1.56-48.45-.63-72.64-1.6,7.84-1.08,15.68-2.07,23.55-3.06-40.28-.17-80.1-3.73-120.23-5.23-56.32.49-112.72.36-169.05.17-39.71-3.16-79.8-1.37-119.74-1.94-21.26-.42-42.6,2.02-63.79,0v-76.36c31.31-.51,62.63-.82,93.97-.95,24.15-.02,48.26-1.81,72.45-1.2,19.2,5,40.76,2.66,61.01,1.9,20.81-1.46,41.77-.97,62.62-.19Z"/>
    <path class="cls-24" d="m1059.54,246.84l4.76.44c.04,14.51,2.36,29.24-3.71,43.5-5.06,12.11-8.89,24.34-11.14,36.72-6.94-5.76-14.51-11.29-23.44-16.09-10.69-7.32-19.16-15.63-26.29-24.19,1.2-6.6,4.61-13.99,18.15-15.06-1.05-1.18-2.14-2.36-3.19-3.52,14.48-1.35,28.35-4.13,41.36-7.93,1.16-4.62,2.33-9.24,3.49-13.86Z"/>
    <path class="cls-57" d="m1064.3,247.28c.41.36,1.2,1.1,1.61,1.48.64,11.01-1.65,22.44,5.89,32.93,8.77,13.39,16.69,27.02,20.33,41.2,2.02,7.99,2.51,16.07,1.61,24.13-1.99.72-5.93,2.15-7.91,2.87,1.24,17.09-.04,34.26,2.44,51.3,7.2,5.95,16.05,11.16,24.86,16.33.11-4.77.15-9.53.11-14.3-9.04-2.53-16.46-7.05-11.81-13.06,9.98-11.56,29.78-21.94,26.06-35.84-.86-10.91.98-21.83-.6-32.7-4.76-1.29-10.01-1.69-15.07-2.43.37-1.03,1.09-3.08,1.46-4.11,5.62-16.37,19.99-31.75,17.92-48.79-3.37,18.86,14.93,35.42,20.36,53.45-2.29.65-6.82,1.96-9.11,2.59-.3,12.17-.45,24.34-.19,36.49-.64,5.97,5.4,11.1,10.54,15.99,8.33,7.42,16.57,14.89,24.15,22.57-5.06,1.29-10.16,2.53-15.22,3.78.3,6.88.79,13.73,1.46,20.59,1.5,20.9.45,41.83,1.99,62.73-.22,5.42-.11,10.84.04,16.26-10.84-.4-22.2-1.48-32.44,1.27-7.16,2.03-14.44-1.05-21.79-.59-9.45.7-18.38,3.02-27.98,3.06-5.74-.93-10.61-3.04-15.71-4.7-.15-12.55-1.16-25.1-3.94-37.55-.26-5.32-7.88-9.87-17.03-10.74-5.77,2.68-10.91,5.93-14.14,9.77-3.86,4.98-5.14,10.42-6.45,15.78-.94-3.75-1.99-7.51-3-11.24-2.48-.21-4.95-.4-7.39-.59-.56-.76-1.69-2.28-2.25-3.04-23.33,2.55-47.1,1.86-70.69,2.36-3.26,2.89-6.56,5.78-9.6,8.78,4.95-39.61-.04-79.29.45-118.93-1.5-13.5-11.74-26.07-17.21-39.13,14.17-2.13,28.73-3.23,43.35-3.78,22.2-.82,44.44,1.35,66.6-.06,8.93,4.81,16.5,10.34,23.44,16.09,2.25-12.38,6.07-24.62,11.14-36.72,6.07-14.26,3.75-28.98,3.71-43.5Z"/>
    <path class="cls-116" d="m1263.24,252.43c30.45-1.6,61.09-.53,91.35,1.67-9.11.84-18.23,1.69-27.3,2.57,12.86.32,25.72.72,38.51,1.56-6.45.91-12.9,1.79-19.31,2.66,18.41.55,36.9.65,55.24,1.92,30.22,2.05,60.71.02,91.01,1.27,18.94.76,37.88-.63,56.78.32,45.83,2.62,92.06.42,137.85,3.33,77.59.4,155.18-.19,232.76.27v44.04c-61.24-.86-122.55-.76-183.75-2.3-85.84-.4-171.86-1.56-257.55,1.9-6.79-.72-13.46-1.58-20.14-2.49,13.57-3.65,29.59-.08,42.56-4.26-12.22-1.2-24.86-1.65-36.37-4.47-18.23-4.24-38.29-4.03-57.56-5.21,3.34-1.52,6.71-3.04,10.09-4.56-15-4.75-30.49-10.31-48.45-9.85-36.3.17-72.6-.19-108.86.21-24.6.84-49.69-2.15-73.69,2.13-.71,4.64-1.46,9.28-2.48,13.9-9.3,3.75-11.74,10.38-17.66,15.57,2.7,4.28,3,8.84,1.12,13.27-2.96-2.72-5.85-5.44-8.74-8.18-2.36.67-4.73,1.37-7.09,2.05-5.44-18.04-23.74-34.59-20.36-53.45,17.74-3.1,36.15-5.32,54.75-5.65,10.13-.19,19.65-2.24,29.06-4.13-6.38-.82-12.75-1.62-19.09-2.45,22.31-1.94,44.92-.25,67.31-1.62Z"/>
    <path class="cls-110" d="m778.14,258.35c.79,5.19.56,10.42,1.01,15.63,6.34,3.59,11.77,7.64,16.72,11.88-5.06.49-10.05,1.05-15,1.71-1.24,3.52-1.5,7.11-1.8,10.67-.22,12.42,1.24,24.89,4.05,37.21,5.66,15.53,16.61,30.31,28.76,44.53,4.8,5.23,10.5,10.19,16.31,15.08.56-2.17,1.72-6.48,2.29-8.65-.37,10.82,6.68,21.2,5.36,32.06-19.61-.65-38.51,3.14-57,6.26l-5.62,1.01c.67-11.45-.22-22.89-1.99-34.28-2.48-.8-4.95-1.6-7.46-2.38-2.59-3.69-5.32-7.36-8.44-10.93,5.55-8.56,10.58-17.23,15.41-25.95,2.4-4.26,4.69-8.56,5.93-13.01,2.36-20.74-.64-41.55,1.5-62.31.08-6.18-.52-12.36-.04-18.54Z"/>
    <path class="cls-53" d="m974.11,306.3c8.17-8.44,14.21-17.47,21.56-26.16,1.27,2.36,2.62,4.73,4.05,7.07,7.12,8.56,15.6,16.88,26.29,24.19-22.16,1.41-44.4-.76-66.6.06l.04-.4c4.84-1.52,12.41-1.33,14.66-4.77Z"/>
    <path class="cls-117" d="m1186.4,283.14c24-4.28,49.09-1.29,73.69-2.13,36.26-.4,72.56-.04,108.86-.21,17.96-.46,33.45,5.1,48.45,9.85-3.37,1.52-6.75,3.04-10.09,4.56,19.28,1.18,39.34.97,57.56,5.21,11.51,2.83,24.15,3.27,36.37,4.47-12.97,4.18-28.99.61-42.56,4.26,6.67.91,13.35,1.77,20.14,2.49-2.18.42-6.56,1.31-8.77,1.75,72.52-.67,145.09-2.36,217.61-.99,77.48.91,154.95,2.53,232.46,2.66v44.15c-5.4.86-10.72,1.88-15.94,3.02,2.32,2.72,4.65,5.42,6.94,8.16-6.71-.65-13.2-1.84-19.58-3.12,2.89-1.69,5.92-3.31,8.62-5.13-25.69-3.08-51.67,1.01-77.48-.49-31.27-1.48-62.59-.3-93.71,1.46-31.58,0-63.56,1.35-94.73-2.09-6.3-.8-12.26,1.08-18.11,1.96-2.29-.61-6.79-1.84-9.08-2.45,7.28-1.05,14.33-2.51,21.34-4.03-9.04-3.59-19.99-4.75-30.83-4.79-82.57-1.2-165.11,1.2-247.69,1.88-6.3-.15-12.23,1.05-17.55,2.83,11.55,1.88,23.44,3,35.36,3.86,3.94,1.16,7.84,2.36,11.74,3.61-11.03,5.93-23.06,11.83-37.8,14.53-16.46,1.81-33.34,2.34-49.76,4.32-6.71,6.1-12.52,12.51-16.69,19.3-.45-6.1-1.35-12.17-2.4-18.25-.19,10.13.83,20.25.67,30.4-2.14-.93-6.38-2.78-8.48-3.71,1.05-6.33,1.43-12.76-1.09-19.01-8.21,3.75-8.06,9.89-8.74,15.31-2.92-3.97-4.76-8.9-12.56-10.76-6.79-2.36-15-1.54-22.54-1.56-.67,2.11-1.35,4.24-1.99,6.39-10.46-.08-31.35,2.47-22.24,10.48-5.89,4.22-12.75,7.97-20.06,11.43-3.15-.25-9.45-.78-12.6-1.03-.67-6.86-1.16-13.71-1.46-20.59,5.06-1.24,10.16-2.49,15.22-3.78-7.58-7.68-15.83-15.15-24.15-22.57-5.14-4.89-11.18-10.02-10.54-15.99-.26-12.15-.11-24.32.19-36.49,2.29-.63,6.83-1.94,9.11-2.59,2.36-.68,4.73-1.37,7.09-2.05,2.89,2.74,5.78,5.46,8.74,8.18,1.88-4.43,1.58-8.99-1.12-13.27,5.92-5.19,8.36-11.81,17.66-15.57,1.01-4.62,1.76-9.26,2.48-13.9Z"/>
    <path class="cls-121" d="m785.9,290.35c8.14-1.46,16.28-2.93,24.38-4.47,8.93,5.51,17.81,11.03,26.59,16.62-5.55,3.37-5.51,8.06-6.08,12.38,4.35.11,8.7.17,13.09.17-.04,14.6-.22,29.21-1.35,43.79-.04,4.6-3.37,8.82-6.79,12.89-8.02,2.68-15.94,5.46-23.85,8.25-12.15-14.22-23.1-29-28.76-44.53-2.81-12.32-4.27-24.79-4.05-37.21,2.14-2.68,4.5-5.27,6.82-7.89Z"/>
    <path class="cls-66" d="m836.86,302.5c7.05-3.4,11.36-8.04,14.81-12.78,9.11,5.23,24.41,10.48,20.18,19.05l-.71,1.12c-.79.42-2.4,1.29-3.23,1.71-7.99,1.18-15.98,2.45-24.04,3.46-4.39,0-8.74-.06-13.09-.17.56-4.32.52-9.01,6.08-12.38Z"/>
    <path class="cls-56" d="m880.63,305.41l3.86.34c-.34,7.87.34,15.78,2.25,23.58.56-7.7,1.01-15.5,5.51-22.89,1.43,1.43,4.35,4.3,5.81,5.74-1.54,11.52-3.3,23.06-4.8,34.59,2.55.21,7.65.63,10.2.86-10.61.93-21.37,1.12-32.06.7,1.61-.51,4.8-1.54,6.41-2.05l4.35-1.43c-.26-13.14,2.25-26.39-1.54-39.45Z"/>
    <path class="cls-102" d="m884.49,305.75c1.95.17,5.81.53,7.76.7-4.5,7.38-4.95,15.19-5.51,22.89-1.91-7.8-2.59-15.71-2.25-23.58Z"/>
    <path class="cls-35" d="m898.06,312.19c1.65-2.57,3.56-5.08,5.48-7.59,1.69,9.64,1.84,19.34,1.31,29.05-.34,4.66-.9,9.32-1.39,14.01-2.55-.23-7.65-.65-10.2-.86,1.5-11.54,3.26-23.08,4.8-34.59Z"/>
    <path class="cls-95" d="m867.91,311.6c.83-.42,2.44-1.29,3.23-1.71l-.68,1.14c-1.54,12.36-1.05,24.97.94,37.31l1.2.72-2.62,1.14c-1.2.49-3.6,1.46-4.8,1.94-1.76.65-5.25,1.94-7.01,2.57-3.45-12.61,1.69-25.33.9-38.03,2.92-1.71,5.81-3.42,8.85-5.08Z"/>
    <path class="cls-16" d="m1478.83,311.64c85.69-3.46,171.71-2.3,257.55-1.9,61.2,1.54,122.51,1.43,183.75,2.3v3.02c-77.51-.13-154.99-1.75-232.46-2.66-72.52-1.37-145.09.32-217.61.99,2.21-.44,6.6-1.33,8.77-1.75Z"/>
    <path class="cls-61" d="m843.88,315.05c8.06-1.01,16.05-2.28,24.04-3.46-3.04,1.67-5.93,3.37-8.85,5.08.79,12.7-4.35,25.42-.9,38.03.04.55.08,1.65.11,2.19-6.07,5.84-13.12,11.35-19.58,17.04-3.6,3.12-7.35,6.18-11.25,9.15,2.4-3.86,5.18-7.66,8.29-11.37,3.41-4.07,6.75-8.29,6.79-12.89,1.13-14.58,1.31-29.19,1.35-43.79Z"/>
    <path class="cls-9" d="m870.46,311.03c8.77,10.97,2.96,23.65,7.35,35.27-1.61.51-4.8,1.54-6.41,2.05-1.99-12.34-2.48-24.95-.94-37.31Z"/>
    <path class="cls-120" d="m1092.13,322.88c6.71-2.89,13.91-5.36,21.15-7.8-.38,1.03-1.09,3.08-1.46,4.11,5.06.74,10.31,1.14,15.07,2.43,1.58,10.86-.26,21.79.6,32.7,3.71,13.9-16.09,24.28-26.06,35.84-4.2,3.75-8.74,7.38-13.16,11.03-2.48-17.04-1.2-34.21-2.44-51.3,1.99-.72,5.93-2.15,7.91-2.87.9-8.06.41-16.14-1.61-24.13Z"/>
    <path class="cls-75" d="m926.82,352.35c-1.76-12.53-8.74-24.6-10.76-37.1,5.48,13.06,15.71,25.63,17.21,39.13-.49,39.64,4.5,79.31-.45,118.93-1.95,4.28-4.01,8.56-6.19,12.85-4.95-6.41-10.69-12.93-10.5-20.1-2.48-30.1-.56-60.24-3.15-90.34-.9-6.9,1.91-13.67,4.91-20.29-11.96.06-24.38-.3-34.8-3.94,14.59-.57,29.21.11,43.72.89Z"/>
    <path class="cls-118" d="m.12,324.91c21.19,2.02,42.53-.42,63.79,0,39.94.57,80.02-1.22,119.74,1.94,56.33.19,112.73.32,169.05-.17,40.13,1.5,79.95,5.06,120.23,5.23-7.87.99-15.71,1.98-23.55,3.06,24.19.97,48.49.04,72.64,1.6,27.34-.49,54.56,1.14,81.86,1.22,26.33.7,48.53,9.96,73.91,12.7,11.55-.08,23.14-1.24,34.69-.06-6.34,2-12.75,3.97-19.05,5.99,8.36,1.54,17.18,2.32,25.57.36,7.31,1.03,14.85.84,22.28.27-1.84,2.57-3.6,5.17-5.4,7.78,1.01,1.33,2.96,4.01,3.94,5.34-8.33,8.73-18.79,16.71-29.7,24.45.45.84,1.35,2.51,1.8,3.35,3.97,8.5,2.51,17.36,2.4,26.05-33.07-.25-66.19.13-99.26-.27,3-.78,6-1.54,9-2.32-1.13-1.5-2.25-3-3.34-4.49,7.16-.27,14.4-.74,21.3-1.9-6.11-.89-12.3-1.67-18.45-2.43,2.74-3.21,5.51-6.39,8.25-9.58-40.69-7.13-83.66-1.69-124.8-6.92,7.54-1.81,15.08-3.59,22.65-5.36,1.57,1.56,3.15,3.12,4.72,4.68.79-3.46,1.57-6.9,2.44-10.31-27.49-1.92-55.2-1.14-82.8-1.18-21.41.08-42.53-2.68-63.97-2.19-16.39.4-32.89.27-48.98-1.71-44.29-2.78-88.87-2.28-133.31-3-29.32,1.41-58.61-1.18-87.94.19-39.79-2.32-79.8-1.24-119.7-.3v-52.04Z"/>
    <path class="cls-85" d="m739.81,370.17c11.74-10.5,21.56-21.9,36.86-30.97-1.24,4.45-3.53,8.75-5.93,13.01l1.76-6.71c-17.21,14.34-28.84,30.48-44.14,45.46,6.3-.82,12.64-1.62,18.97-2.43,2.7-3.44,5.4-6.9,7.99-10.38,3.11,3.56,5.85,7.24,8.44,10.93,2.51.78,4.99,1.58,7.46,2.38-18.3,5.4-39.15,6.01-59.33,6.5-.45-.84-1.35-2.51-1.8-3.35,10.91-7.74,21.37-15.71,29.7-24.45Z"/>
    <path class="cls-2" d="m964.66,342.98c5.66-2.74,10.05,3.19,5.44,5.17-5.78,3.1-10.76-3.23-5.44-5.17Z"/>
    <path class="cls-33" d="m728.37,390.97c15.3-14.98,26.93-31.11,44.14-45.46l-1.76,6.71c-4.84,8.71-9.86,17.38-15.41,25.95-2.59,3.48-5.29,6.94-7.99,10.38-6.34.8-12.67,1.6-18.97,2.43Z"/>
    <path class="cls-28" d="m869.98,350.2l2.62-1.14c15.52,7.32,17.92,19.45,19.76,30.04-6.97-9.75-16.09-19.01-22.39-28.9Z"/>
    <path class="cls-46" d="m1047.46,350.66c5.14-2.28,10.31,2.78,5.81,4.81-4.91,2.07-10.24-2.85-5.81-4.81Z"/>
    <path class="cls-26" d="m858.16,354.71c1.76-.63,5.25-1.92,7.01-2.57,6.19,13.14,23.36,24.32,23.7,38.33.86,11.16.26,22.34.56,33.52-1.65.27-5.02.8-6.71,1.05-2.92-.04-8.81-.17-11.74-.21-4.05-1.52-7.95-3.08-11.89-4.64,1.88-1.24,3.71-2.51,5.59-3.78-2.1-.46-6.34-1.39-8.48-1.86-.67-6.03.19-12.07,1.76-18.04.26,5.86.38,11.75.23,17.61,3.19-.13,9.52-.36,12.71-.46,0-6.24-.34-12.47-1.05-18.69-3,.36-8.92,1.05-11.89,1.41-11.29-12.42-1.91-26.56.3-39.49-.04-.55-.07-1.65-.11-2.19Z"/>
    <path class="cls-16" d="m1332.35,356.42c5.32-1.77,11.25-2.97,17.55-2.83,82.57-.68,165.11-3.08,247.69-1.88,10.84.04,21.79,1.2,30.83,4.79-7.01,1.52-14.06,2.97-21.34,4.03-44.17,2.45-88.76,3.63-133.16,2.57-35.36-1.37-70.88-1.12-106.2-2.83-11.92-.86-23.81-1.98-35.36-3.86Z"/>
    <path class="cls-28" d="m838.7,373.95c6.45-5.7,13.5-11.2,19.58-17.04-2.21,12.93-11.59,27.06-.3,39.49v.13c-1.57,5.97-2.44,12-1.76,18.04,2.14.46,6.38,1.39,8.48,1.86-1.88,1.27-3.71,2.53-5.59,3.78,3.94,1.56,7.84,3.12,11.89,4.64-23.89.7-47.55,2.66-71.21,4.39-7.35-.19-14.63-.55-21.94-.89.26-.91.75-2.7,1.01-3.59,18.49-3.12,37.39-6.92,57-6.26,1.69.76,5.14,2.28,6.86,3.04-2.89-15.78-8.44-31.68-4.01-47.57Z"/>
    <path class="cls-22" d="m1616.41,362.98c5.85-.89,11.81-2.76,18.11-1.96,31.16,3.44,63.15,2.09,94.73,2.09,31.12-1.75,62.44-2.93,93.71-1.46,25.8,1.5,51.79-2.59,77.48.49-2.7,1.81-5.74,3.44-8.62,5.13,6.37,1.29,12.86,2.47,19.58,3.12-2.29-2.74-4.61-5.44-6.94-8.16,5.21-1.14,10.54-2.15,15.94-3.02v45.77c-48.64-1.2-97.35.27-146.03-.19-21.11.25-46.16-.91-61.61,8.88,14.25,4.43,30.86,2.7,46.39,3.12,53.74.74,107.51.53,161.25.36v24.05c-42.9,1.65-86.47-2.11-128.93,2.57,7.72,3.73,18.34,3.14,27.79,3.5,33.71.55,67.43.59,101.14.32v114.07c-12.04-3.71-25.05-6.96-33.94-13.1-10.8-6.77-23.1-15.1-40.99-14.58-19.12,1.16-35.51,7.59-52.09,12.61-5.66.38-11.66.89-16.05,3.12-16.13-6.18-36.15-8.4-55.28-8.9-14.21,1.86-23.89,8.9-35.55,13.39-23.17,10.97-53.48,14.6-79.99,22.21-10.95,2.51-21.64,6.75-33.75,6.81-35.66-5.93-60.3-25.38-98.4-27.91-21.9-.08-43.05,3.63-64.54,5.36-1.46,1.12-4.39,3.35-5.85,4.49-3.79-5.08-7.99-10.04-12.04-15.02-1.84,2.24-3.64,4.47-5.44,6.71-8.06-1.84-16.16-3.63-24.38-5.25-2.18-3.97-4.69-7.89-7.09-11.81-4.87,5.38-9.79,10.78-14.85,16.12-6.6-5-12.41-10.34-17.63-15.84-2.62,5.25-3.86,11.03-10.35,15.36-4.28-21.22-4.88-42.65-4.31-63.98,11.14-7.97-4.69-16.31-8.06-24.26-12.08-21.09-25.2-42.74-24.38-65.16,4.16-6.79,9.98-13.2,16.69-19.3,16.43-1.98,33.3-2.51,49.76-4.32,14.74-2.7,26.78-8.61,37.8-14.53-3.9-1.24-7.8-2.45-11.74-3.61,35.32,1.71,70.84,1.46,106.2,2.83,44.4,1.05,88.99-.13,133.16-2.57,2.29.61,6.79,1.84,9.08,2.45Z"/>
    <path class="cls-119" d="m811.89,379.98c7.91-2.78,15.83-5.57,23.85-8.25-3.11,3.71-5.89,7.51-8.29,11.37,3.9-2.97,7.65-6.03,11.25-9.15-4.42,15.88,1.13,31.79,4.01,47.57-1.73-.76-5.18-2.28-6.86-3.04,1.31-10.86-5.74-21.24-5.36-32.06-.56,2.17-1.72,6.48-2.29,8.65-5.81-4.89-11.51-9.85-16.31-15.08Z"/>
    <path class="cls-22" d="m.12,376.94c39.9-.95,79.91-2.03,119.7.3,29.33-1.37,58.61,1.22,87.94-.19,44.44.72,89.03.21,133.31,3,16.09,1.98,32.59,2.11,48.98,1.71,21.45-.49,42.56,2.28,63.97,2.19,27.6.04,55.31-.74,82.8,1.18-.86,3.42-1.65,6.86-2.44,10.31-1.57-1.56-3.15-3.12-4.72-4.68-7.58,1.77-15.11,3.54-22.65,5.36,41.14,5.23,84.11-.21,124.8,6.92-2.74,3.19-5.51,6.37-8.25,9.58,6.15.76,12.34,1.54,18.45,2.43-6.9,1.16-14.14,1.62-21.3,1.9,1.09,1.5,2.21,3,3.34,4.49-3,.78-6,1.54-9,2.32,33.08.4,66.19.02,99.26.27l-.11,2.51c-54.22.08-108.49-.59-162.71.97-8.81.23-17.44,1.39-25.91,2.72,16.76,5.91,37.13,3.35,55.76,4.26,44.21,1.92,88.39-.82,132.64-.46-.08,3.31-.11,6.62-.11,9.94-31.43-2.3-63.15-1.41-94.69-2.76-36.34-1.37-72.71,0-109.05.08-75.22-.04-150.45.61-225.68,1.52-64.87,2.11-130.09-.46-194.78,3.59,150,4.01,300.26,1.75,450.37,2.51,57-.27,114.07,1.12,171.04-.55.71-.72,2.06-2.13,2.78-2.83,2.02,22.11,1.8,44.25.97,66.36-3.67,2.03-7.69,3.84-11.85,5.55-8.96-11.41-18.45-22.72-29.4-33.56-.9-.06-2.7-.19-3.6-.25-5.93,5.99-9.56,12.57-13.69,19.01-8.66-4.94-12.86-11.52-16.8-17.95-5.21,5.46-10.05,11.05-14.62,16.71-9.11.06-18.23-.27-27.19-1.16-1.5-2.68-2.92-5.34-4.24-8.02-6.49,7.8-14.44,15.17-22.69,22.44-3.07-3.48-6.11-6.98-9.11-10.48-9.75,10.67-12.08,22.68-17.59,34.09-9.3,14.77-24.23,28.12-38.1,41.64-3.83-6.9-7.58-13.8-11.36-20.69-8.14,7.24-14.44,15-20.66,22.78-3.64-5.15-7.35-10.25-11.21-15.34-6.3,5.95-11.59,12.19-16.5,18.54-1.76-1.52-5.25-4.56-7.01-6.07-3.71,2-7.35,4.05-10.91,6.16-29.78-3.94-59.06-9.62-85.39-18.5-12.41-4.16-20.1-11.24-29.96-16.96-9.11-5.44-23.06-6.52-33.94-10.48-11.59-4.75-16.76-13.96-31.31-16.43-7.76.7-15.26,2.19-23.02,2.93-11.59-1.05-21.9-4.73-33.6-5.51-10.2-.38-18.64,3.5-26.4,6.69-29.03,13.63-64.31,21.81-97.24,31.89-21,6.64-44.78,9.32-67.31,13.73v-195.69Z"/>
    <path class="cls-59" d="m1272.8,383.8c1.05,6.08,1.95,12.15,2.4,18.25-.83,22.42,12.3,44.06,24.38,65.16,3.38,7.95,19.2,16.28,8.06,24.26-.56,21.33.04,42.76,4.31,63.98,6.49-4.32,7.72-10.1,10.35-15.36,5.21,5.51,11.03,10.84,17.63,15.84,5.06-5.34,9.98-10.74,14.85-16.12,2.4,3.92,4.91,7.85,7.09,11.81,3.22,6.83,6.71,13.73,13.84,19.64,3.41-4.83,6.71-9.66,10.54-14.39,1.8-2.24,3.6-4.47,5.44-6.71,4.05,4.98,8.25,9.94,12.04,15.02,4.09,5.59,7.54,11.35,10.54,17.17,3.6-5.06,7.28-10.1,10.72-15.21,10.13,9.81,15.53,20.65,20.1,31.62,3.08,4.13,11.32,4.66,17.96,5.93,19.24,2.91,37.35,7.7,56.18,11.31,24.41,4.81,50.25,8.16,72.04,16.37,15.83,6.01,31.5,12.3,45.3,19.79l.49.27-.49,2.7c-24.04-2.13-48.15-4.98-72.64-4.28-37.69.65-77.1-.23-111.3-10.19-19.87-6.08-36-15.34-55.99-21.39-23.74-7.26-50.06-11.14-75.07-16.71-20.7-4.7-43.69-3.82-65.14-1.46-37.65,4.32-76.58,5.89-114.82,3.38-26.44-1.71-50.74-8.4-76.88-10.74-28.54-1.67-56.81,2.13-85.05,3.84-24.26-11.96-47.89-24.64-65.96-39.76-13.95-11.54-20.36-25.23-26.55-38.56-.79.21-2.36.63-3.15.84-25.27,7.15-53.1,10.69-78.67,17.42-24.38,6.35-47.78,13.8-71.89,20.44-19.09,5.1-34.69,13.25-49.88,21.33,4.05-12.97,16.61-24.34,21.71-37.13,3.3-8.31,10.54-16.2,10.39-24.87,10.16-3.04,15.04-9.07,20.96-14.28,6.56-6.05,14.89-11.41,23.29-16.66.22-28.5.86-57.02-.15-85.51.34-1.22,1.05-3.71,1.39-4.94.9.51,2.66,1.54,3.56,2.07,3.37,28.27,1.88,56.64,2.7,84.94,3.11-1.71,6.3-3.4,9.56-5.06,4.2-1.35,8.44-2.64,12.75-3.88,1.76,2.57,3.79,5.1,5.85,7.64,9.45-3.33,13.28-12.26,25.73-11.66,15.26,7.64,29.48,15.99,45.52,23.18,15.26-2.45,17.78-12,22.61-19.17,5.51-2.59,12.45-3.61,19.43-2.62,5.36.51,5.36-3.4,7.28-5.29-.19,7.17,5.55,13.69,10.5,20.1,2.17-4.28,4.24-8.56,6.19-12.85,3.04-3,6.34-5.89,9.6-8.78,23.59-.51,47.36.19,70.69-2.36.56.76,1.69,2.28,2.25,3.04,2.44.19,4.91.38,7.39.59,1.01,3.73,2.06,7.49,3,11.24,1.31-5.36,2.59-10.8,6.45-15.78-.38,12.72.6,25.44.38,38.16,11.59.02,23.17.08,34.72.36,5.1,1.67,9.98,3.78,15.71,4.7,9.6-.04,18.53-2.36,27.98-3.06,7.35-.46,14.62,2.62,21.79.59,10.24-2.74,21.6-1.67,32.44-1.27,5.21.15,10.39.3,15.64.44-1.05-19.36-.86-38.73-1.65-58.09-.19-3.78-.94-7.55-2.7-11.18-2.66-1.46-5.33-2.87-8.03-4.26,2.36-1.67,4.8-3.29,7.31-4.87,7.31-3.46,14.17-7.21,20.06-11.43,1.95-1.41,5.93-4.22,7.88-5.63,10.46,8.16,23.85,14.85,35.96,22.17-1.72,1.18-5.25,3.52-7.01,4.68.75,15.63-.38,31.3,2.44,46.87,7.31-4.68,13.01-10.08,16.5-16.01,10.16-15.93,20.02-32.25,21.86-49.23.15-10.15-.86-20.27-.67-30.4Z"/>
    <path class="cls-2" d="m961.96,389.11c8.66-1.27,8.55,2.62,8.1,6.31-1.99.02-5.96.04-7.95.06-.07-2.13-.15-4.26-.15-6.37Z"/>
    <path class="cls-2" d="m987.76,389.81c2.03-.17,6.15-.55,8.17-.74-.83,2.34,3.6,8.4-4.27,6.5-4.05-.82-2.48-3.94-3.9-5.76Z"/>
    <path class="cls-2" d="m1018.4,388.29c3.71,1.98,6.26,4.49,7.65,7.26-2.17.13-6.56.4-8.74.53.26-2.59.6-5.19,1.09-7.78Z"/>
    <path class="cls-2" d="m1047.13,390.32c5.7-2.57,11.14,3.25,5.77,5.23-5.66,2.32-10.87-3.21-5.77-5.23Z"/>
    <path class="cls-7" d="m1088.26,401.18c4.42-3.65,8.96-7.28,13.16-11.03-4.65,6.01,2.78,10.53,11.81,13.06.04,4.77,0,9.53-.11,14.3-8.81-5.17-17.66-10.38-24.86-16.33Z"/>
    <path class="cls-31" d="m711.91,397.97c20.18-.49,41.03-1.1,59.33-6.5,1.76,11.39,2.66,22.82,1.99,34.28l5.62-1.01c-.26.89-.75,2.68-1.01,3.59,7.31.34,14.59.7,21.94.89-8.63.57-17.29.82-25.95,1.05.26,4.22.52,8.46.79,12.7.83,11.62,0,23.31,2.36,34.89-3.26,1.67-6.45,3.35-9.56,5.06-.83-28.31.67-56.68-2.7-84.94-.9-.53-2.66-1.56-3.56-2.07-.34,1.22-1.05,3.71-1.39,4.94,1.01,28.5.37,57.02.15,85.51-8.4,5.25-16.73,10.61-23.29,16.66-5.92,5.21-10.8,11.24-20.96,14.28-.22-1.35-.6-4.07-.83-5.42.83-22.11,1.05-44.25-.97-66.36v-1.56c0-3.31.04-6.62.11-9.94.04-2.51.15-5,.22-7.49l.11-2.51c.11-8.69,1.57-17.55-2.4-26.05Z"/>
    <path class="cls-10" d="m1255.17,406.79c.67-5.42.53-11.56,8.74-15.31,2.51,6.24,2.14,12.68,1.09,19.01,2.1.93,6.34,2.78,8.48,3.71-1.84,16.98-11.7,33.31-21.86,49.23-3.49,5.93-9.19,11.33-16.5,16.01-2.81-15.57-1.69-31.24-2.44-46.87,1.76-1.16,5.29-3.5,7.01-4.68-12.11-7.32-25.5-14.01-35.96-22.17-1.95,1.41-5.92,4.22-7.88,5.63-9.11-8.02,11.78-10.57,22.24-10.48.64-2.15,1.31-4.28,1.99-6.39,7.54.02,15.75-.8,22.54,1.56,7.8,1.86,9.64,6.79,12.56,10.76Z"/>
    <path class="cls-49" d="m857.97,396.39c2.96-.36,8.89-1.05,11.89-1.41.71,6.22,1.05,12.45,1.05,18.69-3.19.11-9.53.34-12.71.46.15-5.86.04-11.75-.23-17.61v-.13Z"/>
    <path class="cls-16" d="m1712.49,413.67c15.45-9.79,40.5-8.63,61.61-8.88,48.68.46,97.39-1.01,146.03.19v12.17c-53.74.17-107.51.38-161.25-.36-15.53-.42-32.14,1.31-46.39-3.12Z"/>
    <path class="cls-20" d="m1163.19,421.75c3.15.25,9.45.78,12.6,1.03-2.51,1.58-4.95,3.21-7.31,4.87,2.7,1.39,5.36,2.81,8.03,4.26-3.83,17.49-1.5,35.63-11.33,52.57-1.54-20.9-.49-41.83-1.99-62.73Z"/>
    <path class="cls-14" d="m1529.45,425.06c2.51-3.63,10.46-2.26,15.83-2.74,71.21.11,142.42.25,213.64.86,13.05.15,27.08.02,38.25,4.43-17.4,2.57-35.47,1.48-53.21,1.6-28.8-.34-57.64,0-86.44-.97-42.64-1.22-85.69.42-128.06-3.19Z"/>
    <path class="cls-111" d="m799.78,429.21c23.66-1.73,47.32-3.69,71.21-4.39,2.92.04,8.81.17,11.74.21-1.24,3.25.71,7.26-3.15,9.98-30.15,2.81-60.9,3.21-91.05,6.18-4.65.55-9.3,1.14-13.91,1.77-.26-4.24-.52-8.48-.79-12.7,8.66-.23,17.32-.49,25.95-1.05Z"/>
    <path class="cls-70" d="m882.73,425.04c1.69-.25,5.06-.78,6.71-1.05,0,16.66.38,33.33,0,49.97-4.84,7.17-7.35,16.73-22.61,19.17-16.05-7.19-30.26-15.55-45.52-23.18-12.45-.59-16.27,8.33-25.73,11.66-2.06-2.53-4.09-5.06-5.85-7.64-.6-10.93-.83-21.85-1.2-32.78,30.15-2.97,60.9-3.38,91.05-6.18,3.86-2.72,1.91-6.73,3.15-9.98Z"/>
    <path class="cls-4" d="m525.57,430.23c8.48-1.33,17.1-2.49,25.91-2.72,54.23-1.56,108.49-.89,162.71-.97-.08,2.49-.19,4.98-.22,7.49-44.25-.36-88.43,2.38-132.64.46-18.64-.91-39,1.65-55.76-4.26Z"/>
    <path class="cls-2" d="m960.01,446.17c3.64-6.56,8.02-13.54,18.94-17.36,8.7,10.17,20.18,20.42,21.08,31.96-19.09.21-38.21.08-57.3.19.3-6.54,4.2-13.65,17.29-14.79Z"/>
    <path class="cls-71" d="m1165.17,484.48c9.82-16.94,7.5-35.08,11.33-52.57,1.76,3.63,2.51,7.4,2.7,11.18.79,19.36.6,38.73,1.65,58.09-5.25-.15-10.42-.3-15.64-.44-.15-5.42-.26-10.84-.04-16.26Z"/>
    <path class="cls-16" d="m1110.76,438.98c5.02,1.75,3.94,5.27,4.69,8.1-9.34.49-5.03-5-4.69-8.1Z"/>
    <path class="cls-4" d="m284.45,442.8c75.22-.91,150.45-1.56,225.68-1.52,36.34-.08,72.71-1.46,109.05-.08,31.54,1.35,63.26.46,94.69,2.76v1.56c-.71.7-2.06,2.11-2.78,2.83-56.96,1.67-114.04.27-171.04.55-150.11-.76-300.37,1.5-450.37-2.51,64.69-4.05,129.9-1.48,194.78-3.59Z"/>
    <path class="cls-79" d="m774.61,442.97c4.61-.63,9.26-1.22,13.91-1.77.37,10.93.6,21.85,1.2,32.78-4.31,1.24-8.55,2.53-12.75,3.88-2.36-11.58-1.54-23.27-2.36-34.89Z"/>
    <path class="cls-5" d="m1791.2,443.77c42.45-4.68,86.03-.93,128.93-2.57v6.39c-33.71.27-67.43.23-101.14-.32-9.45-.36-20.06.23-27.79-3.5Z"/>
    <path class="cls-3" d="m1032.2,461.26c3.22-3.84,8.36-7.09,14.14-9.77,9.15.86,16.76,5.42,17.03,10.74,2.77,12.45,3.79,25,3.94,37.55-11.55-.27-23.14-.34-34.72-.36.22-12.72-.75-25.44-.38-38.16Z"/>
    <path class="cls-16" d="m213.91,471.4c82.5.02,164.96-.53,247.46-.63,7.99.49,18.3-.74,23.59,3.63-52.76,2.62-105.86-.61-158.77-.34-37.39-.86-75.19.84-112.27-2.66Z"/>
    <path class="cls-15" d="m1103.26,493.44c-1.13-6.26-1.24-13.99,10.24-17.36,17.48-1.73,18.19,10.46,18.45,17.15-9.6.13-19.16.25-28.69.21Z"/>
    <path class="cls-107" d="m669.99,483.61c.9.06,2.7.19,3.6.25,10.95,10.84,20.44,22.15,29.4,33.56,4.16-1.71,8.18-3.52,11.85-5.55.22,1.35.6,4.07.83,5.42.15,8.67-7.09,16.56-10.39,24.87-5.1,12.78-17.66,24.15-21.71,37.13-29.29,16.18-70.46,21.45-105.15,32.78-11.89,3.23-24,6.22-36.49,8.71,12.49-8.99,31.31-14.74,40.88-25.06,12.71-13.52,25.24-27.27,33.45-41.91-15.45,3.84-31.43,8.48-40.91,16.71-8.74,7.74-15.45,16.26-26.14,23.27-14.66,10.5-38.06,14.91-55.76,23.39-22.01,9.32-35.29,23.9-59.14,31.98-23.89,8.06-52.5,8.35-78.49,13.08-27.64,5.1-54.94,10.82-81.64,17.3-1.99-.06-5.93-.19-7.91-.25,19.54-11.35,36.98-24.32,45.9-39.45,27.79-6.56,39.04-23.06,56.47-35.56,2.03,1.39,6.15,4.13,8.21,5.53-.22-1.35-.68-4.07-.9-5.42.3-3.23.86-6.45,1.69-9.64,6.9,6.22.52,14.03,3.23,20.86,4.76-3.56,6.19-8.06,8.33-12.23,7.01-4.05,13.16-8.52,19.27-13.01,2.03,1.12,6.04,3.35,8.06,4.47,3.9-3.21,7.65-6.43,11.77-9.56,3.56-2.11,7.2-4.16,10.91-6.16,1.76,1.52,5.25,4.56,7.01,6.07,4.91-6.35,10.2-12.59,16.5-18.54,3.86,5.08,7.57,10.19,11.21,15.34,6.22-7.78,12.53-15.55,20.66-22.78,3.79,6.9,7.54,13.8,11.36,20.69,13.87-13.52,28.8-26.87,38.1-41.64,5.51-11.41,7.84-23.41,17.59-34.09,3,3.5,6.04,7,9.11,10.48,8.25-7.28,16.2-14.64,22.69-22.44,1.31,2.68,2.74,5.34,4.24,8.02,3.26,5.08,7.27,10.04,12.22,14.68,7.09-3.65,10.73-8.8,14.96-13.52,4.58-5.65,9.41-11.24,14.62-16.71,3.94,6.43,8.14,13.01,16.8,17.95,4.13-6.43,7.76-13.01,13.69-19.01Z"/>
    <path class="cls-2" d="m1234.96,490.09c1.46.34,4.31,1.03,5.74,1.37-.53,3.04-1.13,6.1-1.84,9.13-2.44-3.33-3-6.98-3.9-10.5Z"/>
    <path class="cls-11" d="m597.69,500.22c8.96.89,18.07,1.22,27.19,1.16-4.24,4.72-7.88,9.87-14.96,13.52-4.95-4.64-8.96-9.6-12.22-14.68Z"/>
    <path class="cls-3" d="m164.68,527c7.76-3.19,16.2-7.07,26.4-6.69,11.7.78,22.01,4.45,33.6,5.51,7.76-.74,15.26-2.24,23.02-2.93,14.55,2.47,19.73,11.69,31.31,16.43,10.87,3.97,24.82,5.04,33.94,10.48,9.86,5.72,17.55,12.8,29.96,16.96,26.32,8.88,55.61,14.55,85.39,18.5-4.12,3.12-7.87,6.35-11.77,9.56-2.03-1.12-6.04-3.35-8.06-4.47-6.11,4.49-12.26,8.96-19.27,13.01-2.14,4.18-3.56,8.67-8.33,12.23-2.7-6.83,3.68-14.64-3.23-20.86-.83,3.19-1.39,6.41-1.69,9.64-4.88-1.54-9.79-3-14.7-4.43-18.64,4.77-36.15,10.76-54.34,15.99-13.61,4.03-29.48,3.14-43.99,1.5-14.89-1.75-29.93-3-44.89-4.45-16.95-1.81-28.8-10.1-45.64-12.13-20.7-2.68-42.11-3.27-62.62-6.54-17.62-2.74-36-1.37-53.7.4-18.49,1.9-37.35,1.39-55.95.53v-22.61c22.54-4.41,46.31-7.09,67.31-13.73,32.92-10.08,68.21-18.27,97.24-31.89Z"/>
    <path class="cls-3" d="m1793.11,546.6c16.57-5.02,32.96-11.45,52.09-12.61,17.89-.53,30.19,7.8,40.99,14.58,8.89,6.14,21.9,9.39,33.94,13.1v33.41c-38.36,5.42-75.79,12.76-114.38,17.68-21.07,3.65-42.68,1.86-63.22-1.71-51.98-1.46-103.12-8.06-155.18-9.22-25.39.06-50.78,1.1-76.13.65-22.24-.36-43.84-5.15-66.15-3.71-4.58-10.97-9.98-21.81-20.1-31.62-3.45,5.1-7.12,10.15-10.72,15.21-3-5.82-6.45-11.58-10.54-17.17,1.46-1.14,4.39-3.38,5.85-4.49,21.49-1.73,42.64-5.44,64.54-5.36,38.1,2.53,62.74,21.98,98.4,27.91,12.11-.06,22.8-4.3,33.75-6.81,26.51-7.61,56.81-11.24,79.99-22.21,11.66-4.49,21.34-11.54,35.55-13.39,19.13.51,39.15,2.72,55.28,8.9,5.78,3.54,13.28.36,16.05-3.12Z"/>
    <path class="cls-101" d="m122.3,555.76c14.85-3.97,26.96-10.27,40.12-15.67-1.99,3.35-3.34,6.92-6.79,9.94-16.31,6.16-35.4,9.43-53.36,13.69-17.51,3.92-33.45,9.7-50.85,13.75,21.41-9.34,46.61-15.21,70.88-21.71Z"/>
    <path class="cls-30" d="m1777.06,549.72c4.39-2.24,10.39-2.74,16.05-3.12-2.77,3.48-10.27,6.67-16.05,3.12Z"/>
    <path class="cls-12" d="m1361.86,551.62c8.21,1.62,16.31,3.42,24.38,5.25-3.83,4.72-7.12,9.56-10.54,14.39-7.12-5.91-10.61-12.8-13.84-19.64Z"/>
    <path class="cls-66" d="m1841.86,550.78c7.39,1.75,6.79,7.34,11.92,10.4,3.11-.59,6.26-1.2,9.41-1.79,4.54,2.45,8.96,5.02,12.79,7.87-8.06-1.92-17.25-2.66-24.38-5.55-4.39-3.27-6.9-7.19-9.75-10.93Z"/>
    <path class="cls-100" d="m1723.63,561.62c4.31-1.56,8.25-3.84,12.86-5,5.1,1.69,9.6,4.03,14.36,6.05-9.15,1.94-18.67,1.65-27.22-1.05Z"/>
    <path class="cls-78" d="m270.28,568.83c6.75.63,5.51-3.97,7.61-6.18,2.74,6.14,15.11,7.15,21.86,11.5-5.4.19-10.73.55-16.05,1.08,2.81,1.73,5.59,3.46,8.4,5.21-8.81-.36-16.91-2.45-22.99-6.05,4.65.82,9.26,1.69,13.87,2.59,1.88-4.64-1.13-6.75-9-6.29-7.31.68-12.82-2.4-15.6-5.89,3.94,1.35,7.91,2.7,11.89,4.03Z"/>
    <path class="cls-84" d="m159.91,571.7c12.68-.76,23.55-4.72,35.78-6.43-8.81,5.32-21.98,6.6-31.73,10.72-3.37-.78-4.54-2.32-4.05-4.28Z"/>
    <path class="cls-92" d="m1474.89,575.16c5.89-2.02,11.81-4.05,17.89-5.91-1.58.82-4.8,2.49-6.38,3.31-.94,1.27-2.85,3.78-3.79,5.02-2.59-.8-5.17-1.62-7.72-2.43Z"/>
    <path class="cls-100" d="m1799.45,577c5.21-1.41,9.9,3.23,7.31,5.63-4.95,1.41-10.65-3.35-7.31-5.63Z"/>
    <path class="cls-92" d="m1813.96,576.15c15,1.12,27.56,5.72,38.02,11.66-13.35-3.08-26.81-6.45-38.02-11.66Z"/>
    <path class="cls-87" d="m1529.23,582.25c9.22.59,18.71,2.24,24.6,6.56-9.71-.06-15.83-4.91-24.6-6.56Z"/>
    <path class="cls-100" d="m211.85,588.91c-.26-2.83,7.42-6.69,11.96-4.28,2.44,3.42-7.5,6.01-11.96,4.28Z"/>
    <path class="cls-100" d="m1808.19,585.79c4.76-2.3,8.51,2.47,4.05,3.99-4.91,2.53-8.96-2.47-4.05-3.99Z"/>
    <path class="cls-74" d="m1628.71,590.58c5.81-4.91,16.69-3.94,25.65-3.59-2.7,6.37-17.55,3.12-25.65,3.59Z"/>
    <path class="cls-92" d="m229.47,588.6c2.03-.21,6.11-.65,8.18-.89-4.91,2.72-5.25,5.82-1.28,8.88-1.8-.42-5.44-1.27-7.24-1.69-2.55,1.5-5.1,3-7.69,4.49-2.29-4.18,3.9-5.65,9.56-7.07-.37-.93-1.16-2.78-1.54-3.73Z"/>
    <path class="cls-84" d="m1722.65,591.49c7.01-1.39,14.51-1.39,21.9-1.39-2.21,1.79-5.7,2.78-8.89,3.9-3.64-1.88-7.99-2.72-13.01-2.51Z"/>
    <path class="cls-32" d="m56.08,594.72c17.7-1.77,36.08-3.14,53.7-.4,20.51,3.27,41.92,3.86,62.62,6.54,16.84,2.02,28.69,10.31,45.64,12.13,14.96,1.46,30,2.7,44.89,4.45,14.51,1.65,30.37,2.53,43.99-1.5,18.19-5.23,35.7-11.22,54.34-15.99,4.91,1.43,9.82,2.89,14.7,4.43.22,1.35.68,4.07.9,5.42-2.06-1.39-6.19-4.13-8.21-5.53-17.44,12.51-28.69,29-56.47,35.56-26.59,5.4-41.25,23.92-71.93,23.41-55.65-.89-112.54-1.24-166.01-10.99,3.75-1.2,7.54-2.38,11.29-3.54-7.28-6.41-13.8-13.61-25.5-17.82-18.53-6.26-38.55-11.26-59.89-13.54v-22.11c18.6.86,37.46,1.37,55.95-.53Z"/>
    <path class="cls-92" d="m1758.95,596.99c1.58-.42,4.69-1.29,6.23-1.71,4.2,2.05,8.63,3.97,13.24,5.76-2.7-.02-8.14-.08-10.84-.11-2.89-1.33-5.78-2.64-8.63-3.94Z"/>
    <path class="cls-68" d="m1805.75,612.75c38.59-4.91,76.01-12.26,114.38-17.68v57.29c-50.21-1.94-97.31,9.41-146.1,13.75-22.88,2.53-46.35,2.55-69.19,5.21-.98-.23-2.92-.74-3.94-.97-21.04-6.18-46.88-7.95-63.86-17.93l-.49-.27c-.98-6.22-8.1-11.16-13.76-16.22,24.79-.42,47.59,9.03,72.68,5.97,31.01-4.24,59.93-12.21,88.46-20.08,8.33-2.13,15.49-5.4,21.83-9.07Z"/>
    <path class="cls-34" d="m1445.08,598.77c22.31-1.43,43.91,3.35,66.15,3.71,25.35.44,50.74-.59,76.13-.65,52.05,1.16,103.2,7.76,155.18,9.22,20.55,3.56,42.15,5.36,63.22,1.71-6.34,3.67-13.5,6.94-21.83,9.07-28.54,7.87-57.45,15.84-88.46,20.08-25.09,3.06-47.89-6.39-72.68-5.97,5.66,5.06,12.79,10,13.76,16.22-13.8-7.49-29.48-13.77-45.3-19.79-21.79-8.21-47.62-11.56-72.04-16.37-18.82-3.61-36.94-8.4-56.18-11.31-6.64-1.27-14.89-1.79-17.96-5.93Z"/>
    <path class="cls-52" d="m.12,617.35c21.34,2.28,41.36,7.28,59.89,13.54,11.7,4.22,18.22,11.41,25.5,17.82-3.75,1.16-7.54,2.34-11.29,3.54-24.67-3.71-49.31-7.51-74.1-11.01v-23.9Z"/>
    <path class="cls-54" d="m1774.29,666.12c48.79-4.35,95.89-15.69,146.1-13.75v33.37c-8.55.23-17.1.04-25.58-.51-23.1-1.75-46.46-1.33-69.6-2.62-40.87,1.35-82.46-2.07-120.11-11.29,22.84-2.66,46.31-2.68,69.19-5.21Z"/>
  </g>
  <g id="Layer_3" data-name="Layer 3">
    <path class="cls-37" d="m1615.74,735.63c21.71-3.14,44.1-4.09,66.26-5.7,33.56.27,67.39-.42,100.5,3.19-20.02,1.5-39.04,5.59-58.8,7.87-8.77.7-13.46,5.38-19.01,8.69-15.11-3.61-31.39.86-46.99,1.24-10.99.06-16.99,5.82-23.63,9.85-9.41-3.23-21.56-4.51-31.65-1.54-5.81,2.57-7.72,6.86-11.32,10.31-2.51-1.84-4.99-3.67-7.46-5.51,4.61-4.39,9.15-8.8,13.65-13.23-13.01-4.49-27.75-6.79-42.41-8.84,20.59-.99,40.87-3.38,60.86-6.35Z"/>
    <path class="cls-27" d="m1723.7,740.99c19.76-2.28,38.78-6.37,58.8-7.87,23.51,3.08,47.62,5.19,71.77,3.56-4.24,4.09-6.64,8.63-8.51,13.2-10.39-4.43-22.2-1.96-31.54,1.98-10.05,7.32-26.63,11.1-33.23,20.06,1.5.84,4.54,2.57,6.04,3.44-3,2.59-4.28,5.46-3.86,8.54-1.16.59-3.53,1.75-4.69,2.34,1.57,3.16,3.15,6.33,4.84,9.51-5.59-2.91-12.11-5.04-19.39-6.2,5.51-2.93,11.63-6.12,12.08-10.72,3.49-7.47-10.5-11.85-18.53-16.26-.67-1.18-2.03-3.5-2.7-4.68-9.04-2.74-18.9-5.51-29.29-3.4-5.7-.8-11.36-1.62-16.91-2.62-.97-.55-2.92-1.67-3.9-2.21,5.55-3.31,10.24-7.99,19.01-8.69Z"/>
    <path class="cls-36" d="m1414.32,740.55c21.83-1.1,43.76-3.86,65.74-2.15,10.69,2.34,21.41,4.66,32.18,6.92-18.3,4.83-36.41,10.61-56.85,11.96-9.79.57-18.64,3-26.92,5.8-16.76,5.89-38.55-1.01-55.24,4.96-6.94,2.36-14.59,4.09-22.84,3.94-31.84.4-62.21,6.9-90.98,14.07-18.6,4.7-39.6,2.47-59.14,4.66-17.06,1.12-31.27,7.19-47.89,9.2-12.08,1.56-24.34,2.59-36.49,3.99,1.31,1.1,2.66,2.21,3.97,3.33-23.51-.89-40.84,9.28-63.11,11.07-12.41,7.61-31.35,9.11-47.63,12.87-19.87,4.83-42.19,3.48-62.51,7.3-7.65,1.31-15.19,2.87-23.1,3.59-42.34,2.28-84.98,1.29-127.42,2.47-18.71-.82-37.61,1.1-56.1-1.14-9.04-1.77-15.04,3.54-21.34,6.2-2.96-.84-5.96-1.67-8.96-2.47-4.12,4.77-7.95,9.62-11.36,14.55-2.51-6.5-6.52-12.76-11.55-18.77-2.89.02-8.66.04-11.55.06-1.35,1.35-4.05,4.09-5.4,5.46-4.88-5.48-10.42-10.74-16.65-15.74-8.81,4.87-16.5,10.55-26.74,14.51-4.99-.23-8.33-3.63-12.6-4.91-5.21,3.97-9.49,8.29-12.94,12.85-.71.34-2.1,1.01-2.81,1.37-2.89-3.5-5.74-6.96-8.74-10.42-5.36,3.59-10.5,7.28-15.45,11.05-4.61-3.42-10.09-6.43-16.76-8.5-2.59,2.87-5.14,5.76-7.72,8.65-2.44-3.19-4.88-6.37-7.09-9.58-2.36-3.59-4.91-7.11-7.54-10.63-2.81,2.17-5.74,4.32-8.74,6.45-7.95-4.43-10.5-11.18-18-15.95-6.86,3.97-13.8,7.89-20.78,11.79-3.41-5.67-6.79-11.37-10.46-17,.34-.82,1.05-2.49,1.39-3.31,15.22.32,30.49.11,45.71.38,29.66,1.52,59.1,5.19,89.03,4.2,19.12-.82,38.29,1.33,57.34-.25,39.15-2.38,78.71.38,117.79-2.53,31.27-1.98,62.92.95,94.12-1.96,17.85-1.96,36.53.55,54.11-1.69,14.78-5.51,31.76-8.46,48.9-10.63,13.2-1.16,20.55-7.95,30-12.47,7.35-4.01,17.55-5.48,25.73-8.77,4.01-2.89,1.61-6.77,1.61-10.08,16.8,4.66,35.21,1.35,52.91,1.24,13.12.25,21.94-6.48,34.28-7.85,8.96-1.05,17.77.86,26.29,2.21,15.49-3.71,32.02-5.36,48.56-6.75,15.79-.97,25.46-9.43,40.91-11.03,26.21-3.44,50.66-11.75,78.41-10.44,19.13-1.03,37.12,6.01,56.18,3.04,11.36-1.77,22.35-4.54,34.24-5.13Z"/>
    <path class="cls-72" d="m1480.06,738.39c1.73.06,5.18.19,6.9.23,22.76.3,45.67.11,67.91,3.35,14.66,2.05,29.4,4.35,42.41,8.84-4.5,4.43-9.04,8.84-13.65,13.23,2.47,1.84,4.95,3.67,7.46,5.51-11.21,1.31-24.15,1.67-28.05,8.96-2.62-1.46-5.25-2.91-7.88-4.35-8.66,1.98-17.7,3.44-27.11,3.42-6.49-.19-10.05,3.19-8.85,6.5-9.79,3.84-16.76,9.26-17.29,16.18-12.83-.15-23.06-4.83-33.34-8.52-2.17.97-4.35,1.96-6.52,2.95-5.92-.46-11.85-.91-17.77-1.33-.9-.8-2.66-2.4-3.53-3.21-3.68-.08-7.35-.17-10.99-.23-4.99,1.1-9.56,3.23-15.08,3.27-3.6-1.56-7.05-3.21-10.35-4.91-3.86,1.16-7.73,2.32-11.55,3.52-4.8.38-9.6.76-14.36,1.16-1.5-1.52-4.43-4.56-5.89-6.1-5.78,2.02-10.65,4.68-14.85,7.68-4.99-1.52-9.83-3.14-15-4.39-8.93,1.39-17.14,3.94-25.46,6.16-4.84-1.98-9.6-3.94-14.4-5.91-2.7,2.76-5.36,5.53-7.99,8.33-4.05-1.05-8.1-2.09-12.11-3.1-7.76,5.7-19.69,8.46-31.61,10.31-9.79-3.65-16.12.82-19.65,5.72-3.97-2-7.95-4.01-11.85-5.99-1.58,1.24-4.73,3.75-6.3,5.02-5.51,1.88-10.91,3.86-16.28,5.89-4.31-1.22-7.8-4.62-13.16-3.84-3.49,2.43-6.3,5.13-9.26,7.76-4.58-1.56-9.15-3.1-13.76-4.64-1.95,2-3.86,4.03-5.81,6.08-3.26-.27-6.49-.53-9.75-.76-1.43,2.34-2.85,4.68-4.24,7.05-3.86-1.22-7.72-2.45-11.55-3.65-6.71,3.46-13.28,7.05-19.65,10.72-3.49-.49-6.97-.97-10.46-1.43-6.41,3.23-12.49,6.73-19.69,9.43-5.66,2.28-11.14-1.65-16.13-2.66-4.61,5.25-8.92,10.57-13.42,15.86-6.75-1.24-13.46-2.47-20.21-3.71-3.22.51-6.49.99-9.71,1.52-2.62-2.02-5.25-4.01-7.88-5.99-4.91,1.77-9.82,3.59-14.7,5.4-2.18-.65-6.56-1.98-8.77-2.64-11.92,3.21-11.59,11.31-16.01,17.36-6.04-2.51-12.04-5-18.07-7.49-3.15,1.92-6.34,3.86-9.49,5.78-15.45.15-30.11,3.48-38.21,11.22-4.54.02-9.07.04-13.57.08-3.75,3.35-6.41,7.3-12,9.87-5.18.42-10.35.76-15.56.97-.94-2.24-1.91-4.45-2.93-6.64-4.46.97-8.89,1.94-13.2,3.06-5.18-3.92-10.35-7.83-15.41-11.79-.49,1.24-1.43,3.73-1.91,4.98-5.66-2.21-11.4-4.32-16.76-6.75l-5.85-4.47c-3.3.93-6.56,1.88-9.82,2.85-6.6-3.56-13.46-8.54-23.66-6.05-8.02-2.74-14.14-6.73-18.45-11.39-5.06,1.08-10.09,2.19-15.15,3.29-2.96,3.29-6,6.54-9.15,9.81-5.44-5.27-9.11-11.05-15-16.18,6.3-2.66,12.3-7.97,21.34-6.2,18.49,2.24,37.39.32,56.1,1.14,42.45-1.18,85.09-.19,127.42-2.47,7.91-.72,15.45-2.28,23.1-3.59,20.32-3.82,42.64-2.47,62.51-7.3,16.27-3.75,35.21-5.25,47.63-12.87,22.28-1.79,39.6-11.96,63.11-11.07-1.31-1.12-2.66-2.24-3.97-3.33,12.15-1.39,24.41-2.43,36.49-3.99,16.61-2,30.83-8.08,47.89-9.2,19.54-2.19,40.54.04,59.14-4.66,28.76-7.17,59.14-13.67,90.98-14.07,8.25.15,15.9-1.58,22.84-3.94,16.69-5.97,38.48.93,55.24-4.96,8.29-2.81,17.14-5.23,26.92-5.8,20.44-1.35,38.55-7.13,56.85-11.96-10.76-2.26-21.49-4.58-32.18-6.92Z"/>
    <path class="cls-39" d="m.39,764.04c31.31,3.99,63.34,6.37,93.83,12.21,12.97,2.36,26.74.23,40.05.72,21.67.7,43.28,2.24,64.95,2.62,25.54.44,49.54-6.16,75.04-5.76,15.19.34,30.49.51,45.49,1.94,4.84.15,7.95,2.36,11.06,4.09,33.56,2.57,66.86,6.12,100.76,7.15,31.5.63,62.74,3.04,94.12,4.51,13.73-.74,27.41-1.94,41.25-1.69,9.6.13,16.43-4.6,25.54-5.59,21.3-2.53,43.2-3.08,64.61-5.23,16.09-1.9,32.85-.21,48.68-2.95,15.37-2.74,32.06,1.37,46.95-2.89,25.69-6.9,54.86,4.2,80.51-3.06,18.64-5.55,41.25-5.17,60.9-1.52,16.01,3.42,33.07-3.06,49.09.95,18.38,4.72,38.33-2.05,57.04,1.86,13.57,2.83,28.05,2.95,42.3,3.84,0,3.31,2.4,7.19-1.61,10.08-8.18,3.29-18.38,4.77-25.73,8.77-9.45,4.51-16.8,11.31-30,12.47-17.14,2.17-34.12,5.13-48.9,10.63-17.59,2.24-36.26-.27-54.11,1.69-31.2,2.91-62.85-.02-94.12,1.96-39.07,2.91-78.64.15-117.79,2.53-19.05,1.58-38.21-.57-57.34.25-29.93.99-59.36-2.68-89.03-4.2-15.22-.27-30.49-.06-45.71-.38-.34.82-1.05,2.49-1.39,3.31-2.85-2.05-5.78-4.07-8.74-6.05-7.65,4.28-11.74,10.15-19.27,14.41-5.25-4.6-8.44-10.17-16.5-13.56-2.06-.7-4.12-1.37-6.19-2-1.95.76-3.9,1.56-5.85,2.34-2.89-5.25-12.38-5.8-20.78-6.52,1.57-1.69,3.11-3.33,4.69-5-29.81-.57-59.63-1.69-89.25-3.59,1.24,1.75,2.51,3.5,3.79,5.25-2.55,2.17-4.95,4.39-7.35,6.62-4.46-2.51-8.92-5-13.43-7.49-2.36,3.99-4.65,8.02-6.86,12.07-3.71-4.68-7.65-9.28-11.85-13.82-5.44,4.68-10.65,9.47-16.84,13.88-5.51-3.88-7.95-8.71-11.1-13.23-7.09,1.22-10.65,4.45-12.6,8.29-3.15-2.81-6.34-5.59-9.6-8.33-3.98,2.7-7.95,5.4-11.89,8.14-3.83-5.61-8.33-11.03-13.54-16.26-4.72,2.64-9.41,5.32-14.1,7.99-4.24-3.59-8.29-7.26-13.39-10.46-10.01,2.13-15.79,7.89-23.14,12-4.76-3.46-9.56-6.9-14.44-10.31-6.6,4.83-12.79,9.87-17.36,15.44-.37-1.65-1.12-4.91-1.5-6.56-7.09,1.33-13.99,3.56-21.56,3.8-32.51-1.77-65.21-2.57-97.8-4.03v-41.34Z"/>
    <path class="cls-51" d="m314.94,802.39c29.63,1.9,59.44,3.02,89.25,3.59-1.57,1.67-3.11,3.31-4.69,5,8.4.72,17.89,1.27,20.78,6.52,1.95-.78,3.9-1.58,5.85-2.34,2.06.63,4.12,1.31,6.19,2-8.55,5.25-16.35,10.91-23.48,16.79-3.71-4.13-7.46-8.27-11.25-12.36-5.36,3.12-10.76,6.24-16.2,9.34-5.21-6.94-11.85-14.11-24.97-17.13-2.7,3.86-5.33,7.74-7.99,11.62-6.94-6.45-13.76-12.97-21.9-18.98-1.95.3-5.85.91-7.8,1.2-1.27-1.75-2.55-3.5-3.79-5.25Z"/>
    <path class="cls-69" d="m.39,805.39c32.59,1.46,65.29,2.26,97.8,4.03,7.58-.23,14.48-2.47,21.56-3.8.38,1.65,1.13,4.91,1.5,6.56-.6.99-1.76,2.95-2.36,3.94-3.04-1.69-6.08-3.4-9.15-5.08-5.81,4.81-11.47,9.68-17.44,14.45-4.01.08-8.02.19-12.07.32-4.05,4.05-8.14,8.1-12.23,12.15-21.53-5.08-44.4-8.04-67.61-9.22v-23.35Z"/>
  </g>
  <g id="Layer_2" data-name="Layer 2">
    <path class="cls-114" d="m1357.7,794.49c4.2-3,9.07-5.65,14.85-7.68,1.46,1.54,4.39,4.58,5.89,6.1,4.76-.4,9.56-.78,14.36-1.16,3.82-1.2,7.69-2.36,11.55-3.52,3.3,1.71,6.75,3.35,10.35,4.91,5.51-.04,10.09-2.17,15.08-3.27,3.64.06,7.31.15,10.99.23.86.8,2.62,2.4,3.53,3.21,5.92.42,11.85.86,17.77,1.33,2.17-.99,4.35-1.98,6.52-2.95,10.28,3.69,20.51,8.37,33.34,8.52-.34.82-.98,2.47-1.27,3.27,1.05,1.98,2.17,3.99,3.26,5.97-4.65,1.35-9.3,2.72-13.99,4.05-4.72-.4-9.45-.91-14.21-.97-3.08,1.98-5.59,4.22-8.21,6.41-12.75,3.78-27.04,4.89-41.14,5.84-2.78,3.69-5.93,7.28-9.23,10.8,1.35,2.45,2.78,4.91,4.2,7.36-.94.86-2.81,2.62-3.71,3.48-8.44-.82-15.75.61-19.24,5.32-1.35-.72-4.09-2.17-5.47-2.91-5.02,7.57-4.54,17-18.94,21.37-24.19,1.84-49.31-7.26-72.64-.89-8.7-1.84-17.85-5.15-27.38-2.97-16.84,3.44-34.42-2.91-51.07,1.67-4.58-1.6-9.11-3.21-13.65-4.79-5.66,1.77-11.21,3.75-17.32,4.98-10.8,1.58-21.45-.97-31.69-2.59-4.09,1.39-8.14,2.83-12.19,4.26-9.71-1.96-20.02-2.38-30.15-1.37-1.72-.42-5.21-1.27-6.94-1.69-2.77,2.45-5.55,4.91-8.33,7.38-10.24-1.22-20.02-3.69-30.45-4.37-4.05,1.29-7.5,3.08-11.1,4.7-12.52.95-25.24.32-37.2-1.92,10.05-4.64,20.74-9.34,26.29-16.16,4.5-5.29,8.81-10.61,13.42-15.86,4.99,1.01,10.46,4.94,16.13,2.66,7.2-2.7,13.27-6.2,19.69-9.43,3.49.46,6.97.95,10.46,1.43,6.38-3.67,12.94-7.26,19.65-10.72,3.82,1.2,7.69,2.43,11.55,3.65,1.39-2.36,2.81-4.7,4.24-7.05,3.26.23,6.49.49,9.75.76,1.95-2.05,3.86-4.07,5.81-6.08,4.61,1.54,9.19,3.08,13.76,4.64,2.96-2.64,5.78-5.34,9.26-7.76,5.36-.78,8.85,2.62,13.16,3.84,5.36-2.02,10.76-4.01,16.28-5.89,1.57-1.27,4.72-3.78,6.3-5.02,3.9,1.98,7.88,3.99,11.85,5.99,3.53-4.89,9.86-9.37,19.65-5.72,11.92-1.86,23.85-4.62,31.61-10.31,4.01,1.01,8.06,2.05,12.11,3.1,2.63-2.81,5.29-5.57,7.99-8.33,4.8,1.96,9.56,3.92,14.4,5.91,8.33-2.21,16.54-4.77,25.46-6.16,5.17,1.24,10.01,2.87,15,4.39Z"/>
    <path class="cls-98" d="m153.05,807c7.35-4.11,13.12-9.87,23.14-12,5.1,3.21,9.15,6.88,13.39,10.46,4.69-2.68,9.38-5.36,14.1-7.99,5.21,5.23,9.71,10.65,13.54,16.26,3.94-2.74,7.91-5.44,11.89-8.14,3.26,2.74,6.45,5.53,9.6,8.33,1.95-3.84,5.51-7.07,12.6-8.29,3.15,4.51,5.59,9.34,11.1,13.23,6.19-4.41,11.4-9.2,16.84-13.88,4.2,4.54,8.14,9.13,11.85,13.82,2.21-4.05,4.5-8.08,6.86-12.07,4.5,2.49,8.96,4.98,13.43,7.49,2.4-2.24,4.8-4.45,7.35-6.62,1.95-.3,5.85-.91,7.8-1.2,8.14,6.01,14.96,12.53,21.9,18.98,2.66-3.88,5.29-7.76,7.99-11.62,13.12,3.02,19.76,10.19,24.97,17.13,5.44-3.1,10.84-6.22,16.2-9.34,3.79,4.09,7.54,8.23,11.25,12.36,7.13-5.89,14.93-11.54,23.48-16.79,8.06,3.4,11.25,8.96,16.5,13.56,7.54-4.26,11.62-10.13,19.27-14.41,2.96,1.98,5.89,4.01,8.74,6.05,3.67,5.63,7.05,11.33,10.46,17,6.98-3.9,13.91-7.83,20.78-11.79,7.5,4.77,10.05,11.52,18,15.95,3-2.13,5.93-4.28,8.74-6.45,2.63,3.52,5.18,7.05,7.54,10.63-.68.86-2.06,2.59-2.74,3.44-15.94-1.48-31.57-4.54-47.92-4.35-10.91.15-21.75-.44-32.51-1.31-13.12-.99-26.81-.34-39.26-3.27-16.39-3.78-34.31-6.35-52.09-4.91-13.99,1.54-27.94-.91-41.96-1.01-34.73-.67-68.92-4.22-103.31-6.67-35.85-.42-71.7-4.45-107.55-2.43-7.65,0-15.15-1.12-22.69-1.71,5.96-4.77,11.63-9.64,17.44-14.45,3.07,1.69,6.11,3.4,9.15,5.08.6-.99,1.76-2.95,2.36-3.94,4.58-5.57,10.76-10.61,17.36-15.44,4.87,3.42,9.67,6.86,14.44,10.31Z"/>
    <path class="cls-83" d="m80.22,825.75c4.05-.13,8.06-.23,12.07-.32,7.54.59,15.04,1.71,22.69,1.71,35.85-2.02,71.7,2,107.55,2.43,34.39,2.45,68.59,5.99,103.31,6.67,14.02.11,27.97,2.55,41.96,1.01,17.77-1.43,35.7,1.14,52.09,4.91,12.45,2.93,26.14,2.28,39.26,3.27,10.76.86,21.6,1.46,32.51,1.31,16.35-.19,31.99,2.87,47.92,4.35.68-.84,2.06-2.57,2.74-3.44,2.21,3.21,4.65,6.39,7.09,9.58,2.59-2.89,5.14-5.78,7.72-8.65,6.67,2.07,12.15,5.08,16.76,8.5,4.95-3.78,10.09-7.47,15.45-11.05,3,3.46,5.85,6.92,8.74,10.42.71-.36,2.1-1.03,2.81-1.37,30.38,7.91,64.95,4.96,97.42,6.54,3.41-4.94,7.24-9.79,11.36-14.55,3,.8,6,1.62,8.96,2.47,5.89,5.13,9.56,10.91,15,16.18,3.15-3.27,6.19-6.52,9.15-9.81,5.06-1.1,10.09-2.21,15.15-3.29,4.31,4.66,10.42,8.65,18.45,11.39,10.2-2.49,17.06,2.49,23.66,6.05,3.26-.97,6.53-1.92,9.82-2.85l5.85,4.47c-30.97,4.85-63.64,4.24-95.44,5.86-40.73,3.23-81.75-.55-122.55-1.37-32.78-2.7-66-.02-98.77-2.7-34.95-2.49-70.09,1.05-105.08-.59-25.84-1.79-52.13-1.86-77.59-5.17-1.61.91-4.8,2.72-6.37,3.65-29.96-3.42-59.1-8.65-88.73-12.72-16.88-2.36-33.64-5.29-48.37-10.59-18.08-6.26-39.83-3.65-59.78-3.63-15.86.27-30.82-3.04-45.07-6.52,4.09-4.05,8.17-8.1,12.23-12.15Z"/>
    <path class="cls-63" d="m.39,828.68c23.21,1.18,46.09,4.13,67.61,9.22,14.25,3.48,29.21,6.79,45.07,6.52,19.95-.02,41.7-2.64,59.78,3.63,14.74,5.29,31.5,8.23,48.37,10.59,29.63,4.07,58.76,9.3,88.73,12.72,53.14,6.35,105.9,13.84,159.52,18.84,34.27,3.06,68.25,7.17,102.45,10.4,2.7-3.73,3.45-8.31,8.92-11.16,14.89-4.54,35.1-4.18,46.28,3.69,2.62,4.37,3.34,9.01,3.86,13.61,31.16,4.66,63.07,7.64,94.46,11.62,9.52-1.58,14.51-8.56,25.2-9.45,10.16-.42,20.29.78,30.45,1.18,6.71,7.64,23.59,10.5,27.6,19.03,15.86,1.5,31.65,3.19,47.59,4.26,6.07,3.04,12.97,5.82,17.02,9.89,2.7,5.93,1.76,12.15,2.06,18.25,1.76-.89,5.29-2.68,7.05-3.59,1.76,2.03,3.75,4.05,4.84,6.29-2.29,4.05-7.99,7.15-12.04,10.69-13.8-.51-23.06-6.77-35.32-9.26-18.9,3.94-40.09,4.13-57,10.84-2.78-10.46-17.89-17.87-33.79-22.36-17.66-.82-36.83-.74-52.88,4.09-13.84,3.99-30.08,7.83-34.42,17.15-7.99,2.93-15.56,6.18-22.54,9.85,1.8,5.27,3.11,10.63,3.9,16.01-8.06-2.17-16.05-4.37-24.07-6.5,2.32,1.75,4.69,3.5,7.05,5.27-12.04-.7-24-1.56-35.89-2.85,2.25-4.43,5.7-8.65,7.8-13.08-5.36-7.85-16.16-15.97-32.18-16.85-11.7-.61-26.25-1.75-34.73,3.97-9.19,4.45-13.16,10.99-15.07,17.53-2.62.27-7.84.82-10.42,1.1-124.09-12.97-247.46-28.08-369.75-45.67-45.37-7.15-91.5-13.33-135.52-22.91v-92.56Z"/>
    <path class="cls-81" d="m626.45,847.14c10.24-3.97,17.92-9.64,26.74-14.51,6.23,5,11.77,10.25,16.65,15.74,1.35-1.37,4.05-4.11,5.4-5.46,2.89-.02,8.66-.04,11.55-.06,5.03,6.01,9.04,12.28,11.55,18.77-32.47-1.58-67.05,1.37-97.42-6.54,3.45-4.56,7.72-8.88,12.94-12.85,4.27,1.29,7.61,4.68,12.6,4.91Z"/>
    <path class="cls-93" d="m997.66,853.66c4.87-1.81,9.79-3.63,14.7-5.4,2.63,1.98,5.25,3.97,7.88,5.99,3.23-.53,6.49-1.01,9.71-1.52,6.75,1.24,13.46,2.47,20.21,3.71-5.55,6.81-16.24,11.52-26.29,16.16-10.61,4.18-23.14,7.34-29.36,14.15-2.74,3.08-9.49,1.9-14.29,1.92-12.86-.91-25.73.21-38.44,1.35-7.09,5.46-16.99,9.32-28.24,11.66-1.16,3.02-2.32,6.03-3.45,9.05-1.95.13-5.81.36-7.72.49-5.96-5.38-12.26-11.14-23.51-13.29-3.94-1.16-7.8-2.32-11.66-3.5-.3-1.41-.94-4.22-1.24-5.61,5.21-.21,10.39-.55,15.56-.97,5.59-2.57,8.25-6.52,12-9.87,4.5-.04,9.04-.06,13.57-.08,8.1-7.74,22.76-11.07,38.21-11.22,3.15-1.92,6.34-3.86,9.49-5.78,6.04,2.49,12.04,4.98,18.07,7.49,4.43-6.05,4.09-14.15,16.01-17.36,2.21.65,6.6,1.98,8.77,2.64Z"/>
    <path class="cls-96" d="m1209.24,863.21c4.54,1.58,9.08,3.19,13.65,4.79,16.65-4.58,34.24,1.77,51.07-1.67,9.53-2.17,18.68,1.14,27.38,2.97,23.33-6.37,48.45,2.72,72.64.89,3.41,2.68,8.14,4.6,13.09,6.35-4.42,2.66-8.81,5.32-13.16,8.04,5.81,3.86,9.11,8.59,10.16,13.63-10.65-3.16-21-7.76-33.53-7.83-8.33.89-11.78,5.48-13.35,9.64,3.56.23,10.65.65,14.21.89-5.47,5.17-10.27,10.57-13.84,16.28-7.65-2.34-15.79-4.09-24.11-5.38-1.35-4.62-.79-10.46-9.6-12.83-13.31-3.88-28.87-4.45-43.54-5.36-17.36-.51-27.23,8.92-37.84,15.08-6.75,3.59-2.21,8.94-1.43,13.33-3.75-.19-7.58-.42-11.25-.51-2.78-6.33-3.19-12.87-5.48-19.2-12.9-6.29-21.82-14.79-34.2-21.16-15.64-.42-32.62-2.59-47.44,1.05-1.76-4.58-3.37-9.15-4.8-13.75,10.13-1.01,20.44-.59,30.15,1.37,4.05-1.43,8.1-2.87,12.19-4.26,10.24,1.62,20.89,4.18,31.69,2.59,6.11-1.22,11.66-3.21,17.32-4.98Z"/>
    <path class="cls-1" d="m316.32,867.7c25.46,3.31,51.75,3.38,77.59,5.17,34.99,1.65,70.12-1.9,105.08.59,32.77,2.68,66,0,98.77,2.7,40.8.82,81.82,4.6,122.55,1.37,31.8-1.62,64.46-1.01,95.44-5.86,5.36,2.43,11.1,4.54,16.76,6.75.49-1.24,1.43-3.73,1.91-4.98,5.06,3.97,10.24,7.87,15.41,11.79-17.59,6.14-38.55,6.98-58.69,6.26-28.72-.78-57.15,2.74-85.87,2.68-26.1.84-52.05-2.07-78.15-1.05-11.18-7.87-31.39-8.23-46.28-3.69-5.47,2.85-6.22,7.43-8.92,11.16-34.2-3.23-68.18-7.34-102.45-10.4-53.62-5-106.39-12.49-159.52-18.84,1.57-.93,4.76-2.74,6.37-3.65Z"/>
    <path class="cls-101" d="m1102.62,874.18c2.78-2.47,5.55-4.94,8.33-7.38,1.72.42,5.21,1.27,6.94,1.69,1.43,4.6,3.04,9.18,4.8,13.75-7.61,2.03-15.56,3.63-22.76,6.08-8.14,8.42-22.05,17.15-15.26,27.36-5.25.08-10.46.13-15.68.19-5.74,5.08-8.47,10.91-9.26,16.88-12.64-9.13-32.1-13.84-47.7-21.09-7.72,1.43-15.79,2.57-22.76,5-9.3,3.54-10.46,10.34-13.58,15.88-5.77.93-11.51,1.86-17.25,2.81-1.91,1.98-3.82,3.97-5.74,5.97-7.65-.04-15.79-.34-22.05,2.64-7.91-4.09-19.54-4.41-29.44-2.78-9.64,3.04-16.5,8.23-21.64,13.61.71.8,2.14,2.38,2.85,3.16-1.76.91-5.29,2.7-7.05,3.59-.3-6.1.64-12.32-2.06-18.25-4.05-4.07-10.95-6.86-17.02-9.89-.45-2.47-.83-4.96-.98-7.4.3-.72.98-2.15,1.31-2.87,10.5-.02,21.15.44,31.57-.53,8.14-.61,12.94-4.79,18.37-7.76-1.05-.91-3.15-2.7-4.2-3.59,1.91-.13,5.78-.36,7.72-.49,1.13-3.02,2.29-6.03,3.45-9.05,11.25-2.34,21.15-6.2,28.24-11.66,12.71-1.14,25.57-2.26,38.44-1.35,4.8-.02,11.55,1.16,14.29-1.92,6.23-6.81,18.75-9.98,29.36-14.15,11.96,2.24,24.68,2.87,37.2,1.92,3.6-1.62,7.05-3.42,11.1-4.7,10.42.68,20.21,3.14,30.45,4.37Z"/>
    <path class="cls-86" d="m1122.69,882.24c14.81-3.65,31.8-1.48,47.44-1.05,12.38,6.37,21.3,14.87,34.2,21.16,2.29,6.33,2.7,12.87,5.48,19.2-21.38.21-25.69,15.04-44.81,17.47-5.7,1.16-11.89,1.73-17.06,3.59-4.84,4.56-4.31,10.15-5.06,15.27-1.09-3.56-2.59-7.09-3.97-10.61-7.76,1.24-15.26,2.97-22.05,5.42-2.51-2.36-4.46-5.34-9.79-6.01-17.14-3.21-36-6.43-53.92-3.19-3.71,5.67-11.21,9.85-20.59,12.68.08,2.02.22,4.05.49,6.12-8.17.02-17.1-1.39-24.64.99-12.97,3.4-22.2,9.81-34.09,14.11-13.2,3.38-27.26,5.51-40.65,8.65-3,3.54-6.07,7.05-9.15,10.57-11.06-3.14-23.47-4.58-35.29-1.86-8.4-5.93-2.89-14.7-13.99-19.83,4.05-3.54,9.75-6.64,12.04-10.69-1.09-2.24-3.08-4.26-4.84-6.29-.71-.78-2.14-2.36-2.85-3.16,5.14-5.38,12-10.57,21.64-13.61,9.9-1.62,21.53-1.31,29.44,2.78,3.34,4.22,9.6,7.38,18.15,7.47,4.12-1.46,7.5-3.48,11.06-5.34-1.8-1.18-5.36-3.56-7.16-4.77,1.91-2,3.83-3.99,5.74-5.97,5.74-.95,11.48-1.88,17.25-2.81,3.11-5.55,4.28-12.34,13.58-15.88,6.97-2.43,15.04-3.56,22.76-5,15.6,7.26,35.06,11.96,47.7,21.09.79-5.97,3.53-11.79,9.26-16.88,5.21-.06,10.42-.11,15.68-.19-6.79-10.21,7.12-18.94,15.26-27.36,7.2-2.45,15.15-4.05,22.76-6.08Z"/>
    <path class="cls-94" d="m849.84,885.23c4.31-1.12,8.74-2.09,13.2-3.06,1.01,2.19,1.99,4.41,2.93,6.64.3,1.39.94,4.2,1.24,5.61,3.86,1.18,7.73,2.34,11.66,3.5-7.8-.06-15.79-.42-23.36.76-7.8,2.59-14.03,6.41-21.98,8.88-17.48.8-34.95,1.77-52.42,2.51-10.16-.4-20.29-1.6-30.45-1.18-10.69.89-15.68,7.87-25.2,9.45-31.39-3.99-63.3-6.96-94.46-11.62-.52-4.6-1.24-9.24-3.86-13.61,26.1-1.01,52.05,1.9,78.15,1.05,28.73.06,57.15-3.46,85.87-2.68,20.14.72,41.1-.13,58.69-6.26Z"/>
    <path class="cls-60" d="m833.52,907.57c7.95-2.47,14.17-6.29,21.98-8.88,7.58-1.18,15.56-.82,23.36-.76,11.25,2.15,17.55,7.91,23.51,13.29,1.05.89,3.15,2.68,4.2,3.59-5.44,2.97-10.24,7.15-18.37,7.76-10.42.97-21.07.51-31.57.53-.34.72-1.01,2.15-1.31,2.87-7.05,2.4-15.22,3.02-23.33,2.93-2.85-7.11-2.1-14.39,1.54-21.33Z"/>
    <path class="cls-87" d="m781.1,910.08c17.48-.74,34.95-1.71,52.42-2.51-3.64,6.94-4.39,14.22-1.54,21.33,8.1.08,16.28-.53,23.33-2.93.15,2.45.52,4.94.98,7.4-15.94-1.08-31.73-2.76-47.59-4.26-4.01-8.52-20.89-11.39-27.6-19.03Z"/>
    <path class="cls-113" d="m930.65,943.94c6.26-2.97,14.4-2.68,22.05-2.64,1.8,1.2,5.36,3.59,7.16,4.77-3.56,1.86-6.94,3.88-11.06,5.34-8.55-.08-14.81-3.25-18.15-7.47Z"/>
    <path class="cls-89" d="m1053.12,943.47c17.92-3.25,36.79-.02,53.92,3.19,5.33.68,7.28,3.65,9.79,6.01,3.19,3.67,7.54,6.96,12.45,9.96-1.76,2.95-3.64,5.91-5.48,8.86-14.06,1.96-28.42,1.77-42.37-.21-14.62,1.92-29.51,3.04-44.55,1.81-1.27-3.63-2.74-7.21-3.86-10.82-.26-2.07-.41-4.09-.49-6.12,9.38-2.83,16.88-7,20.59-12.68Z"/>
    <path class="cls-99" d="m1116.84,952.67c6.79-2.45,14.29-4.18,22.05-5.42,1.39,3.52,2.89,7.05,3.97,10.61.22,1.24.67,3.73.9,4.96-4.84-.21-9.67-.21-14.47-.19-4.91-3-9.26-6.29-12.45-9.96Z"/>
    <path class="cls-48" d="m1008.39,963.26c7.54-2.38,16.46-.97,24.64-.99,1.13,3.61,2.59,7.19,3.86,10.82.94,4.75,4.31,9.09,9.56,12.85,4.69-.02,9.45,0,14.17.02.64,2.55,1.24,5.13,1.8,7.7-.41.91-1.24,2.72-1.65,3.63-6.75.11-13.46.21-20.21.34-1.27-3.56-2.59-7.11-3.86-10.63-2.44,3.9-4.88,7.78-7.28,11.71-2.55.53-7.65,1.62-10.2,2.17-5.74-11.16-1.2-23.37-9.38-34.11-2.4,11.37-1.05,22.84-1.72,34.28-12.23.19-24,2.11-36.08,2.85-3.9-5.13-4.61-10.86-9.45-15.76-.34,5.36.45,10.72,1.35,16.05-29.21,3.5-59.36,3.29-89.1,3.48,5.32-4.11,10.35-8.35,14.36-12.93,11.81-2.72,24.22-1.29,35.29,1.86,3.08-3.52,6.15-7.02,9.15-10.57,13.39-3.14,27.45-5.27,40.65-8.65,11.89-4.3,21.11-10.72,34.09-14.11Z"/>
    <path class="cls-112" d="m1129.29,962.63c4.8-.02,9.64-.02,14.47.19,5.06,1.18,9.98,2.53,14.96,3.88-3.34,4.94-5.48,10.08-6,15.38-4.65.61-9.3,1.27-13.95,1.9-2.89-3.25-3.15-7.8-9.45-9.66-11.4,2.36-6.22,11.45-8.7,16.85-4.95.36-9.9.76-14.81,1.14-2.36-3.54-4.69-7.07-7.01-10.59-2.06,4.18-4.09,8.35-6.04,12.55-5.81.19-12,1.29-17.62.21-3.34-2.26-6.07-4.75-8.93-7.19-1.31,2.11-2.59,4.24-3.79,6.37-.56-2.57-1.16-5.15-1.8-7.7-4.73-.02-9.49-.04-14.17-.02-5.25-3.75-8.63-8.1-9.56-12.85,15.04,1.22,29.93.11,44.55-1.81,13.95,1.98,28.31,2.17,42.37.21,1.84-2.95,3.71-5.91,5.48-8.86Z"/>
    <path class="cls-105" d="m531.16,971.19c8.48-5.72,23.02-4.58,34.73-3.97,16.01.89,26.81,9.01,32.18,16.85-2.1,4.43-5.55,8.65-7.8,13.08-27.98-3.27-56.66-4.03-84.6-7.34,2.59-.27,7.8-.82,10.42-1.1,1.91-6.54,5.89-13.08,15.07-17.53Z"/>
    <path class="cls-2" d="m916.36,992.43c-9.26-.34.75-8.42,4.35-3.46-1.09.86-3.26,2.59-4.35,3.46Z"/>
    <path class="cls-44" d="m1805.07,765.3c4.05-1.65,8.21-1.73,12.45-.25.45,3.02-12.86,3.31-12.45.25Z"/>
    <path class="cls-43" d="m1879.32,770.54c-1.8-2.66,5.93-5.06,9.68-3.56,1.8,2.64-5.96,4.87-9.68,3.56Z"/>
    <path class="cls-2" d="m1650.46,785.68c3.08-2.57,13.91-.49,8.36,2.49-3.19,2.3-13.65.63-8.36-2.49Z"/>
    <path class="cls-40" d="m1715.64,785.72c5.29-.97,7.24.02,5.85,2.97-5.29.93-7.24-.06-5.85-2.97Z"/>
    <path class="cls-34" d="m1568.45,801.02c2.89-2.72,12.94-.72,8.21,2.38-2.89,2.89-13.35.72-8.21-2.38Z"/>
    <path class="cls-34" d="m1577.3,830.08c6.23-1.16,8.25-.02,6.04,3.38-6.26,1.1-8.25-.02-6.04-3.38Z"/>
    <path class="cls-82" d="m1332.99,925.49c3.38-2.45,15-1.86,11.81,2.15-3.75,1.69-22.28,2.03-11.81-2.15Z"/>
    <ellipse class="cls-63" cx="748.89" cy="988.76" rx="141.5" ry="49.5"/>
    <ellipse class="cls-48" cx="964.89" cy="998.26" rx="8.5" ry="10"/>
    <ellipse class="cls-48" cx="1011.89" cy="986.76" rx="11.5" ry="20.5"/>
    <ellipse class="cls-112" cx="1038.89" cy="995.26" rx="9.5" ry="9"/>
    <ellipse class="cls-112" cx="1068.39" cy="992.76" rx="10" ry="7.5"/>
    <ellipse class="cls-112" cx="1104.39" cy="990.26" rx="14" ry="13"/>
    <circle class="cls-86" cx="1129.39" cy="983.26" r="10"/>
    <ellipse class="cls-86" cx="1187.89" cy="948.26" rx="42.5" ry="20"/>
    <ellipse class="cls-86" cx="1149.89" cy="950.76" rx="7.5" ry="19.5"/>
    <circle class="cls-86" cx="1156.89" cy="964.76" r="9.5"/>
    <ellipse class="cls-96" cx="1199.89" cy="929.76" rx="14.5" ry="12.5"/>
    <ellipse class="cls-96" cx="1305.39" cy="916.76" rx="100" ry="38.5"/>
    <ellipse class="cls-114" cx="1426.39" cy="853.76" rx="60" ry="39.5"/>
    <ellipse class="cls-114" cx="1394.89" cy="899.76" rx="29.5" ry="22.5"/>
    <ellipse class="cls-72" cx="1493.89" cy="840.76" rx="41.5" ry="34.5"/>
    <ellipse class="cls-72" cx="1533.39" cy="799.26" rx="37" ry="23"/>
    <ellipse class="cls-37" cx="1687.89" cy="777.76" rx="99.5" ry="44.5"/>
    <ellipse class="cls-72" cx="1566.39" cy="791.26" rx="30" ry="36"/>
    <ellipse class="cls-27" cx="1829.89" cy="798.26" rx="59.5" ry="52"/>
    <ellipse class="cls-27" cx="1857.89" cy="754.26" rx="18.5" ry="18"/>
    <ellipse class="cls-50" cx="1875.89" cy="751.76" rx="19.5" ry="20.5"/>
    <path class="cls-50" d="m1903.89,723.26c-11.87,0-21.5,11.19-21.5,25s9.63,25,21.5,25c6.75,0,12.77-3.62,16.71-9.27v-31.45c-3.94-5.66-9.96-9.27-16.71-9.27Z"/>
    <ellipse class="cls-90" cx="1894.39" cy="726.76" rx="14" ry="7.5"/>
    <path class="cls-103" d="m1918.89,708.26c-11.32,0-20.5,5.37-20.5,12s9.18,12,20.5,12c.58,0,1.14-.02,1.71-.05v-23.9c-.57-.03-1.13-.05-1.71-.05Z"/>
    <ellipse class="cls-103" cx="1899.89" cy="717.76" rx="3.5" ry="2.5"/>
    <path class="cls-103" d="m1919.89,706.26c-.83,0-1.5.67-1.5,1.5s.67,1.5,1.5,1.5c.26,0,.5-.07.71-.19v-2.63c-.21-.11-.45-.19-.71-.19Z"/>
  </g>
  <g id="Layer_1" data-name="Layer 1">
    <path class="cls-58" d="m1897.32,718.62c7.72-3.78,15.9-7.26,23.06-11.39v372.03H.39v-158.52c44.02,9.58,90.15,15.76,135.52,22.91,122.29,17.59,245.66,32.7,369.75,45.67,27.94,3.31,56.62,4.07,84.6,7.34,11.89,1.29,23.85,2.15,35.89,2.85-2.36-1.77-4.72-3.52-7.05-5.27,8.02,2.13,16.01,4.32,24.07,6.5-.79-5.38-2.1-10.74-3.9-16.01,6.98-3.67,14.55-6.92,22.54-9.85,4.35-9.32,20.59-13.16,34.42-17.15,16.05-4.83,35.21-4.91,52.88-4.09,15.9,4.49,31.01,11.9,33.79,22.36,16.91-6.71,38.1-6.9,57-10.84,12.26,2.49,21.53,8.75,35.32,9.26,11.1,5.13,5.59,13.9,13.99,19.83-4.01,4.58-9.04,8.82-14.36,12.93,29.74-.19,59.89.02,89.1-3.48-.9-5.34-1.69-10.69-1.35-16.05,4.84,4.89,5.55,10.63,9.45,15.76,12.08-.74,23.85-2.66,36.08-2.85.67-11.43-.68-22.91,1.72-34.28,8.17,10.74,3.64,22.95,9.38,34.11,2.55-.55,7.65-1.65,10.2-2.17,2.4-3.92,4.84-7.8,7.28-11.71,1.27,3.52,2.59,7.07,3.86,10.63,6.75-.13,13.46-.23,20.21-.34.41-.91,1.24-2.72,1.65-3.63,1.2-2.13,2.48-4.26,3.79-6.37,2.85,2.45,5.59,4.94,8.93,7.19,5.62,1.08,11.81-.02,17.62-.21,1.95-4.2,3.97-8.37,6.04-12.55,2.32,3.52,4.65,7.05,7.01,10.59,4.91-.38,9.86-.78,14.81-1.14,2.48-5.4-2.7-14.49,8.7-16.85,6.3,1.86,6.56,6.41,9.45,9.66,4.65-.63,9.3-1.29,13.95-1.9.52-5.29,2.66-10.44,6-15.38-4.99-1.35-9.9-2.7-14.96-3.88-.22-1.22-.67-3.71-.9-4.96.75-5.13.22-10.72,5.06-15.27,5.18-1.86,11.36-2.43,17.06-3.59,19.13-2.43,23.44-17.25,44.81-17.47,3.67.08,7.5.32,11.25.51-.79-4.39-5.33-9.75,1.43-13.33,10.61-6.16,20.47-15.59,37.84-15.08,14.66.91,30.22,1.48,43.54,5.36,8.81,2.36,8.25,8.21,9.6,12.83,8.33,1.29,16.46,3.04,24.11,5.38,3.56-5.72,8.36-11.12,13.84-16.28-3.56-.23-10.65-.65-14.21-.89,1.57-4.16,5.02-8.75,13.35-9.64,12.52.06,22.88,4.66,33.53,7.83-1.05-5.04-4.35-9.77-10.16-13.63,4.35-2.72,8.74-5.38,13.16-8.04-4.95-1.75-9.67-3.67-13.09-6.35,14.4-4.37,13.91-13.8,18.94-21.37,1.39.74,4.13,2.19,5.47,2.91,3.49-4.7,10.8-6.14,19.24-5.32.9-.86,2.78-2.62,3.71-3.48-1.43-2.45-2.85-4.91-4.2-7.36,3.3-3.52,6.45-7.11,9.23-10.8,14.1-.95,28.39-2.07,41.14-5.84,2.62-2.19,5.14-4.43,8.21-6.41,4.76.06,9.49.57,14.21.97,4.69-1.33,9.34-2.7,13.99-4.05-1.09-1.98-2.21-3.99-3.26-5.97.3-.8.94-2.45,1.27-3.27.52-6.92,7.5-12.34,17.29-16.18-1.2-3.31,2.36-6.69,8.85-6.5,9.41.02,18.45-1.43,27.11-3.42,2.63,1.43,5.25,2.89,7.88,4.35,3.9-7.3,16.84-7.66,28.05-8.96,3.6-3.46,5.51-7.74,11.32-10.31,10.09-2.97,22.24-1.69,31.65,1.54,6.64-4.03,12.64-9.79,23.63-9.85,15.6-.38,31.88-4.85,46.99-1.24.97.55,2.92,1.67,3.9,2.21,5.55.99,11.21,1.81,16.91,2.62,10.39-2.11,20.25.65,29.29,3.4.67,1.18,2.03,3.5,2.7,4.68,8.03,4.41,22.01,8.8,18.53,16.26-.45,4.6-6.56,7.78-12.08,10.72,7.28,1.16,13.8,3.29,19.39,6.2-1.69-3.19-3.26-6.35-4.84-9.51,1.16-.59,3.53-1.75,4.69-2.34-.41-3.08.86-5.95,3.86-8.54-1.5-.86-4.54-2.59-6.04-3.44,6.6-8.96,23.18-12.74,33.23-20.06,9.34-3.94,21.15-6.41,31.54-1.98,1.88-4.58,4.27-9.11,8.51-13.2,12.11-.57,25.54.84,35.21-4.35-1.69-.84-5.1-2.53-6.79-3.37,4.69-3.35,9.41-6.71,14.62-9.79Z"/>
  </g>
</svg>