<?xml version="1.0" encoding="UTF-8"?>
<svg id="Layer_2" data-name="Layer 2" xmlns="http://www.w3.org/2000/svg" viewBox="0 0 1889.13 243.91">
  <defs>
    <style>
      .cls-1 {
        fill: #696683;
        stroke: #696683;
      }

      .cls-1, .cls-2, .cls-3, .cls-4, .cls-5, .cls-6, .cls-7, .cls-8, .cls-9, .cls-10, .cls-11, .cls-12, .cls-13, .cls-14, .cls-15, .cls-16, .cls-17, .cls-18, .cls-19, .cls-20, .cls-21, .cls-22, .cls-23, .cls-24, .cls-25 {
        stroke-width: .25px;
      }

      .cls-2 {
        fill: #fefefd;
        stroke: #fefefd;
      }

      .cls-3 {
        fill: #b2b9c7;
        stroke: #b2b9c7;
      }

      .cls-4 {
        fill: #aea6a1;
        stroke: #aea6a1;
      }

      .cls-5 {
        fill: #928288;
        stroke: #928288;
      }

      .cls-6 {
        fill: #927177;
        stroke: #927177;
      }

      .cls-7 {
        fill: #332b4a;
        stroke: #332b4a;
      }

      .cls-8 {
        fill: #3e3b5d;
        stroke: #3e3b5d;
      }

      .cls-9 {
        fill: #373050;
        stroke: #373050;
      }

      .cls-10 {
        fill: #4c496e;
        stroke: #4c496e;
      }

      .cls-11 {
        fill: #4c4763;
        stroke: #4c4763;
      }

      .cls-12 {
        fill: #5a5676;
        stroke: #5a5676;
      }

      .cls-13 {
        fill: #2e2543;
        stroke: #2e2543;
      }

      .cls-14 {
        fill: #838297;
        stroke: #838297;
      }

      .cls-15 {
        fill: #261b39;
        stroke: #261b39;
      }

      .cls-16 {
        fill: #757b94;
        stroke: #757b94;
      }

      .cls-17 {
        fill: #76748d;
        stroke: #76748d;
      }

      .cls-18 {
        fill: #4f5476;
        stroke: #4f5476;
      }

      .cls-19 {
        fill: #4b4769;
        stroke: #4b4769;
      }

      .cls-20 {
        fill: #3b324f;
        stroke: #3b324f;
      }

      .cls-21 {
        fill: #46496c;
        stroke: #46496c;
      }

      .cls-22 {
        fill: #2c2241;
        stroke: #2c2241;
      }

      .cls-23 {
        fill: #2b2241;
        stroke: #2b2241;
      }

      .cls-24 {
        fill: #595c7c;
        stroke: #595c7c;
      }

      .cls-25 {
        fill: #596182;
        stroke: #596182;
      }
    </style>
  </defs>
  <path class="cls-25" d="m1357.44,30.61c4.2-3,9.07-5.65,14.85-7.68,1.46,1.54,4.39,4.58,5.89,6.1,4.76-.4,9.56-.78,14.36-1.16,3.82-1.2,7.69-2.36,11.55-3.52,3.3,1.71,6.75,3.35,10.35,4.91,5.51-.04,10.09-2.17,15.08-3.27,3.64.06,7.31.15,10.99.23.86.8,2.62,2.4,3.53,3.21,5.92.42,11.85.86,17.77,1.33,2.17-.99,4.35-1.98,6.52-2.95,10.28,3.69,20.51,8.37,33.34,8.52-.34.82-.98,2.47-1.27,3.27,1.05,1.98,2.17,3.99,3.26,5.97-4.65,1.35-9.3,2.72-13.99,4.05-4.72-.4-9.45-.91-14.21-.97-3.08,1.98-5.59,4.22-8.21,6.41-12.75,3.78-27.04,4.89-41.14,5.84-2.78,3.69-5.93,7.28-9.23,10.8,1.35,2.45,2.78,4.91,4.2,7.36-.94.86-2.81,2.62-3.71,3.48-8.44-.82-15.75.61-19.24,5.32-1.35-.72-4.09-2.17-5.47-2.91-5.02,7.57-4.54,17-18.94,21.37-24.19,1.84-49.31-7.26-72.64-.89-8.7-1.84-17.85-5.15-27.38-2.97-16.84,3.44-34.42-2.91-51.07,1.67-4.58-1.6-9.11-3.21-13.65-4.79-5.66,1.77-11.21,3.75-17.32,4.98-10.8,1.58-21.45-.97-31.69-2.59-4.09,1.39-8.14,2.83-12.19,4.26-9.71-1.96-20.02-2.38-30.15-1.37-1.72-.42-5.21-1.27-6.94-1.69-2.77,2.45-5.55,4.91-8.33,7.38-10.24-1.22-20.02-3.69-30.45-4.37-4.05,1.29-7.5,3.08-11.1,4.7-12.52.95-25.24.32-37.2-1.92,10.05-4.64,20.74-9.34,26.29-16.16,4.5-5.29,8.81-10.61,13.42-15.86,4.99,1.01,10.46,4.94,16.13,2.66,7.2-2.7,13.27-6.2,19.69-9.43,3.49.46,6.97.95,10.46,1.43,6.38-3.67,12.94-7.26,19.65-10.72,3.82,1.2,7.69,2.43,11.55,3.65,1.39-2.36,2.81-4.7,4.24-7.05,3.26.23,6.49.49,9.75.76,1.95-2.05,3.86-4.07,5.81-6.08,4.61,1.54,9.19,3.08,13.76,4.64,2.96-2.64,5.78-5.34,9.26-7.76,5.36-.78,8.85,2.62,13.16,3.84,5.36-2.02,10.76-4.01,16.28-5.89,1.57-1.27,4.72-3.78,6.3-5.02,3.9,1.98,7.88,3.99,11.85,5.99,3.53-4.89,9.86-9.37,19.65-5.72,11.92-1.86,23.85-4.62,31.61-10.31,4.01,1.01,8.06,2.05,12.11,3.1,2.63-2.81,5.29-5.57,7.99-8.33,4.8,1.96,9.56,3.92,14.4,5.91,8.33-2.21,16.54-4.77,25.46-6.16,5.17,1.24,10.01,2.87,15,4.39Z"/>
  <path class="cls-19" d="m152.79,43.12c7.35-4.11,13.12-9.87,23.14-12,5.1,3.21,9.15,6.88,13.39,10.46,4.69-2.68,9.38-5.36,14.1-7.99,5.21,5.23,9.71,10.65,13.54,16.26,3.94-2.74,7.91-5.44,11.89-8.14,3.26,2.74,6.45,5.53,9.6,8.33,1.95-3.84,5.51-7.07,12.6-8.29,3.15,4.51,5.59,9.34,11.1,13.23,6.19-4.41,11.4-9.2,16.84-13.88,4.2,4.54,8.14,9.13,11.85,13.82,2.21-4.05,4.5-8.08,6.86-12.07,4.5,2.49,8.96,4.98,13.43,7.49,2.4-2.24,4.8-4.45,7.35-6.62,1.95-.3,5.85-.91,7.8-1.2,8.14,6.01,14.96,12.53,21.9,18.98,2.66-3.88,5.29-7.76,7.99-11.62,13.12,3.02,19.76,10.19,24.97,17.13,5.44-3.1,10.84-6.22,16.2-9.34,3.79,4.09,7.54,8.23,11.25,12.36,7.13-5.89,14.93-11.54,23.48-16.79,8.06,3.4,11.25,8.96,16.5,13.56,7.54-4.26,11.62-10.13,19.27-14.41,2.96,1.98,5.89,4.01,8.74,6.05,3.67,5.63,7.05,11.33,10.46,17,6.98-3.9,13.91-7.83,20.78-11.79,7.5,4.77,10.05,11.52,18,15.95,3-2.13,5.93-4.28,8.74-6.45,2.63,3.52,5.18,7.05,7.54,10.63-.68.86-2.06,2.59-2.74,3.44-15.94-1.48-31.57-4.54-47.92-4.35-10.91.15-21.75-.44-32.51-1.31-13.12-.99-26.81-.34-39.26-3.27-16.39-3.78-34.31-6.35-52.09-4.91-13.99,1.54-27.94-.91-41.96-1.01-34.73-.67-68.92-4.22-103.31-6.67-35.85-.42-71.7-4.45-107.55-2.43-7.65,0-15.15-1.12-22.69-1.71,5.96-4.77,11.63-9.64,17.44-14.45,3.07,1.69,6.11,3.4,9.15,5.08.6-.99,1.76-2.95,2.36-3.94,4.58-5.57,10.76-10.61,17.36-15.44,4.87,3.42,9.67,6.86,14.44,10.31Z"/>
  <path class="cls-12" d="m79.96,61.87c4.05-.13,8.06-.23,12.07-.32,7.54.59,15.04,1.71,22.69,1.71,35.85-2.02,71.7,2,107.55,2.43,34.39,2.45,68.59,5.99,103.31,6.67,14.02.11,27.97,2.55,41.96,1.01,17.77-1.43,35.7,1.14,52.09,4.91,12.45,2.93,26.14,2.28,39.26,3.27,10.76.86,21.6,1.46,32.51,1.31,16.35-.19,31.99,2.87,47.92,4.35.68-.84,2.06-2.57,2.74-3.44,2.21,3.21,4.65,6.39,7.09,9.58,2.59-2.89,5.14-5.78,7.72-8.65,6.67,2.07,12.15,5.08,16.76,8.5,4.95-3.78,10.09-7.47,15.45-11.05,3,3.46,5.85,6.92,8.74,10.42.71-.36,2.1-1.03,2.81-1.37,30.38,7.91,64.95,4.96,97.42,6.54,3.41-4.94,7.24-9.79,11.36-14.55,3,.8,6,1.62,8.96,2.47,5.89,5.13,9.56,10.91,15,16.18,3.15-3.27,6.19-6.52,9.15-9.81,5.06-1.1,10.09-2.21,15.15-3.29,4.31,4.66,10.42,8.65,18.45,11.39,10.2-2.49,17.06,2.49,23.66,6.05,3.26-.97,6.53-1.92,9.82-2.85l5.85,4.47c-30.97,4.85-63.64,4.24-95.44,5.86-40.73,3.23-81.75-.55-122.55-1.37-32.78-2.7-66-.02-98.77-2.7-34.95-2.49-70.09,1.05-105.08-.59-25.84-1.79-52.13-1.86-77.59-5.17-1.61.91-4.8,2.72-6.37,3.65-29.96-3.42-59.1-8.65-88.73-12.72-16.88-2.36-33.64-5.29-48.37-10.59-18.08-6.26-39.83-3.65-59.78-3.63-15.86.27-30.82-3.04-45.07-6.52,4.09-4.05,8.17-8.1,12.23-12.15Z"/>
  <path class="cls-9" d="m.12,64.8c23.21,1.18,46.09,4.13,67.61,9.22,14.25,3.48,29.21,6.79,45.07,6.52,19.95-.02,41.7-2.64,59.78,3.63,14.74,5.29,31.5,8.23,48.37,10.59,29.63,4.07,58.76,9.3,88.73,12.72,53.14,6.35,105.9,13.84,159.52,18.84,34.27,3.06,68.25,7.17,102.45,10.4,2.7-3.73,3.45-8.31,8.92-11.16,14.89-4.54,35.1-4.18,46.28,3.69,2.62,4.37,3.34,9.01,3.86,13.61,31.16,4.66,63.07,7.64,94.46,11.62,9.52-1.58,14.51-8.56,25.2-9.45,10.16-.42,20.29.78,30.45,1.18,6.71,7.64,23.59,10.5,27.6,19.03,15.86,1.5,31.65,3.19,47.59,4.26,6.07,3.04,12.97,5.82,17.02,9.89,2.7,5.93,1.76,12.15,2.06,18.25,1.76-.89,5.29-2.68,7.05-3.59,1.76,2.03,3.75,4.05,4.84,6.29-2.29,4.05-7.99,7.15-12.04,10.69-13.8-.51-23.06-6.77-35.32-9.26-18.9,3.94-40.09,4.13-57,10.84-2.78-10.46-17.89-17.87-33.79-22.36-17.66-.82-36.83-.74-52.88,4.09-13.84,3.99-30.08,7.83-34.42,17.15-7.99,2.93-15.56,6.18-22.54,9.85,1.8,5.27,3.11,10.63,3.9,16.01-8.06-2.17-16.05-4.37-24.07-6.5,2.32,1.75,4.69,3.5,7.05,5.27-12.04-.7-24-1.56-35.89-2.85,2.25-4.43,5.7-8.65,7.8-13.08-5.36-7.85-16.16-15.97-32.18-16.85-11.7-.61-26.25-1.75-34.73,3.97-9.19,4.45-13.16,10.99-15.07,17.53-2.62.27-7.84.82-10.42,1.1-124.09-12.97-247.46-28.08-369.75-45.67-45.37-7.15-91.5-13.33-135.52-22.91v-92.56Z"/>
  <path class="cls-10" d="m626.19,83.26c10.24-3.97,17.92-9.64,26.74-14.51,6.23,5,11.77,10.25,16.65,15.74,1.35-1.37,4.05-4.11,5.4-5.46,2.89-.02,8.66-.04,11.55-.06,5.03,6.01,9.04,12.28,11.55,18.77-32.47-1.58-67.05,1.37-97.42-6.54,3.45-4.56,7.72-8.88,12.94-12.85,4.27,1.29,7.61,4.68,12.6,4.91Z"/>
  <path class="cls-16" d="m997.4,89.78c4.87-1.81,9.79-3.63,14.7-5.4,2.63,1.98,5.25,3.97,7.88,5.99,3.23-.53,6.49-1.01,9.71-1.52,6.75,1.24,13.46,2.47,20.21,3.71-5.55,6.81-16.24,11.52-26.29,16.16-10.61,4.18-23.14,7.34-29.36,14.15-2.74,3.08-9.49,1.9-14.29,1.92-12.86-.91-25.73.21-38.44,1.35-7.09,5.46-16.99,9.32-28.24,11.66-1.16,3.02-2.32,6.03-3.45,9.05-1.95.13-5.81.36-7.72.49-5.96-5.38-12.26-11.14-23.51-13.29-3.94-1.16-7.8-2.32-11.66-3.5-.3-1.41-.94-4.22-1.24-5.61,5.21-.21,10.39-.55,15.56-.97,5.59-2.57,8.25-6.52,12-9.87,4.5-.04,9.04-.06,13.57-.08,8.1-7.74,22.76-11.07,38.21-11.22,3.15-1.92,6.34-3.86,9.49-5.78,6.04,2.49,12.04,4.98,18.07,7.49,4.43-6.05,4.09-14.15,16.01-17.36,2.21.65,6.6,1.98,8.77,2.64Z"/>
  <path class="cls-18" d="m1208.97,99.33c4.54,1.58,9.08,3.19,13.65,4.79,16.65-4.58,34.24,1.77,51.07-1.67,9.53-2.17,18.68,1.14,27.38,2.97,23.33-6.37,48.45,2.72,72.64.89,3.41,2.68,8.14,4.6,13.09,6.35-4.42,2.66-8.81,5.32-13.16,8.04,5.81,3.86,9.11,8.59,10.16,13.63-10.65-3.16-21-7.76-33.53-7.83-8.33.89-11.78,5.48-13.35,9.64,3.56.23,10.65.65,14.21.89-5.47,5.17-10.27,10.57-13.84,16.28-7.65-2.34-15.79-4.09-24.11-5.38-1.35-4.62-.79-10.46-9.6-12.83-13.31-3.88-28.87-4.45-43.54-5.36-17.36-.51-27.23,8.92-37.84,15.08-6.75,3.59-2.21,8.94-1.43,13.33-3.75-.19-7.58-.42-11.25-.51-2.78-6.33-3.19-12.87-5.48-19.2-12.9-6.29-21.82-14.79-34.2-21.16-15.64-.42-32.62-2.59-47.44,1.05-1.76-4.58-3.37-9.15-4.8-13.75,10.13-1.01,20.44-.59,30.15,1.37,4.05-1.43,8.1-2.87,12.19-4.26,10.24,1.62,20.89,4.18,31.69,2.59,6.11-1.22,11.66-3.21,17.32-4.98Z"/>
  <path class="cls-1" d="m316.06,103.83c25.46,3.31,51.75,3.38,77.59,5.17,34.99,1.65,70.12-1.9,105.08.59,32.77,2.68,66,0,98.77,2.7,40.8.82,81.82,4.6,122.55,1.37,31.8-1.62,64.46-1.01,95.44-5.86,5.36,2.43,11.1,4.54,16.76,6.75.49-1.24,1.43-3.73,1.91-4.98,5.06,3.97,10.24,7.87,15.41,11.79-17.59,6.14-38.55,6.98-58.69,6.26-28.72-.78-57.15,2.74-85.87,2.68-26.1.84-52.05-2.07-78.15-1.05-11.18-7.87-31.39-8.23-46.28-3.69-5.47,2.85-6.22,7.43-8.92,11.16-34.2-3.23-68.18-7.34-102.45-10.4-53.62-5-106.39-12.49-159.52-18.84,1.57-.93,4.76-2.74,6.37-3.65Z"/>
  <path class="cls-21" d="m1102.36,110.3c2.78-2.47,5.55-4.94,8.33-7.38,1.72.42,5.21,1.27,6.94,1.69,1.43,4.6,3.04,9.18,4.8,13.75-7.61,2.03-15.56,3.63-22.76,6.08-8.14,8.42-22.05,17.15-15.26,27.36-5.25.08-10.46.13-15.68.19-5.74,5.08-8.47,10.91-9.26,16.88-12.64-9.13-32.1-13.84-47.7-21.09-7.72,1.43-15.79,2.57-22.76,5-9.3,3.54-10.46,10.34-13.58,15.88-5.77.93-11.51,1.86-17.25,2.81-1.91,1.98-3.82,3.97-5.74,5.97-7.65-.04-15.79-.34-22.05,2.64-7.91-4.09-19.54-4.41-29.44-2.78-9.64,3.04-16.5,8.23-21.64,13.61.71.8,2.14,2.38,2.85,3.16-1.76.91-5.29,2.7-7.05,3.59-.3-6.1.64-12.32-2.06-18.25-4.05-4.07-10.95-6.86-17.02-9.89-.45-2.47-.83-4.96-.98-7.4.3-.72.98-2.15,1.31-2.87,10.5-.02,21.15.44,31.57-.53,8.14-.61,12.94-4.79,18.37-7.76-1.05-.91-3.15-2.7-4.2-3.59,1.91-.13,5.78-.36,7.72-.49,1.13-3.02,2.29-6.03,3.45-9.05,11.25-2.34,21.15-6.2,28.24-11.66,12.71-1.14,25.57-2.26,38.44-1.35,4.8-.02,11.55,1.16,14.29-1.92,6.23-6.81,18.75-9.98,29.36-14.15,11.96,2.24,24.68,2.87,37.2,1.92,3.6-1.62,7.05-3.42,11.1-4.7,10.42.68,20.21,3.14,30.45,4.37Z"/>
  <path class="cls-13" d="m1122.42,118.36c14.81-3.65,31.8-1.48,47.44-1.05,12.38,6.37,21.3,14.87,34.2,21.16,2.29,6.33,2.7,12.87,5.48,19.2-21.38.21-25.69,15.04-44.81,17.47-5.7,1.16-11.89,1.73-17.06,3.59-4.84,4.56-4.31,10.15-5.06,15.27-1.09-3.56-2.59-7.09-3.97-10.61-7.76,1.24-15.26,2.97-22.05,5.42-2.51-2.36-4.46-5.34-9.79-6.01-17.14-3.21-36-6.43-53.92-3.19-3.71,5.67-11.21,9.85-20.59,12.68.08,2.02.22,4.05.49,6.12-8.17.02-17.1-1.39-24.64.99-12.97,3.4-22.2,9.81-34.09,14.11-13.2,3.38-27.26,5.51-40.65,8.65-3,3.54-6.07,7.05-9.15,10.57-11.06-3.14-23.47-4.58-35.29-1.86-8.4-5.93-2.89-14.7-13.99-19.83,4.05-3.54,9.75-6.64,12.04-10.69-1.09-2.24-3.08-4.26-4.84-6.29-.71-.78-2.14-2.36-2.85-3.16,5.14-5.38,12-10.57,21.64-13.61,9.9-1.62,21.53-1.31,29.44,2.78,3.34,4.22,9.6,7.38,18.15,7.47,4.12-1.46,7.5-3.48,11.06-5.34-1.8-1.18-5.36-3.56-7.16-4.77,1.91-2,3.83-3.99,5.74-5.97,5.74-.95,11.48-1.88,17.25-2.81,3.11-5.55,4.28-12.34,13.58-15.88,6.97-2.43,15.04-3.56,22.76-5,15.6,7.26,35.06,11.96,47.7,21.09.79-5.97,3.53-11.79,9.26-16.88,5.21-.06,10.42-.11,15.68-.19-6.79-10.21,7.12-18.94,15.26-27.36,7.2-2.45,15.15-4.05,22.76-6.08Z"/>
  <path class="cls-17" d="m849.58,121.35c4.31-1.12,8.74-2.09,13.2-3.06,1.01,2.19,1.99,4.41,2.93,6.64.3,1.39.94,4.2,1.24,5.61,3.86,1.18,7.73,2.34,11.66,3.5-7.8-.06-15.79-.42-23.36.76-7.8,2.59-14.03,6.41-21.98,8.88-17.48.8-34.95,1.77-52.42,2.51-10.16-.4-20.29-1.6-30.45-1.18-10.69.89-15.68,7.87-25.2,9.45-31.39-3.99-63.3-6.96-94.46-11.62-.52-4.6-1.24-9.24-3.86-13.61,26.1-1.01,52.05,1.9,78.15,1.05,28.73.06,57.15-3.46,85.87-2.68,20.14.72,41.1-.13,58.69-6.26Z"/>
  <path class="cls-8" d="m833.26,143.69c7.95-2.47,14.17-6.29,21.98-8.88,7.58-1.18,15.56-.82,23.36-.76,11.25,2.15,17.55,7.91,23.51,13.29,1.05.89,3.15,2.68,4.2,3.59-5.44,2.97-10.24,7.15-18.37,7.76-10.42.97-21.07.51-31.57.53-.34.72-1.01,2.15-1.31,2.87-7.05,2.4-15.22,3.02-23.33,2.93-2.85-7.11-2.1-14.39,1.54-21.33Z"/>
  <path class="cls-14" d="m780.84,146.2c17.48-.74,34.95-1.71,52.42-2.51-3.64,6.94-4.39,14.22-1.54,21.33,8.1.08,16.28-.53,23.33-2.93.15,2.45.52,4.94.98,7.4-15.94-1.08-31.73-2.76-47.59-4.26-4.01-8.52-20.89-11.39-27.6-19.03Z"/>
  <path class="cls-24" d="m930.39,180.06c6.26-2.97,14.4-2.68,22.05-2.64,1.8,1.2,5.36,3.59,7.16,4.77-3.56,1.86-6.94,3.88-11.06,5.34-8.55-.08-14.81-3.25-18.15-7.47Z"/>
  <path class="cls-15" d="m1052.86,179.59c17.92-3.25,36.79-.02,53.92,3.19,5.33.68,7.28,3.65,9.79,6.01,3.19,3.67,7.54,6.96,12.45,9.96-1.76,2.95-3.64,5.91-5.48,8.86-14.06,1.96-28.42,1.77-42.37-.21-14.62,1.92-29.51,3.04-44.55,1.81-1.27-3.63-2.74-7.21-3.86-10.82-.26-2.07-.41-4.09-.49-6.12,9.38-2.83,16.88-7,20.59-12.68Z"/>
  <path class="cls-20" d="m1116.58,188.79c6.79-2.45,14.29-4.18,22.05-5.42,1.39,3.52,2.89,7.05,3.97,10.61.22,1.24.67,3.73.9,4.96-4.84-.21-9.67-.21-14.47-.19-4.91-3-9.26-6.29-12.45-9.96Z"/>
  <path class="cls-7" d="m1008.12,199.38c7.54-2.38,16.46-.97,24.64-.99,1.13,3.61,2.59,7.19,3.86,10.82.94,4.75,4.31,9.09,9.56,12.85,4.69-.02,9.45,0,14.17.02.64,2.55,1.24,5.13,1.8,7.7-.41.91-1.24,2.72-1.65,3.63-6.75.11-13.46.21-20.21.34-1.27-3.56-2.59-7.11-3.86-10.63-2.44,3.9-4.88,7.78-7.28,11.71-2.55.53-7.65,1.62-10.2,2.17-5.74-11.16-1.2-23.37-9.38-34.11-2.4,11.37-1.05,22.84-1.72,34.28-12.23.19-24,2.11-36.08,2.85-3.9-5.13-4.61-10.86-9.45-15.76-.34,5.36.45,10.72,1.35,16.05-29.21,3.5-59.36,3.29-89.1,3.48,5.32-4.11,10.35-8.35,14.36-12.93,11.81-2.72,24.22-1.29,35.29,1.86,3.08-3.52,6.15-7.02,9.15-10.57,13.39-3.14,27.45-5.27,40.65-8.65,11.89-4.3,21.11-10.72,34.09-14.11Z"/>
  <path class="cls-23" d="m1129.03,198.75c4.8-.02,9.64-.02,14.47.19,5.06,1.18,9.98,2.53,14.96,3.88-3.34,4.94-5.48,10.08-6,15.38-4.65.61-9.3,1.27-13.95,1.9-2.89-3.25-3.15-7.8-9.45-9.66-11.4,2.36-6.22,11.45-8.7,16.85-4.95.36-9.9.76-14.81,1.14-2.36-3.54-4.69-7.07-7.01-10.59-2.06,4.18-4.09,8.35-6.04,12.55-5.81.19-12,1.29-17.62.21-3.34-2.26-6.07-4.75-8.93-7.19-1.31,2.11-2.59,4.24-3.79,6.37-.56-2.57-1.16-5.15-1.8-7.7-4.73-.02-9.49-.04-14.17-.02-5.25-3.75-8.63-8.1-9.56-12.85,15.04,1.22,29.93.11,44.55-1.81,13.95,1.98,28.31,2.17,42.37.21,1.84-2.95,3.71-5.91,5.48-8.86Z"/>
  <path class="cls-22" d="m530.9,207.31c8.48-5.72,23.02-4.58,34.73-3.97,16.01.89,26.81,9.01,32.18,16.85-2.1,4.43-5.55,8.65-7.8,13.08-27.98-3.27-56.66-4.03-84.6-7.34,2.59-.27,7.8-.82,10.42-1.1,1.91-6.54,5.89-13.08,15.07-17.53Z"/>
  <path class="cls-2" d="m916.1,228.55c-9.26-.34.75-8.42,4.35-3.46-1.09.86-3.26,2.59-4.35,3.46Z"/>
  <path class="cls-6" d="m1804.81,1.43c4.05-1.65,8.21-1.73,12.45-.25.45,3.02-12.86,3.31-12.45.25Z"/>
  <path class="cls-5" d="m1879.06,6.66c-1.8-2.66,5.93-5.06,9.68-3.56,1.8,2.64-5.96,4.87-9.68,3.56Z"/>
  <path class="cls-2" d="m1650.2,21.8c3.08-2.57,13.91-.49,8.36,2.49-3.19,2.3-13.65.63-8.36-2.49Z"/>
  <path class="cls-4" d="m1715.37,21.84c5.29-.97,7.24.02,5.85,2.97-5.29.93-7.24-.06-5.85-2.97Z"/>
  <path class="cls-3" d="m1568.19,37.14c2.89-2.72,12.94-.72,8.21,2.38-2.89,2.89-13.35.72-8.21-2.38Z"/>
  <path class="cls-3" d="m1577.04,66.2c6.23-1.16,8.25-.02,6.04,3.38-6.26,1.1-8.25-.02-6.04-3.38Z"/>
  <path class="cls-11" d="m1332.72,161.61c3.38-2.45,15-1.86,11.81,2.15-3.75,1.69-22.28,2.03-11.81-2.15Z"/>
</svg>